<svg id="cabinet" viewBox="0 0 81 75" fill="none" xmlns="http://www.w3.org/2000/svg">
<path fill-rule="evenodd" clip-rule="evenodd" d="M77.7339 67.7169H79.7289C80.4351 67.7169 81 68.2989 81 68.9866V73.7303C81 74.4357 80.4351 75 79.7289 75H1.27114C0.564952 75 0 74.4357 0 73.7303V68.9866C0 68.2812 0.564952 67.7169 1.27114 67.7169H3.26613V23.1366H1.27114C0.882738 23.1366 0.529643 22.9603 0.282476 22.6605C0.0529643 22.3607 -0.0353095 21.9551 0.070619 21.5848L2.70118 11.0569C2.84242 10.475 3.33675 10.087 3.93701 10.087H25.211C26.0408 8.16483 27.2236 6.40136 28.7596 4.86715C31.9021 1.72819 36.0863 0 40.5177 0C44.949 0 49.1332 1.72819 52.2581 4.86715C53.7764 6.38373 54.9592 8.14719 55.789 10.0517H77.0807C77.6633 10.0517 78.1576 10.4573 78.3165 11.0216L80.947 21.5495C81.0353 21.9198 80.947 22.3254 80.7352 22.6252C80.5233 22.9426 80.1173 23.1542 79.7289 23.1542H77.7339V67.7169ZM57.1131 44.1747H75.1739V36.0804H57.1131V44.1747ZM75.1739 46.7141H57.1131V54.826H75.1739V46.7141ZM78.1046 20.5972L76.1096 12.5911H56.6364C56.9719 13.8961 57.1308 15.2363 57.1308 16.6118C57.1308 17.9697 56.9719 19.3099 56.6541 20.5972H78.1046ZM54.6061 16.6118C54.6061 8.85257 48.2681 2.53938 40.5177 2.53938C34.4974 2.53938 29.3599 6.33083 27.3472 11.6388C27.3296 11.7447 27.2942 11.8505 27.2413 11.9386C26.7293 13.4023 26.4468 14.9718 26.4468 16.6118C26.4468 24.371 32.7849 30.6842 40.5353 30.6842C46.5379 30.6842 51.6931 26.8928 53.7058 21.5671C53.7234 21.479 53.7587 21.3908 53.794 21.3202C54.3237 19.8389 54.6061 18.2695 54.6061 16.6118ZM24.3636 12.644H4.89037L2.91303 20.6501H4.23714C4.34307 20.6325 4.449 20.6149 4.55493 20.6149C4.66085 20.6149 4.76678 20.6149 4.87271 20.6501H24.3812C24.0634 19.3452 23.8869 17.9873 23.8869 16.6118C23.8869 15.2539 24.0458 13.9313 24.3636 12.644ZM25.2286 23.1542H5.82607V67.7169H14.3004V46.7141H13.8413C13.1351 46.7141 12.5702 46.1498 12.5702 45.4444V40.7007C12.5702 39.9953 13.1351 39.431 13.8413 39.431H40.5C41.2062 39.431 41.7711 39.9953 41.7711 40.7007V45.4444C41.7535 46.1498 41.1885 46.7141 40.5 46.7141H40.0233V67.7169H75.1739V57.3654H55.842C55.1358 57.3654 54.5708 56.8011 54.5708 56.0957V34.8107C54.5708 34.1053 55.1358 33.541 55.842 33.541H75.1739V23.1542H55.8067C54.9946 25.0764 53.794 26.8399 52.2757 28.3565C49.1332 31.4954 44.949 33.2236 40.5177 33.2236C36.0687 33.2236 31.9021 31.4954 28.7596 28.3565C27.2413 26.8399 26.0584 25.0764 25.2286 23.1542ZM15.0948 41.988V44.1747H15.5538H15.5715H15.5891H27.153H27.1707H27.1883H38.7345H38.7522H38.7698H39.2465V41.988H15.0948ZM25.8995 67.7169V46.7141H16.8426V67.7169H25.8995ZM37.481 46.7141H28.4595V67.7169H37.481V46.7141ZM2.54228 72.4782H78.4754V70.2916H2.54228V72.4782ZM33.6147 16.8058C33.5617 16.5413 33.4381 16.2062 33.2792 15.8359C33.2688 15.811 33.2584 15.7861 33.248 15.7611C32.9913 15.147 32.7129 14.4808 32.679 13.6845V13.6668C32.679 12.5911 33.0144 11.533 33.6323 10.6337C34.2502 9.73432 35.1153 9.04657 36.1216 8.6586C36.7219 8.42935 37.3045 8.32355 37.9224 8.32355C38.7522 8.32355 39.6173 8.58807 40.5177 9.15237C41.4181 8.6057 42.2478 8.32355 43.1129 8.32355C43.7308 8.32355 44.3134 8.44699 44.9137 8.6586C45.9377 9.04657 46.7851 9.73432 47.403 10.6337C48.0209 11.533 48.3564 12.5735 48.3564 13.6668V13.6845C48.3564 14.4997 48.066 15.1955 47.8045 15.8222L47.7914 15.8535C47.6325 16.2062 47.4913 16.5589 47.456 16.8234C47.4509 16.8563 47.4459 16.889 47.4408 16.9217C47.3754 17.3451 47.3122 17.7544 47.2794 18.1637L47.2757 18.1926C47.0476 19.9453 46.8331 21.5931 45.9377 23.1014C45.793 23.3509 45.6288 23.6005 45.4742 23.8354C45.4212 23.916 45.3693 23.9948 45.3198 24.0713C44.8431 24.759 44.0133 25.0588 43.2188 24.8824C42.4067 24.7061 41.7888 24.0536 41.6652 23.2424C41.2945 21.1439 40.8884 19.8213 40.6059 19.0807C40.2882 19.8213 39.9174 21.1439 39.5467 23.2424C39.4054 24.0536 38.7875 24.7061 37.993 24.8824C37.9032 24.8884 37.8275 24.8944 37.7606 24.8997C37.6303 24.91 37.5331 24.9177 37.4281 24.9177C36.7572 24.9177 36.1393 24.6003 35.7509 24.0536C35.5214 23.7362 35.3272 23.4188 35.133 23.0837C34.2326 21.5671 34.0031 19.9095 33.7912 18.146C33.7559 17.9256 33.7294 17.7008 33.7029 17.4759C33.6764 17.2511 33.65 17.0262 33.6147 16.8058ZM37.0397 11.0393C35.9627 11.4449 35.2389 12.5029 35.2389 13.6668H35.2212V13.6845C35.2212 13.9843 35.3978 14.4251 35.592 14.866C35.8038 15.3245 36.0157 15.8535 36.104 16.4178C36.1339 16.6273 36.1607 16.8303 36.187 17.0298C36.2227 17.3005 36.2575 17.5646 36.2982 17.8286C36.4747 19.2923 36.6513 20.562 37.1809 21.5671C37.3928 20.5267 37.6753 19.3981 38.0107 18.4458L38.0207 18.4191C38.2927 17.6941 38.983 15.8535 40.5 15.8535C42.036 15.8535 42.7245 17.7228 42.9893 18.4458C43.3424 19.3981 43.6249 20.562 43.8191 21.5671C44.3487 20.5267 44.5253 19.2746 44.7018 17.8286C44.7311 17.6387 44.7543 17.4459 44.7777 17.2512C44.8108 16.9758 44.8443 16.6968 44.896 16.4178C44.9814 15.8724 45.1986 15.3599 45.3884 14.9122L45.408 14.866C45.6022 14.4075 45.7788 13.9843 45.7788 13.6845V13.6492C45.7788 12.4853 45.0549 11.4449 43.978 11.0216C43.6955 10.9158 43.3777 10.8453 43.0953 10.8453C42.6186 10.8453 42.0183 11.1274 41.2945 11.6741C40.8354 12.0268 40.1999 12.0268 39.7409 11.6741C38.9994 11.1451 38.3991 10.8629 37.9224 10.8629C37.6399 10.8629 37.3222 10.9335 37.0397 11.0393Z" fill="#19C6DB"/>
</svg>
