<svg id="gray-waves-bottom" viewBox="0 0 1512 183" fill="none" xmlns="http://www.w3.org/2000/svg">
<path fill-rule="evenodd" clip-rule="evenodd" d="M1511.91 36.3249C1511.98 36.4689 1512 36.6484 1512 36.8704C1511.96 63.1185 1511.96 89.3666 1511.96 115.648C1511.18 115.953 1510.3 115.949 1509.42 115.944C1509.15 115.942 1508.87 115.941 1508.6 115.949C1504.14 115.949 1499.68 115.943 1495.23 115.938C1484.1 115.924 1472.98 115.911 1461.83 115.982C1447.78 116.082 1433.81 116.617 1419.93 117.618C1398.32 119.188 1376.88 121.659 1355.66 125.099C1337.45 128.004 1319.64 131.477 1302.09 135.217C1289.87 137.8 1277.78 140.521 1265.68 143.243C1261.98 144.075 1258.28 144.908 1254.58 145.737C1233.72 150.445 1212.81 155.12 1191.37 159.228C1163.39 164.571 1134.8 168.879 1104.87 170.949C1096.65 171.517 1088.34 171.885 1080.03 172.152C1069.78 172.452 1059.57 172.419 1049.31 172.252C1036.32 172.018 1023.41 171.217 1010.59 170.115C988.936 168.245 967.896 165.306 947.211 161.833C927.63 158.56 908.491 154.72 889.441 150.779C882.023 149.247 874.628 147.702 867.237 146.158C857.234 144.069 847.237 141.981 837.197 139.926C829.02 138.256 820.754 136.62 812.489 135.05C812.002 134.967 811.505 134.917 811.008 134.867C810.511 134.817 810.013 134.766 809.527 134.683C808.277 134.211 806.782 133.961 805.298 133.712C804.788 133.627 804.279 133.541 803.781 133.447C792.112 131.243 780.223 129.24 768.289 127.37C746.63 123.997 724.663 121.225 702.253 119.321C689.877 118.286 677.413 117.418 664.86 116.884C656.506 116.516 648.108 116.283 639.71 116.182C616.852 115.937 593.994 115.969 571.127 116.001C553.536 116.026 535.941 116.05 518.337 115.949C511.066 115.919 503.795 115.711 496.524 115.503C495.485 115.473 494.446 115.444 493.408 115.414C479.882 115.014 466.446 114.379 453.053 113.477C429.715 111.941 406.51 109.47 383.526 106.064C362.31 102.891 341.359 98.7504 320.85 93.6744C304.496 89.6003 289.026 84.8917 273.645 80.0494C259.943 75.7416 245.622 71.8678 231.036 68.2278C213.4 63.8197 195.189 60.0461 176.581 56.7066C149.619 51.9646 122.303 48.3914 94.8108 46.0538C80.6226 44.8182 66.3459 43.9165 52.025 43.2486C46.6687 43.0224 41.2873 42.853 35.8997 42.6833C34.1296 42.6275 32.3588 42.5718 30.588 42.514C28.3372 42.4495 24.4614 42.4398 20.2145 42.4291C13.4531 42.4121 5.75092 42.3927 2.16736 42.1466C1.99638 42.1314 1.81625 42.1249 1.63581 42.1183C1.02329 42.096 0.407301 42.0736 0.134162 41.7125C0.134162 41.1186 0.100905 40.5216 0.0675262 39.9224C0.00107011 38.7294 -0.0658664 37.5277 0.128238 36.3251C-0.066038 36.0039 0.000914788 35.683 0.0673872 35.3644C0.100766 35.2044 0.134023 35.045 0.134023 34.8865C0.407148 34.7901 1.02309 34.7841 1.63557 34.7781C1.81604 34.7764 1.99621 34.7746 2.16723 34.7706C5.75097 34.7048 13.4538 34.6997 20.2154 34.6951C24.4619 34.6923 28.3372 34.6897 30.5879 34.6725C32.3617 34.657 34.1356 34.6421 35.9088 34.6272C41.2933 34.5819 46.6716 34.5367 52.0249 34.4763C66.3457 34.298 80.6224 34.0573 94.8107 33.7274C122.303 33.1033 149.619 32.1493 176.581 30.8832C195.189 29.9916 213.4 28.9841 231.036 27.8072C245.622 26.8353 259.942 25.8011 273.645 24.6509C289.026 23.3581 304.496 22.1009 320.85 21.0131C341.359 19.6579 362.31 18.5523 383.526 17.7053C406.51 16.7959 429.715 16.1361 453.053 15.726C466.446 15.4852 479.882 15.3158 493.408 15.2088C494.447 15.201 495.487 15.1931 496.526 15.1851C503.796 15.1295 511.066 15.074 518.337 15.0662C535.94 15.039 553.536 15.0456 571.127 15.0522C593.993 15.0607 616.852 15.0693 639.71 15.0038C648.108 14.977 656.506 14.9146 664.86 14.8165C677.413 14.6739 689.877 14.4421 702.253 14.1657C724.663 13.6575 746.63 12.9174 768.288 12.0169C780.222 11.5176 792.112 10.9826 803.781 10.3942C804.279 10.3691 804.788 10.3463 805.298 10.3235C806.782 10.2572 808.277 10.1904 809.527 10.0643C810.013 10.042 810.511 10.0286 811.008 10.0153C811.505 10.0019 812.002 9.98851 812.488 9.96623C820.754 9.54718 829.019 9.11029 837.196 8.66449C847.235 8.11592 857.231 7.55852 867.233 7.00075C874.625 6.58849 882.021 6.17603 889.441 5.76679C908.491 4.7147 927.63 3.68935 947.211 2.81559C967.896 1.88831 988.935 1.10371 1010.59 0.604412C1023.41 0.310177 1036.32 0.0962037 1049.31 0.033796C1059.57 -0.0107896 1069.78 -0.0197002 1080.03 0.0605464C1088.34 0.131866 1096.65 0.22995 1104.87 0.381516C1134.8 0.934314 1163.39 2.08448 1191.37 3.51105C1212.81 4.60772 1233.72 5.85597 1254.58 7.11312C1258.28 7.33442 1261.98 7.5567 1265.68 7.77893C1277.78 8.50576 1289.87 9.23202 1302.09 9.92167C1319.64 10.9203 1337.45 11.8475 1355.66 12.6232C1376.88 13.5416 1398.32 14.2014 1419.93 14.6204C1433.81 14.8879 1447.78 15.0306 1461.83 15.0573C1472.98 15.0764 1484.1 15.0728 1495.23 15.0691C1499.68 15.0677 1504.14 15.0662 1508.6 15.0662C1508.87 15.0684 1509.15 15.068 1509.42 15.0676C1510.3 15.0663 1511.18 15.065 1511.96 15.1465C1511.96 22.1634 1511.96 29.1714 1512 36.1794C1512 36.2386 1511.98 36.2865 1511.91 36.3249Z" fill="#E2F0FB"/>
<path d="M721.586 151.534C696.735 157.115 672.061 162.898 646.723 167.945C623.287 172.624 599.453 176.702 574.602 179.409C545.727 182.585 516.542 183.654 487.446 182.584C460.428 181.582 434.206 178.774 408.47 174.83C381.85 170.752 356.115 165.638 330.512 160.257C304.334 154.809 278.289 149.194 251.713 144.247C222.131 138.732 192.017 134.053 160.843 130.911C143.951 129.206 126.882 128.003 109.681 127.234C84.7858 126.131 59.8019 126.432 34.8623 126.298C27.4777 126.265 9.17102 126.265 1.78642 126.332C-0.336102 126.365 0.00174422 126.165 0.0459635 125.062C0.134405 100.562 0.134431 76.0285 0.0902152 51.5287C0.0902156 48.2531 0.134419 45.011 0.178639 41.7688C14.3288 41.9694 38.3999 42.3036 52.5058 42.9387C78.9931 44.142 105.348 46.3814 131.525 49.6569C154.21 52.498 176.717 56.2415 198.915 60.7872C227.304 66.6698 255.207 73.9562 282.313 82.6131C313.355 92.4732 345.635 99.9936 378.622 105.107C398.3 108.149 418.375 110.455 438.76 112.127C453.308 113.296 467.945 114.132 482.626 114.734C490.762 115.068 498.943 115.302 507.123 115.402C548.335 115.937 589.548 115.469 630.76 115.67C643.893 115.736 657.026 116.171 670.115 116.839C701.555 118.41 730.253 120.85 760.322 125.362C775.578 127.669 796.14 131.011 810.997 133.819C811.218 133.852 797.997 135.858 784.554 138.532C765.275 142.375 738.301 147.79 721.586 151.534Z" fill="url(#paint0_linear_0_1)"/>
<defs>
<linearGradient id="paint0_linear_0_1" x1="810.978" y1="56.1414" x2="-0.981745" y2="56.1407" gradientUnits="userSpaceOnUse">
<stop stop-color="#F9FCFE"/>
<stop offset="1" stop-color="#ECF4FB"/>
</linearGradient>
</defs>
</svg>
