<svg width="80" height="70" viewBox="0 0 80 70" fill="none" xmlns="http://www.w3.org/2000/svg">
<path d="M50.6749 32.385V29.4481C50.6749 24.972 47.0753 21.3125 42.6377 21.3125H37.3468C32.9247 21.3125 29.3095 24.9562 29.3095 29.4481V32.385C26.7339 32.7305 24.7323 34.9607 24.7323 37.6621V52.9437C24.7323 56.98 27.9752 60.2625 31.9628 60.2625H48.0217C52.0093 60.2625 55.2521 56.98 55.2521 52.9437V37.6621C55.2521 34.9764 53.2506 32.7305 50.6749 32.385ZM37.3468 24.4851H42.6377C45.3375 24.4851 47.5407 26.7153 47.5407 29.4481V32.3379H32.4438V29.4481C32.4438 26.7153 34.647 24.4851 37.3468 24.4851ZM52.1334 52.9437C52.1334 55.2367 50.287 57.09 48.0372 57.09H31.9628C29.6974 57.09 27.8666 55.221 27.8666 52.9437V37.6621C27.8666 36.4685 28.8285 35.4947 30.0078 35.4947H49.9922C51.1715 35.4947 52.1334 36.4685 52.1334 37.6621V52.9437ZM74.0109 0H5.98914C2.68425 0 0 2.71707 0 6.06237V63.9376C0 67.2829 2.68425 70 5.98914 70H74.0109C77.3158 70 80 67.2829 80 63.9376V6.06237C80 2.71707 77.3002 0 74.0109 0ZM5.98914 3.15683H74.0109C75.5935 3.15683 76.8658 4.4604 76.8658 6.04667V11.5751H3.1187V6.06237C3.1187 4.4604 4.40652 3.15683 5.98914 3.15683ZM74.0109 66.8275H5.98914C4.40652 66.8275 3.13421 65.5239 3.13421 63.9376V14.7633H76.8813V63.9533C76.8658 65.5396 75.578 66.8275 74.0109 66.8275ZM14.5074 7.38165C14.5074 6.4236 15.2676 5.66973 16.1986 5.66973C17.1296 5.66973 17.8898 6.43931 17.8898 7.38165C17.8898 8.33969 17.1296 9.09356 16.1986 9.09356C15.2676 9.09356 14.5074 8.32399 14.5074 7.38165ZM21.2568 7.38165C21.2568 6.4236 22.0171 5.66973 22.948 5.66973C23.879 5.66973 24.6393 6.43931 24.6393 7.38165C24.6393 8.33969 23.879 9.09356 22.948 9.09356C22.0171 9.09356 21.2568 8.32399 21.2568 7.38165ZM7.77347 7.38165C7.77347 6.4236 8.53375 5.65403 9.48022 5.65403C10.4267 5.65403 11.1715 6.4236 11.1715 7.38165C11.1715 8.33969 10.4112 9.09356 9.48022 9.09356C8.53375 9.09356 7.77347 8.32399 7.77347 7.38165Z" fill="#19C6DB"/>
</svg>
