<svg width="24" height="24" viewBox="0 0 24 24" fill="none" xmlns="http://www.w3.org/2000/svg">
<path d="M23.0506 6.82943C23.0377 5.8579 22.8558 4.89602 22.5131 3.98683C22.216 3.21993 21.7621 2.52345 21.1806 1.94189C20.599 1.36032 19.9025 0.906466 19.1356 0.609313C18.2381 0.272404 17.29 0.0902312 16.3315 0.0705521C15.0975 0.0153932 14.7062 0 11.5737 0C8.44123 0 8.03973 8.6016e-08 6.81469 0.0705521C5.85667 0.0903759 4.90895 0.272546 4.01185 0.609313C3.24483 0.906259 2.54825 1.36004 1.96666 1.94163C1.38507 2.52322 0.931283 3.21981 0.634337 3.98683C0.296753 4.88365 0.114976 5.83158 0.0968591 6.78967C0.0417003 8.02497 0.0250244 8.41621 0.0250244 11.5487C0.0250244 14.6812 0.0250244 15.0814 0.0968591 16.3078C0.116101 17.2673 0.29697 18.214 0.634337 19.1132C0.931781 19.88 1.3859 20.5763 1.96769 21.1576C2.54947 21.739 3.24612 22.1925 4.01314 22.4894C4.90778 22.8399 5.85566 23.0351 6.81597 23.0666C8.05127 23.1218 8.44252 23.1385 11.575 23.1385C14.7075 23.1385 15.109 23.1385 16.3341 23.0666C17.2925 23.0478 18.2407 22.866 19.1382 22.5292C19.9049 22.2317 20.6012 21.7777 21.1827 21.1962C21.7642 20.6147 22.2182 19.9184 22.5157 19.1517C22.8531 18.2537 23.0339 17.307 23.0532 16.3463C23.1083 15.1122 23.125 14.721 23.125 11.5872C23.1225 8.45469 23.1225 8.05704 23.0506 6.82943V6.82943ZM11.566 17.4725C8.28987 17.4725 5.63583 14.8185 5.63583 11.5423C5.63583 8.26613 8.28987 5.61209 11.566 5.61209C13.1388 5.61209 14.6472 6.23688 15.7593 7.34901C16.8715 8.46114 17.4963 9.96951 17.4963 11.5423C17.4963 13.1151 16.8715 14.6235 15.7593 15.7356C14.6472 16.8477 13.1388 17.4725 11.566 17.4725V17.4725ZM17.7323 6.77555C17.5506 6.77572 17.3708 6.74007 17.2029 6.67064C17.0351 6.60121 16.8826 6.49935 16.7541 6.37091C16.6257 6.24247 16.5238 6.08997 16.4544 5.92212C16.385 5.75427 16.3493 5.57438 16.3495 5.39274C16.3495 5.21123 16.3852 5.03149 16.4547 4.8638C16.5241 4.69611 16.626 4.54374 16.7543 4.41539C16.8826 4.28704 17.035 4.18523 17.2027 4.11577C17.3704 4.04631 17.5501 4.01056 17.7316 4.01056C17.9132 4.01056 18.0929 4.04631 18.2606 4.11577C18.4283 4.18523 18.5806 4.28704 18.709 4.41539C18.8373 4.54374 18.9392 4.69611 19.0086 4.8638C19.0781 5.03149 19.1138 5.21123 19.1138 5.39274C19.1138 6.15726 18.4955 6.77555 17.7323 6.77555Z" fill="#004366"/>
<path d="M11.5664 15.3952C13.6939 15.3952 15.4186 13.6705 15.4186 11.5431C15.4186 9.41558 13.6939 7.69092 11.5664 7.69092C9.43896 7.69092 7.71429 9.41558 7.71429 11.5431C7.71429 13.6705 9.43896 15.3952 11.5664 15.3952Z" fill="#004366"/>
</svg>
