<svg  id="laptop" viewBox="0 0 652 495" fill="none" xmlns="http://www.w3.org/2000/svg">
<path d="M335.261 249.389C335.631 249.389 336.002 249.205 336.187 248.835C336.372 248.281 336.372 247.727 335.816 247.542L136.493 132.444C135.938 132.075 135.382 132.259 135.197 132.814C135.011 133.368 135.011 133.922 135.567 134.107L334.89 249.205C334.89 249.205 335.075 249.389 335.261 249.389Z" fill="url(#paint0_linear_186_1852)"/>
<path d="M336.862 495C340.381 495 344.085 494.076 347.233 492.227L481.867 414.565C483.163 413.825 483.904 412.531 483.904 411.052C483.904 409.572 483.163 408.278 481.867 407.538L238.896 267.563L238.341 267.748L93.8918 351.141C92.5955 351.881 91.8547 353.175 91.8547 354.655C91.8547 356.134 92.5955 357.428 93.8918 358.168L326.492 492.227C329.825 494.076 333.344 495 336.862 495ZM238.896 269.782L480.941 409.203C481.681 409.572 482.052 410.312 482.052 411.052C482.052 411.791 481.681 412.531 480.941 412.901L346.307 490.562C340.566 493.891 333.344 493.891 327.417 490.562L94.8178 356.504C94.077 356.134 93.7066 355.394 93.7066 354.655C93.7066 353.915 94.077 353.175 94.8178 352.806L238.896 269.782Z" fill="url(#paint1_linear_186_1852)"/>
<path d="M238.711 210.611L271.119 18.6759L268.527 17.5665L272.416 15.3476C273.157 14.7928 274.268 14.7928 275.379 15.5325L534.276 164.939C536.313 166.233 537.979 169.376 537.609 171.595L505.016 365.009C504.83 365.934 504.275 366.674 503.719 367.043L499.83 369.262L499.089 365.749H499.275L241.859 217.453C239.822 215.973 238.341 212.83 238.711 210.611Z" fill="url(#paint2_linear_186_1852)"/>
<path d="M532.979 170.116L537.239 168.267C537.794 169.376 537.98 170.485 537.794 171.41L505.201 364.824C505.016 365.749 504.46 366.488 503.904 366.858L500.015 369.077L499.275 365.564H499.46L486.496 357.983L532.979 170.116Z" fill="url(#paint3_linear_186_1852)"/>
<path d="M237.97 219.487L496.867 368.893C498.904 370.002 500.571 369.447 500.941 367.228L533.72 173.814C534.091 171.595 532.424 168.452 530.387 167.157L271.305 17.9363C269.268 16.8269 267.601 17.3816 267.231 19.6005L234.637 213.015C234.267 215.234 235.748 218.377 237.97 219.487Z" fill="#24126A"/>
<g opacity="0.51">
<path d="M274.638 30.3252L524.275 174.184L493.349 356.319L243.896 212.645L274.638 30.3252Z" fill="#453C9E"/>
</g>
<path d="M75.1876 311.201L89.2621 318.598L230.933 236.868C233.341 235.574 237.415 235.759 240.193 237.238L484.645 378.138C487.052 376.844 497.608 371.666 497.608 371.666L492.423 385.165C492.237 385.719 491.682 386.274 490.941 386.829L341.677 472.811C339.27 474.106 335.196 473.921 332.418 472.441L82.2248 328.213C81.1136 327.473 80.3729 326.734 80.1877 325.994L75.1876 311.201Z" fill="url(#paint4_linear_186_1852)"/>
<path d="M77.4099 313.42L333.714 461.162C336.492 462.826 340.751 463.011 343.159 461.532L496.126 373.515C498.534 372.036 498.163 369.632 495.386 367.968L239.081 220.226C236.304 218.562 232.044 218.377 229.637 219.856L76.6691 308.058C74.2616 309.352 74.632 311.756 77.4099 313.42Z" fill="url(#paint5_linear_186_1852)"/>
<path d="M410.939 429.173V426.399C410.939 426.214 410.753 426.029 410.568 426.214L400.568 431.946C400.383 432.131 400.197 432.316 400.197 432.686V435.46C400.197 435.645 400.383 435.83 400.568 435.645L410.568 429.912C410.753 429.912 410.939 429.543 410.939 429.173Z" fill="#2842A2"/>
<path d="M396.123 437.863V435.09C396.123 434.905 395.938 434.72 395.753 434.905L385.753 440.637C385.567 440.822 385.382 441.007 385.382 441.377V444.15C385.382 444.335 385.567 444.52 385.753 444.335L395.753 438.603C395.938 438.418 396.123 438.048 396.123 437.863Z" fill="#2842A2"/>
<path d="M456.31 365.194L243.341 242.415C241.859 241.675 240.193 241.675 238.711 242.415L162.783 286.238C161.672 286.793 161.672 288.457 162.783 289.012L375.752 411.791C377.234 412.531 378.901 412.531 380.382 411.791L456.31 367.968C457.421 367.413 457.421 365.749 456.31 365.194Z" fill="#ADB1F2"/>
<path d="M456.31 367.968L455.57 368.338L243.341 245.928C241.859 245.189 240.193 245.189 238.711 245.928L163.709 289.382L162.968 289.012C161.857 288.457 161.857 286.793 162.968 286.238L238.896 242.415C240.378 241.675 242.045 241.675 243.526 242.415L456.496 365.194C457.422 365.749 457.422 367.413 456.31 367.968Z" fill="#9198DB"/>
<path d="M232.97 253.51L417.976 360.202L426.124 355.395L241.119 248.702L232.97 253.51Z" fill="#24126A"/>
<path d="M212.784 265.159L386.308 365.195L394.457 360.387L220.933 260.352L212.784 265.159Z" fill="#24126A"/>
<path d="M199.636 272.74L403.901 390.527L412.235 385.719L207.784 267.933L199.636 272.74Z" fill="#24126A"/>
<path d="M186.487 280.322L390.753 398.108L399.086 393.301L194.636 275.514L186.487 280.322Z" fill="#24126A"/>
<path d="M173.339 287.903L377.604 405.69L385.938 400.882L181.487 283.095L173.339 287.903Z" fill="#24126A"/>
<path d="M429.087 366.674L437.421 371.297L445.569 366.674L437.421 361.866L429.087 366.674Z" fill="#24126A"/>
<path d="M400.198 373.146L417.235 382.946L425.383 378.138L408.346 368.338L400.198 373.146Z" fill="#24126A"/>
<path d="M235.007 394.965L177.598 361.866C175.376 360.572 175.376 358.538 177.598 357.243L216.858 334.685C219.081 333.39 222.785 333.39 225.007 334.685L282.416 367.783C284.638 369.078 284.638 371.112 282.416 372.406L243.156 394.965C240.933 396.259 237.229 396.259 235.007 394.965Z" fill="url(#paint6_linear_186_1852)"/>
<path d="M282.416 369.447L225.007 336.349C222.785 335.054 219.081 335.054 216.859 336.349L177.598 358.908C176.857 359.277 176.487 359.832 176.117 360.202C175.561 359.092 175.931 357.798 177.598 356.874L216.859 334.315C219.081 333.02 222.785 333.02 225.007 334.315L282.416 367.413C283.898 368.338 284.453 369.632 283.898 370.742C283.527 370.372 283.157 369.817 282.416 369.447Z" fill="#9198DB"/>
<g opacity="0.11">
<path d="M238.896 219.857L495.2 367.598C497.978 369.263 502.238 369.447 504.645 367.968L657.613 279.952C660.02 278.473 659.65 276.069 656.872 274.405L400.568 126.663C397.79 124.998 393.531 124.814 391.123 126.293L238.156 214.494C235.748 215.789 236.118 218.192 238.896 219.857Z" fill="url(#paint7_linear_186_1852)"/>
<path d="M495.941 246.299L438.532 213.2C436.31 211.906 436.31 209.872 438.532 208.577L477.792 186.018C480.015 184.724 483.719 184.724 485.941 186.018L543.35 219.117C545.572 220.411 545.572 222.445 543.35 223.74L504.09 246.299C501.867 247.593 498.163 247.593 495.941 246.299Z" fill="url(#paint8_linear_186_1852)"/>
<path d="M543.35 220.966L485.941 187.867C483.719 186.573 480.015 186.573 477.792 187.867L438.532 210.426C437.791 210.796 437.421 211.351 437.05 211.721C436.495 210.611 436.865 209.317 438.532 208.392L477.792 186.018C480.015 184.724 483.719 184.724 485.941 186.018L543.35 219.117C544.832 220.042 545.387 221.336 544.832 222.445C544.461 221.891 544.091 221.336 543.35 220.966Z" fill="#9198DB"/>
<path d="M568.536 298.073L355.566 175.293C354.085 174.554 352.418 174.554 350.937 175.293L275.008 219.117C273.897 219.672 273.897 221.336 275.008 221.89L487.978 344.67C489.459 345.409 491.126 345.409 492.608 344.67L568.536 300.846C569.647 300.292 569.647 298.812 568.536 298.073Z" fill="#ADB1F2"/>
<path d="M568.536 301.031L567.795 301.401L355.566 178.992C354.085 178.252 352.418 178.252 350.937 178.992L275.934 222.445L275.194 222.075C274.082 221.521 274.082 219.857 275.194 219.302L351.122 175.479C352.603 174.739 354.27 174.739 355.752 175.479L568.536 298.073C569.647 298.812 569.647 300.292 568.536 301.031Z" fill="#9198DB"/>
<path d="M295.009 216.158L480.57 323.22L473.163 327.473L287.601 220.411L295.009 216.158Z" fill="#24126A"/>
<path d="M314.639 204.879L490.941 306.579L483.533 310.831L307.232 209.132L314.639 204.879Z" fill="#24126A"/>
<path d="M504.09 314.16L520.572 323.59L513.164 327.843L496.682 318.413L504.09 314.16Z" fill="#24126A"/>
<path d="M489.645 328.398L501.127 334.87L493.719 339.122L482.237 332.651L489.645 328.398Z" fill="#24126A"/>
<path d="M326.862 197.853L532.794 316.564L525.572 320.817L319.454 202.105L326.862 197.853Z" fill="#24126A"/>
<path d="M339.085 190.826L545.017 309.537L537.794 313.79L331.677 195.079L339.085 190.826Z" fill="#24126A"/>
<path d="M351.307 183.799L557.425 302.511L550.017 306.763L343.9 187.867L351.307 183.799Z" fill="#24126A"/>
</g>
<path d="M523.48 470.439C524.401 470.439 525.323 470.255 526.06 469.702C527.902 468.781 529.008 466.939 529.008 464.913V332.287C529.008 327.498 526.428 323.077 522.375 320.683L429.329 267.448C428.961 267.264 428.224 267.264 428.04 267.816C427.855 268.369 427.855 268.922 428.408 269.106L521.453 322.34C524.954 324.367 527.165 328.235 527.165 332.287V464.913C527.165 466.202 526.428 467.492 525.323 468.044C524.217 468.781 522.743 468.597 521.638 467.86L457.704 426.783C457.335 426.415 456.598 426.599 456.414 427.151C456.045 427.52 456.23 428.257 456.782 428.441L520.716 469.518C521.453 470.255 522.375 470.439 523.48 470.439Z" fill="url(#paint9_linear_186_1852)"/>
<path d="M413.902 276.623C415.013 276.623 416.309 276.253 417.235 275.699L440.94 262.015C442.051 261.461 442.606 260.536 442.606 259.427C442.606 258.502 442.051 257.762 441.31 257.208L327.047 191.38C325.38 190.456 322.788 190.641 321.121 191.565L297.417 205.248C296.305 205.803 295.75 206.728 295.75 207.837C295.75 208.762 296.305 209.501 297.046 210.056L411.124 275.883C411.865 276.253 412.791 276.623 413.902 276.623ZM324.269 192.86C324.825 192.86 325.38 193.044 325.936 193.229L440.199 259.057C440.384 259.242 440.569 259.242 440.569 259.427C440.569 259.427 440.384 259.796 439.828 260.166L416.124 273.849C415.013 274.589 413.161 274.589 412.235 274.034L297.972 208.207C297.787 208.022 297.602 208.022 297.602 207.837C297.602 207.837 297.787 207.467 298.343 207.098L322.047 193.414C322.603 193.044 323.529 192.86 324.269 192.86Z" fill="url(#paint10_linear_186_1852)"/>
<path d="M343.344 153.474C346.307 155.138 349.27 157.727 351.678 160.501C355.196 149.221 365.937 145.708 378.53 153.104C389.086 159.206 398.161 171.04 402.976 183.614C404.642 183.614 406.309 184.169 408.161 185.278C415.013 189.161 420.569 198.777 420.569 206.728C420.569 206.913 420.569 207.097 420.569 207.282C422.606 207.467 424.643 208.022 426.865 209.501C435.569 214.494 442.792 226.883 442.792 236.868C442.792 247.038 435.754 251.106 426.865 245.928L343.159 197.667C332.603 191.565 324.084 176.772 324.084 164.569C324.084 152.365 332.788 147.372 343.344 153.474Z" fill="url(#paint11_linear_186_1852)"/>
<path d="M343.344 153.474C345.011 154.399 346.863 155.693 348.344 157.172L357.789 151.81C362.974 148.112 370.382 148.297 378.715 153.104C389.271 159.206 398.346 171.04 403.161 183.614C404.827 183.614 406.494 184.169 408.346 185.278C415.198 189.161 420.754 198.777 420.754 206.728C420.754 206.913 420.754 207.097 420.754 207.282C422.791 207.467 424.828 208.022 427.05 209.501C435.754 214.494 442.977 226.883 442.977 236.868C442.977 241.86 441.31 245.374 438.347 247.038L415.383 260.351L410.383 236.313L343.344 197.667C332.788 191.565 324.269 176.772 324.269 164.569C324.084 152.365 332.788 147.372 343.344 153.474Z" fill="url(#paint12_radial_186_1852)"/>
<path d="M306.491 165.678L329.64 152.18C333.159 150.146 337.973 150.331 343.344 153.474C345.011 154.399 346.863 155.693 348.344 157.172L357.789 151.81C362.974 148.112 370.382 148.297 378.715 153.104C389.271 159.206 398.346 171.04 403.161 183.614C404.827 183.614 406.494 184.169 408.346 185.278C415.198 189.161 420.754 198.777 420.754 206.728C420.754 206.913 420.754 207.097 420.754 207.282C422.791 207.467 424.828 208.022 427.05 209.501C435.754 214.494 442.977 226.883 442.977 236.868C442.977 241.86 441.31 245.374 438.347 247.038L415.383 260.351L410.383 236.313L343.344 197.667C334.825 192.675 327.603 182.135 325.01 171.78L306.491 165.678Z" fill="url(#paint13_linear_186_1852)"/>
<path d="M320.195 166.787C323.158 168.452 326.121 171.04 328.529 173.814C332.047 162.535 342.788 159.021 355.381 166.418C365.937 172.52 375.012 184.354 379.827 196.928C381.493 196.928 383.16 197.482 385.012 198.592C391.864 202.475 397.42 212.09 397.42 220.041C397.42 220.226 397.42 220.411 397.42 220.596C399.457 220.781 401.494 221.335 403.716 222.815C412.42 227.807 419.643 240.196 419.643 250.181C419.643 260.351 412.605 264.419 403.716 259.242L320.01 210.981C309.454 204.879 300.935 190.086 300.935 177.882C301.12 165.678 309.639 160.686 320.195 166.787Z" fill="url(#paint14_linear_186_1852)"/>
<path d="M90.3731 160.316C90.5583 160.316 90.7435 160.316 90.9287 160.131L180.191 108.726C180.561 108.541 180.746 108.172 180.746 107.802C180.746 107.432 180.561 107.062 180.191 106.877L90.7435 55.4727C90.3731 55.2878 90.0027 55.2878 89.8176 55.4727L0.555542 106.877C0.185165 107.062 -1.52588e-05 107.432 -1.52588e-05 107.802C-1.52588e-05 108.172 0.185165 108.541 0.555542 108.726L89.8176 160.131C90.0027 160.316 90.1879 160.316 90.3731 160.316ZM177.598 107.802L90.3731 158.097L3.14825 107.802L90.3731 57.5067L177.598 107.802Z" fill="url(#paint15_linear_186_1852)"/>
<path d="M6.66687 88.3862V71.5596L90.3731 117.602L174.079 71.5596V88.3862L90.3731 136.647L6.66687 88.3862Z" fill="url(#paint16_linear_186_1852)"/>
<path opacity="0.5" d="M174.079 87.6467V88.3864L90.3731 136.647L6.66687 88.3864V87.6467L90.3731 135.908L174.079 87.6467Z" fill="white"/>
<path d="M90.3731 119.821L174.079 71.5594L90.3731 23.2983L6.66687 71.5594L90.3731 119.821Z" fill="url(#paint17_linear_186_1852)"/>
<path opacity="0.5" d="M90.3731 118.341L172.783 70.8198L174.079 71.5595L90.3731 119.821L6.66687 71.5595L7.77803 70.8198L90.3731 118.341Z" fill="white"/>
<path d="M90.3731 101.33L142.041 71.5598L90.3731 41.7896L38.5196 71.5598L90.3731 101.33Z" fill="#0F054C"/>
<path opacity="0.5" d="M90.3731 101.33L142.041 71.5598L90.3731 41.7896L38.5196 71.5598L90.3731 101.33Z" fill="url(#paint18_linear_186_1852)"/>
<path opacity="0.5" d="M90.3731 0L38.5196 29.7703V71.5596L90.3731 41.7893V0Z" fill="url(#paint19_linear_186_1852)"/>
<path opacity="0.5" d="M90.3731 41.7893L142.041 71.5596V29.7703L90.3731 0V41.7893Z" fill="url(#paint20_linear_186_1852)"/>
<path opacity="0.5" d="M90.3731 59.7254L142.041 29.7703L90.3731 0L38.5196 29.7703L90.3731 59.7254Z" fill="url(#paint21_linear_186_1852)"/>
<path opacity="0.5" d="M90.3731 59.7254L142.041 29.7703L90.3731 0L38.5196 29.7703L90.3731 59.7254Z" fill="url(#paint22_linear_186_1852)"/>
<path opacity="0.5" d="M90.3731 58.616L141.115 29.2156L142.041 29.7703L90.3731 59.7255L38.5196 29.7703L39.4456 29.2156L90.3731 58.616Z" fill="url(#paint23_linear_186_1852)"/>
<path opacity="0.5" d="M90.3731 59.7252V101.33L38.5196 71.5593V29.77L90.3731 59.7252Z" fill="url(#paint24_linear_186_1852)"/>
<path opacity="0.5" d="M142.041 29.77V71.5593L90.3731 101.33V59.7252L142.041 29.77Z" fill="url(#paint25_linear_186_1852)"/>
<defs>
<linearGradient id="paint0_linear_186_1852" x1="336.212" y1="190.742" x2="134.98" y2="190.742" gradientUnits="userSpaceOnUse">
<stop stop-color="#5761D7"/>
<stop offset="0.0725775" stop-color="#5472D8"/>
<stop offset="0.2791" stop-color="#4E9CDB"/>
<stop offset="0.4801" stop-color="#49BDDD"/>
<stop offset="0.6715" stop-color="#45D5DF"/>
<stop offset="0.8493" stop-color="#43E3E0"/>
<stop offset="1" stop-color="#42E8E0"/>
</linearGradient>
<linearGradient id="paint1_linear_186_1852" x1="483.947" y1="381.315" x2="91.9132" y2="381.315" gradientUnits="userSpaceOnUse">
<stop stop-color="#42E8E0"/>
<stop offset="0.1507" stop-color="#43E3E0"/>
<stop offset="0.3285" stop-color="#45D5DF"/>
<stop offset="0.5199" stop-color="#49BDDD"/>
<stop offset="0.7209" stop-color="#4E9CDB"/>
<stop offset="0.9274" stop-color="#5472D8"/>
<stop offset="1" stop-color="#5761D7"/>
</linearGradient>
<linearGradient id="paint2_linear_186_1852" x1="537.761" y1="192.06" x2="238.6" y2="192.06" gradientUnits="userSpaceOnUse">
<stop stop-color="#C0BFF6"/>
<stop offset="0.2938" stop-color="#C5C4F7"/>
<stop offset="0.6399" stop-color="#D3D2F9"/>
<stop offset="1" stop-color="#E9E9FD"/>
</linearGradient>
<linearGradient id="paint3_linear_186_1852" x1="537.759" y1="268.664" x2="486.39" y2="268.664" gradientUnits="userSpaceOnUse">
<stop stop-color="#5761D7"/>
<stop offset="0.1779" stop-color="#5C66D9"/>
<stop offset="0.3876" stop-color="#6A73DF"/>
<stop offset="0.6134" stop-color="#8289E8"/>
<stop offset="0.849" stop-color="#A3A7F5"/>
<stop offset="1" stop-color="#BCBEFF"/>
</linearGradient>
<linearGradient id="paint4_linear_186_1852" x1="497.681" y1="354.777" x2="75.1679" y2="354.777" gradientUnits="userSpaceOnUse">
<stop stop-color="#5761D7"/>
<stop offset="0.1779" stop-color="#5C66D9"/>
<stop offset="0.3876" stop-color="#6A73DF"/>
<stop offset="0.6134" stop-color="#8289E8"/>
<stop offset="0.849" stop-color="#A3A7F5"/>
<stop offset="1" stop-color="#BCBEFF"/>
</linearGradient>
<linearGradient id="paint5_linear_186_1852" x1="355.715" y1="340.71" x2="-67.0229" y2="340.71" gradientUnits="userSpaceOnUse">
<stop stop-color="#C0BFF6"/>
<stop offset="0.2938" stop-color="#C5C4F7"/>
<stop offset="0.6399" stop-color="#D3D2F9"/>
<stop offset="1" stop-color="#E9E9FD"/>
</linearGradient>
<linearGradient id="paint6_linear_186_1852" x1="284.124" y1="364.672" x2="175.916" y2="364.672" gradientUnits="userSpaceOnUse">
<stop stop-color="#C0BFF6"/>
<stop offset="0.2938" stop-color="#C5C4F7"/>
<stop offset="0.6399" stop-color="#D3D2F9"/>
<stop offset="1" stop-color="#E9E9FD"/>
</linearGradient>
<linearGradient id="paint7_linear_186_1852" x1="517.225" y1="247.155" x2="94.4872" y2="247.155" gradientUnits="userSpaceOnUse">
<stop stop-color="#C0BFF6"/>
<stop offset="0.2938" stop-color="#C5C4F7"/>
<stop offset="0.6399" stop-color="#D3D2F9"/>
<stop offset="1" stop-color="#E9E9FD"/>
</linearGradient>
<linearGradient id="paint8_linear_186_1852" x1="545.048" y1="216.17" x2="436.839" y2="216.17" gradientUnits="userSpaceOnUse">
<stop stop-color="#C0BFF6"/>
<stop offset="0.2938" stop-color="#C5C4F7"/>
<stop offset="0.6399" stop-color="#D3D2F9"/>
<stop offset="1" stop-color="#E9E9FD"/>
</linearGradient>
<linearGradient id="paint9_linear_186_1852" x1="520.864" y1="471.522" x2="455.937" y2="259.102" gradientUnits="userSpaceOnUse">
<stop offset="0.5" stop-color="#42E8E0"/>
<stop offset="0.5754" stop-color="#43E3E0"/>
<stop offset="0.6642" stop-color="#45D5DF"/>
<stop offset="0.7599" stop-color="#49BDDD"/>
<stop offset="0.8605" stop-color="#4E9CDB"/>
<stop offset="0.9637" stop-color="#5472D8"/>
<stop offset="1" stop-color="#5761D7"/>
</linearGradient>
<linearGradient id="paint10_linear_186_1852" x1="442.67" y1="233.686" x2="295.472" y2="233.686" gradientUnits="userSpaceOnUse">
<stop offset="0.129" stop-color="#5761D7"/>
<stop offset="0.1922" stop-color="#5472D8"/>
<stop offset="0.3721" stop-color="#4E9CDB"/>
<stop offset="0.5472" stop-color="#49BDDD"/>
<stop offset="0.7139" stop-color="#45D5DF"/>
<stop offset="0.8687" stop-color="#43E3E0"/>
<stop offset="1" stop-color="#42E8E0"/>
</linearGradient>
<linearGradient id="paint11_linear_186_1852" x1="442.878" y1="222.562" x2="324.166" y2="222.562" gradientUnits="userSpaceOnUse">
<stop stop-color="#5761D7"/>
<stop offset="0.1779" stop-color="#5C66D9"/>
<stop offset="0.3876" stop-color="#6A73DF"/>
<stop offset="0.6134" stop-color="#8289E8"/>
<stop offset="0.849" stop-color="#A3A7F5"/>
<stop offset="1" stop-color="#BCBEFF"/>
</linearGradient>
<radialGradient id="paint12_radial_186_1852" cx="0" cy="0" r="1" gradientUnits="userSpaceOnUse" gradientTransform="translate(414.979 186.983) rotate(180) scale(56.6278 56.5415)">
<stop stop-color="#2B237C"/>
<stop offset="1" stop-color="#180D5B"/>
</radialGradient>
<linearGradient id="paint13_linear_186_1852" x1="442.878" y1="204.743" x2="306.425" y2="204.743" gradientUnits="userSpaceOnUse">
<stop stop-color="#5761D7"/>
<stop offset="0.1779" stop-color="#5C66D9"/>
<stop offset="0.3876" stop-color="#6A73DF"/>
<stop offset="0.6134" stop-color="#8289E8"/>
<stop offset="0.849" stop-color="#A3A7F5"/>
<stop offset="1" stop-color="#BCBEFF"/>
</linearGradient>
<linearGradient id="paint14_linear_186_1852" x1="419.867" y1="235.899" x2="301.155" y2="235.899" gradientUnits="userSpaceOnUse">
<stop stop-color="#C0BFF6"/>
<stop offset="0.2938" stop-color="#C5C4F7"/>
<stop offset="0.6399" stop-color="#D3D2F9"/>
<stop offset="1" stop-color="#E9E9FD"/>
</linearGradient>
<linearGradient id="paint15_linear_186_1852" x1="180.557" y1="107.827" x2="0.0373858" y2="107.827" gradientUnits="userSpaceOnUse">
<stop stop-color="#42E8E0"/>
<stop offset="0.1507" stop-color="#43E3E0"/>
<stop offset="0.3285" stop-color="#45D5DF"/>
<stop offset="0.5199" stop-color="#49BDDD"/>
<stop offset="0.7209" stop-color="#4E9CDB"/>
<stop offset="0.9274" stop-color="#5472D8"/>
<stop offset="1" stop-color="#5761D7"/>
</linearGradient>
<linearGradient id="paint16_linear_186_1852" x1="173.99" y1="104.108" x2="54.7163" y2="104.108" gradientUnits="userSpaceOnUse">
<stop offset="0.2473" stop-color="#5761D7"/>
<stop offset="0.4363" stop-color="#6C74DF"/>
<stop offset="0.8245" stop-color="#A2A6F5"/>
<stop offset="1" stop-color="#BCBEFF"/>
</linearGradient>
<linearGradient id="paint17_linear_186_1852" x1="173.99" y1="71.5528" x2="6.60502" y2="71.5528" gradientUnits="userSpaceOnUse">
<stop stop-color="#C0BFF6"/>
<stop offset="0.2938" stop-color="#C5C4F7"/>
<stop offset="0.6399" stop-color="#D3D2F9"/>
<stop offset="1" stop-color="#E9E9FD"/>
</linearGradient>
<linearGradient id="paint18_linear_186_1852" x1="142.038" y1="71.5537" x2="38.5576" y2="71.5537" gradientUnits="userSpaceOnUse">
<stop stop-color="#42E8E0"/>
<stop offset="0.1507" stop-color="#43E3E0"/>
<stop offset="0.3285" stop-color="#45D5DF"/>
<stop offset="0.5199" stop-color="#49BDDD"/>
<stop offset="0.7209" stop-color="#4E9CDB"/>
<stop offset="0.9274" stop-color="#5472D8"/>
<stop offset="1" stop-color="#5761D7"/>
</linearGradient>
<linearGradient id="paint19_linear_186_1852" x1="90.2983" y1="35.7768" x2="38.5576" y2="35.7768" gradientUnits="userSpaceOnUse">
<stop stop-color="#42E8E0"/>
<stop offset="0.1507" stop-color="#43E3E0"/>
<stop offset="0.3285" stop-color="#45D5DF"/>
<stop offset="0.5199" stop-color="#49BDDD"/>
<stop offset="0.7209" stop-color="#4E9CDB"/>
<stop offset="0.9274" stop-color="#5472D8"/>
<stop offset="1" stop-color="#5761D7"/>
</linearGradient>
<linearGradient id="paint20_linear_186_1852" x1="142.038" y1="35.7763" x2="90.2968" y2="35.7763" gradientUnits="userSpaceOnUse">
<stop stop-color="#42E8E0"/>
<stop offset="0.1507" stop-color="#43E3E0"/>
<stop offset="0.3285" stop-color="#45D5DF"/>
<stop offset="0.5199" stop-color="#49BDDD"/>
<stop offset="0.7209" stop-color="#4E9CDB"/>
<stop offset="0.9274" stop-color="#5472D8"/>
<stop offset="1" stop-color="#5761D7"/>
</linearGradient>
<linearGradient id="paint21_linear_186_1852" x1="142.038" y1="29.8265" x2="38.5576" y2="29.8265" gradientUnits="userSpaceOnUse">
<stop stop-color="#42E8E0"/>
<stop offset="0.1507" stop-color="#43E3E0"/>
<stop offset="0.3285" stop-color="#45D5DF"/>
<stop offset="0.5199" stop-color="#49BDDD"/>
<stop offset="0.7209" stop-color="#4E9CDB"/>
<stop offset="0.9274" stop-color="#5472D8"/>
<stop offset="1" stop-color="#5761D7"/>
</linearGradient>
<linearGradient id="paint22_linear_186_1852" x1="142.038" y1="29.8265" x2="38.5576" y2="29.8265" gradientUnits="userSpaceOnUse">
<stop stop-color="#42E8E0"/>
<stop offset="0.1507" stop-color="#43E3E0"/>
<stop offset="0.3285" stop-color="#45D5DF"/>
<stop offset="0.5199" stop-color="#49BDDD"/>
<stop offset="0.7209" stop-color="#4E9CDB"/>
<stop offset="0.9274" stop-color="#5472D8"/>
<stop offset="1" stop-color="#5761D7"/>
</linearGradient>
<linearGradient id="paint23_linear_186_1852" x1="90.2975" y1="37.8922" x2="90.2975" y2="-65.43" gradientUnits="userSpaceOnUse">
<stop stop-color="#42E8E0"/>
<stop offset="0.1507" stop-color="#43E3E0"/>
<stop offset="0.3285" stop-color="#45D5DF"/>
<stop offset="0.5199" stop-color="#49BDDD"/>
<stop offset="0.7209" stop-color="#4E9CDB"/>
<stop offset="0.9274" stop-color="#5472D8"/>
<stop offset="1" stop-color="#5761D7"/>
</linearGradient>
<linearGradient id="paint24_linear_186_1852" x1="206.658" y1="65.6031" x2="-5.59098" y2="65.6031" gradientUnits="userSpaceOnUse">
<stop stop-color="#42E8E0"/>
<stop offset="0.1507" stop-color="#43E3E0"/>
<stop offset="0.3285" stop-color="#45D5DF"/>
<stop offset="0.5199" stop-color="#49BDDD"/>
<stop offset="0.7209" stop-color="#4E9CDB"/>
<stop offset="0.9274" stop-color="#5472D8"/>
<stop offset="1" stop-color="#5761D7"/>
</linearGradient>
<linearGradient id="paint25_linear_186_1852" x1="161.3" y1="42.8382" x2="55.6468" y2="96.2913" gradientUnits="userSpaceOnUse">
<stop stop-color="#42E8E0"/>
<stop offset="0.1507" stop-color="#43E3E0"/>
<stop offset="0.3285" stop-color="#45D5DF"/>
<stop offset="0.5199" stop-color="#49BDDD"/>
<stop offset="0.7209" stop-color="#4E9CDB"/>
<stop offset="0.9274" stop-color="#5472D8"/>
<stop offset="1" stop-color="#5761D7"/>
</linearGradient>
</defs>
</svg>
