<svg id="octopus" viewBox="0 0 524 433" fill="none" xmlns="http://www.w3.org/2000/svg">
<path fill-rule="evenodd" clip-rule="evenodd" d="M249.036 175.032C248.872 200.938 245.118 224.876 222.021 222.543C163.681 216.999 165.277 183.347 181.454 150.157C191.389 129.98 209.714 113.41 214.496 93.5927C230.055 30.3576 171.525 0.904508 147.38 40.077C132.092 64.8202 162.963 72.5292 164.777 56.1256C165.205 51.6565 162.197 47.4274 157.939 46.4916C166.225 38.0211 190.778 40.0058 193.36 69.9133C194.462 82.1674 188.385 90.4836 180.064 98.4633C147.906 128.824 128.258 161.763 130.452 193.178C132.782 226.555 158.832 257.044 205.38 249.107C205.38 249.107 163.216 266.849 135.044 248.347C106.872 229.844 97.9881 183.853 63.1054 185.796C35.1114 187.504 12.0388 213.778 14.7966 232.082C19.9867 264.027 54.8056 247.045 46.9174 236.497C45.7815 234.357 43.6983 232.776 41.2099 232.457C37.7227 231.961 34.4241 234.164 33.4198 237.44C31.5648 235.597 30.0978 232.246 32.1577 226.43C36.0664 215.306 59.9796 211.663 74.1237 234.104C88.2679 256.546 92.4989 285.351 138.751 297.905C185.004 310.459 216.456 294.698 216.456 294.698C216.456 294.698 166.41 309.045 163.764 352.388C160.874 395.749 196.38 420.397 234.167 410.607C271.955 400.816 267.546 362.404 260.126 355.03C257.729 352.485 254.892 350.71 252.352 349.654C235.133 343.212 237.161 368.719 247.143 363.336C251.195 361.326 250.819 377.136 240.05 381.834C229.28 386.532 203.929 390.769 197.09 370.53C190.497 350.275 224.676 317.06 244.954 317.864C265.231 318.667 277.634 323.227 287.487 354.846C297.339 386.465 328.566 413.386 364.521 409.149C400.477 404.912 412.392 384.843 411.072 365.945C408.85 330.587 375.514 329.956 375.857 345.469C375.886 349.413 378.335 352.694 383.049 353.105C391.233 353.767 390.611 348.385 390.611 348.385C390.611 348.385 395.982 354.668 395.269 362.117C394.362 370.318 386.618 379.491 372.406 377.277C345.474 372.993 304.27 326.792 335.282 311.802C366.277 296.567 397.755 330.622 431.842 299.634C465.93 268.645 437.694 245.708 441.67 214.356C445.646 183.005 467.772 167.895 484.135 172.672C500.252 177.465 492.492 196.997 492.737 196.979C492.737 196.979 490.163 195.433 487.201 195.393C477.596 195.571 476.387 217.111 492.921 213.737C517.239 208.833 511.77 176.414 493.357 159.943C474.682 143.244 451.762 150.517 435.805 165.688C385.916 214.057 453.484 291.71 359.192 265.741C341.34 260.822 329.719 249.796 338.872 236.086C344.899 227.033 364.313 208.414 377.615 187.015C415.958 125.149 352.85 86.6438 302.473 89.1753C242.769 92.3581 249.119 133.84 249.036 175.032Z" fill="#0ABBDA"/>
<path fill-rule="evenodd" clip-rule="evenodd" d="M349.313 261.992C337.316 256.171 330.986 246.748 338.364 235.875C344.391 226.822 363.805 208.203 377.107 186.804C402.376 146.074 383.723 115.562 353.793 100.142C371.504 117.155 380.985 139.922 368.009 165.984C350.758 201.469 318.28 234.318 334.011 251.223C338.788 256.068 343.97 259.652 349.313 261.992Z" fill="#004263"/>
<path fill-rule="evenodd" clip-rule="evenodd" d="M215.138 385.3C207.41 384.114 200.213 379.93 197.09 370.53C190.497 350.275 224.675 317.06 244.953 317.864C265.231 318.667 277.634 323.227 287.486 354.846C297.339 386.465 328.566 413.386 364.521 409.149C400.477 404.912 412.392 384.843 411.072 365.945C410.729 361.037 409.947 356.899 408.726 353.532C409.423 367.047 410.149 384.506 394.078 394.507C379.885 403.144 358.169 402.934 341.406 395.966C320.334 387.326 305.22 368.652 298.119 348.185C293.198 334.224 291.063 321.303 279.402 313.238C267.742 305.174 246.693 303.931 225.697 314.029C190.125 330.818 175.598 384.116 215.138 385.3ZM325.98 319.851C326.567 314.137 330.578 293.881 357.374 296.202C388.638 298.951 421.244 306.786 432.257 280.862C443.516 254.92 423.476 225.738 436.315 197.714C456.368 152.908 502.785 160.764 498.866 189.399C498.033 195.13 492.686 196.243 492.686 196.243L492.44 196.26C493.428 192.739 498.255 177.111 483.644 172.706C467.526 167.912 445.155 183.039 441.179 214.391C437.203 245.743 465.439 268.68 431.351 299.668C397.264 330.656 365.786 296.601 334.791 311.837C330.739 313.846 327.72 316.523 325.98 319.851Z" fill="#004366"/>
<path fill-rule="evenodd" clip-rule="evenodd" d="M33.3855 236.949C31.5305 235.106 30.3089 231.738 32.3688 225.922C36.2776 214.798 60.1907 211.155 74.3349 233.596C88.479 256.038 92.71 284.843 138.963 297.397C176.157 307.377 203.706 299.288 213.071 295.675C210.44 296.845 207.09 298.312 203.723 299.534C208.968 296.948 213.299 295.412 215.228 294.784C217.842 293.369 219.737 292.25 220.388 290.971C222.796 286.611 189.883 295.568 152.819 291.004C115.739 286.195 97.7477 258.103 87.5418 239.086C77.5813 220.052 72.9295 213.472 52.777 210.933C32.8527 208.132 25.2917 223.457 26.5249 230.523C27.4785 237.115 32.4039 237.018 33.3855 236.949Z" fill="#004366"/>
<path fill-rule="evenodd" clip-rule="evenodd" d="M157.922 46.2462C166.716 37.9869 190.795 40.2513 193.36 69.9133C194.462 82.1674 188.385 90.4837 180.064 98.4634C147.906 128.824 128.258 161.763 130.452 193.178C132.714 225.574 157.485 255.411 201.471 249.627C222.491 246.926 229.521 234.597 212.462 237.515C199.541 239.65 161.605 233.174 146.786 194.01C131.967 154.846 193.465 103.2 200.666 82.7206C207.867 62.2415 202.484 41.6546 180.882 36.0112C160.295 30.79 158.082 45.002 157.922 46.2462Z" fill="#004366"/>
<path fill-rule="evenodd" clip-rule="evenodd" d="M318.79 219.963C319.738 219.403 320.982 219.563 321.541 220.51C322.084 221.212 321.907 222.211 321.45 222.736C319.658 225.328 317.079 227.234 314.151 227.685C311.24 228.382 307.999 227.868 305.179 226.339C302.342 224.564 300.681 221.967 299.985 219.056C299.289 216.145 299.802 212.903 301.577 210.067C301.805 209.804 302.033 209.542 302.279 209.524C303.226 208.965 304.47 209.125 305.03 210.072C305.572 210.774 305.395 211.773 304.938 212.298C303.831 214.102 303.723 216.082 304.106 218.029C304.488 219.975 305.59 221.624 307.393 222.731C307.393 222.731 307.639 222.714 307.656 222.96C309.459 224.067 311.44 224.175 313.386 223.793C315.332 223.41 316.981 222.308 318.089 220.505C318.089 220.505 318.317 220.242 318.79 219.963Z" fill="white"/>
<path fill-rule="evenodd" clip-rule="evenodd" d="M273.862 201.644C274.529 200.611 275.756 200.525 276.789 201.193C277.56 201.632 277.874 202.597 277.68 203.35C277.166 206.592 275.375 209.184 273.023 210.828C270.689 212.717 267.533 213.431 264.291 212.917C261.05 212.404 258.458 210.612 256.569 208.277C254.68 205.943 253.966 202.787 254.48 199.545C254.463 199.299 254.691 199.037 254.919 198.774C255.587 197.741 256.814 197.655 257.847 198.323C258.617 198.763 258.931 199.727 258.737 200.481C258.384 202.478 259.012 204.407 260.113 206.057C261.215 207.706 263.018 208.813 264.999 208.922L265.244 208.905C267.242 209.258 269.171 208.63 270.82 207.529C272.469 206.427 273.331 204.641 273.685 202.643C273.422 202.415 273.651 202.152 273.862 201.644Z" fill="white"/>
<path fill-rule="evenodd" clip-rule="evenodd" d="M177.195 39.7213C177.6 38.4599 179.546 38.0774 181.578 38.922C183.61 39.7666 184.694 41.1706 184.289 42.432C183.884 43.6934 181.938 44.0759 179.906 43.2313C178.137 42.615 176.79 40.9827 177.195 39.7213Z" fill="#F9FCFE"/>
<path fill-rule="evenodd" clip-rule="evenodd" d="M190.659 48.8925C191.835 48.0706 193.621 48.9323 194.74 50.8272C195.841 52.4766 195.996 54.6854 195.048 55.2448C193.873 56.0668 192.086 55.205 190.967 53.3102C189.62 51.6779 189.483 49.7145 190.659 48.8925Z" fill="#F9FCFE"/>
<path fill-rule="evenodd" clip-rule="evenodd" d="M196.687 61.0493C197.897 60.7182 199.244 62.3504 199.626 64.2967C200.026 66.4884 199.409 68.2578 198.2 68.5889C196.99 68.92 195.643 67.2877 195.26 65.3414C194.632 63.4123 195.477 61.3804 196.687 61.0493Z" fill="#F9FCFE"/>
<path fill-rule="evenodd" clip-rule="evenodd" d="M197.749 76.2656C199.011 76.6707 199.393 78.617 198.549 80.6489C197.704 82.6809 196.3 83.7654 195.039 83.3602C193.777 82.9551 193.64 80.9917 194.239 78.9769C195.084 76.9449 196.733 75.8433 197.749 76.2656Z" fill="#F9FCFE"/>
<path fill-rule="evenodd" clip-rule="evenodd" d="M191.136 91.0314C192.169 91.6991 192.06 93.6797 190.953 95.4833C189.846 97.287 187.917 97.9149 186.884 97.2472C185.851 96.5795 185.959 94.599 187.066 92.7953C188.173 90.9916 190.102 90.3637 191.136 91.0314Z" fill="#F9FCFE"/>
<path fill-rule="evenodd" clip-rule="evenodd" d="M177.616 105.786C178.649 106.454 178.541 108.435 177.434 110.238C176.327 112.042 174.398 112.67 173.365 112.002C172.331 111.334 172.44 109.354 173.547 107.55C174.671 105.992 176.583 105.119 177.616 105.786Z" fill="#F9FCFE"/>
<path fill-rule="evenodd" clip-rule="evenodd" d="M164.605 120.752C165.638 121.42 165.529 123.401 164.422 125.204C163.315 127.008 161.386 127.636 160.353 126.968C159.32 126.3 159.428 124.32 160.535 122.516C161.905 120.941 163.571 120.085 164.605 120.752Z" fill="#F9FCFE"/>
<path fill-rule="evenodd" clip-rule="evenodd" d="M154.555 135.758C155.588 136.426 155.48 138.406 154.373 140.21C153.266 142.014 151.337 142.642 150.304 141.974C149.271 141.306 149.379 139.326 150.486 137.522C151.838 135.701 153.505 134.845 154.555 135.758Z" fill="#F9FCFE"/>
<path fill-rule="evenodd" clip-rule="evenodd" d="M144.837 151.974C146.098 152.379 146.481 154.325 145.636 156.357C144.792 158.389 143.388 159.474 142.126 159.069C140.865 158.663 140.482 156.717 141.327 154.685C142.189 152.899 143.575 151.569 144.837 151.974Z" fill="#F9FCFE"/>
<path fill-rule="evenodd" clip-rule="evenodd" d="M137.955 169.965C139.199 170.124 140.301 171.774 140.21 174C140.118 176.226 138.994 177.784 137.75 177.624C136.506 177.464 135.404 175.815 135.495 173.589C135.604 171.608 136.711 169.805 137.955 169.965Z" fill="#F9FCFE"/>
<path fill-rule="evenodd" clip-rule="evenodd" d="M136.393 193.503C137.603 193.172 139.161 194.296 139.789 196.225C140.417 198.154 140.063 200.152 138.87 200.728C137.66 201.059 136.102 199.935 135.474 198.006C134.829 195.831 135.183 193.834 136.393 193.503Z" fill="#F9FCFE"/>
<path fill-rule="evenodd" clip-rule="evenodd" d="M142.535 210.83C143.728 210.254 145.514 211.116 146.388 213.028C147.506 214.922 147.398 216.903 146.205 217.48C145.013 218.056 143.226 217.194 142.353 215.282C141.234 213.388 141.342 211.407 142.535 210.83Z" fill="#F9FCFE"/>
<path fill-rule="evenodd" clip-rule="evenodd" d="M154.778 227.239C155.708 226.434 157.723 227.033 159.07 228.666C160.417 230.298 160.8 232.244 159.624 233.066C158.694 233.871 156.679 233.272 155.332 231.639C153.985 230.007 153.848 228.044 154.778 227.239Z" fill="#F9FCFE"/>
<path fill-rule="evenodd" clip-rule="evenodd" d="M172.689 240.046C172.848 238.801 174.777 238.173 177.02 238.51C179.018 238.864 180.593 240.233 180.188 241.495C180.028 242.739 178.099 243.367 175.856 243.03C173.859 242.677 172.283 241.307 172.689 240.046Z" fill="#F9FCFE"/>
<path fill-rule="evenodd" clip-rule="evenodd" d="M437.379 234.139C438.589 233.808 440.165 235.178 440.793 237.107C441.421 239.036 440.821 241.051 439.611 241.382C438.402 241.713 436.826 240.343 436.198 238.414C435.816 236.468 436.17 234.47 437.379 234.139Z" fill="#F9FCFE"/>
<path fill-rule="evenodd" clip-rule="evenodd" d="M436.99 214.437C438.217 214.351 439.336 216.246 439.227 218.226C439.136 220.452 438.258 221.993 437.03 222.079C435.803 222.165 434.685 220.27 434.793 218.289C434.639 216.081 435.746 214.277 436.99 214.437Z" fill="#F9FCFE"/>
<path fill-rule="evenodd" clip-rule="evenodd" d="M442.679 197.023C443.94 197.428 444.077 199.391 443.478 201.406C442.634 203.438 440.984 204.54 439.968 204.117C438.707 203.712 438.57 201.749 439.169 199.734C440.014 197.702 441.663 196.6 442.679 197.023Z" fill="#F9FCFE"/>
<path fill-rule="evenodd" clip-rule="evenodd" d="M451.501 182.102C452.534 182.77 452.426 184.751 451.073 186.571C449.704 188.147 448.037 189.003 446.987 188.09C445.954 187.422 446.062 185.442 447.415 183.621C448.539 182.063 450.468 181.435 451.501 182.102Z" fill="#F9FCFE"/>
<path fill-rule="evenodd" clip-rule="evenodd" d="M441.307 255.074C442.517 254.743 443.864 256.375 444.264 258.567C444.664 260.759 443.802 262.545 442.575 262.631C441.348 262.717 440.018 261.33 439.618 259.138C439.481 257.175 440.097 255.405 441.307 255.074Z" fill="#F9FCFE"/>
<path fill-rule="evenodd" clip-rule="evenodd" d="M441.628 273.795C442.661 274.463 443.044 276.409 441.937 278.213C441.075 279.999 439.426 281.101 438.165 280.696C437.131 280.028 436.749 278.082 437.856 276.278C438.718 274.491 440.367 273.39 441.628 273.795Z" fill="#F9FCFE"/>
<path fill-rule="evenodd" clip-rule="evenodd" d="M434.244 288.121C435.277 288.789 435.169 290.77 434.062 292.573C432.955 294.377 431.043 295.25 429.993 294.337C428.96 293.67 429.068 291.689 430.175 289.885C431.282 288.082 433.194 287.208 434.244 288.121Z" fill="#F9FCFE"/>
<path fill-rule="evenodd" clip-rule="evenodd" d="M420.411 301.912C420.987 303.105 419.618 304.68 417.706 305.553C415.794 306.427 413.796 306.073 413.22 304.88C412.643 303.687 414.013 302.112 415.925 301.239C417.837 300.365 419.834 300.719 420.411 301.912Z" fill="#F9FCFE"/>
<path fill-rule="evenodd" clip-rule="evenodd" d="M398.461 305.418C398.301 306.662 396.652 307.763 394.671 307.655C392.445 307.564 390.887 306.44 390.802 305.213C390.961 303.968 392.611 302.867 394.591 302.975C396.817 303.066 398.621 304.173 398.461 305.418Z" fill="#F9FCFE"/>
<path fill-rule="evenodd" clip-rule="evenodd" d="M376.448 304.489C376.288 305.733 374.639 306.834 372.658 306.726C370.433 306.635 368.874 305.511 368.789 304.284C368.948 303.039 370.598 301.938 372.578 302.046C374.804 302.137 376.362 303.261 376.448 304.489Z" fill="#F9FCFE"/>
<path fill-rule="evenodd" clip-rule="evenodd" d="M355.137 303.017C354.977 304.262 353.328 305.363 351.347 305.255C349.121 305.164 347.563 304.039 347.478 302.812C347.637 301.568 349.287 300.466 351.267 300.575C353.476 300.42 355.034 301.545 355.137 303.017Z" fill="#F9FCFE"/>
<path fill-rule="evenodd" clip-rule="evenodd" d="M463.714 173.358C464.028 174.322 463.149 175.863 461.466 176.474C459.782 177.085 458.047 176.96 457.471 175.767C457.157 174.802 458.035 173.261 459.719 172.65C461.648 172.022 463.4 172.393 463.714 173.358Z" fill="#F9FCFE"/>
<path fill-rule="evenodd" clip-rule="evenodd" d="M192.892 243.32C192.807 242.093 194.456 240.992 196.665 240.837C198.873 240.683 200.432 241.807 200.517 243.035C200.603 244.262 198.954 245.363 196.745 245.518C194.782 245.655 192.995 244.793 192.892 243.32Z" fill="#F9FCFE"/>
<path fill-rule="evenodd" clip-rule="evenodd" d="M182.851 297.292C182.766 296.065 184.415 294.963 186.624 294.809C188.832 294.655 190.391 295.779 190.476 297.006C190.562 298.233 188.913 299.335 186.704 299.489C184.495 299.643 182.937 298.519 182.851 297.292Z" fill="#F9FCFE"/>
<path fill-rule="evenodd" clip-rule="evenodd" d="M154.195 296.58C154.355 295.336 156.004 294.234 158.247 294.571C160.473 294.662 162.031 295.786 161.871 297.031C161.712 298.275 160.045 299.131 157.819 299.04C155.839 298.932 154.281 297.807 154.195 296.58Z" fill="#F9FCFE"/>
<path fill-rule="evenodd" clip-rule="evenodd" d="M131.788 290.006C132.439 288.728 134.402 288.591 136.188 289.452C138.22 290.297 139.322 291.946 138.671 293.225C138.021 294.504 136.057 294.641 134.271 293.779C132.484 292.917 131.383 291.268 131.788 290.006Z" fill="#F9FCFE"/>
<path fill-rule="evenodd" clip-rule="evenodd" d="M106.047 274.54C106.96 273.49 108.975 274.089 110.55 275.459C112.126 276.829 112.754 278.758 111.84 279.808C110.927 280.858 108.913 280.259 107.337 278.89C105.745 277.274 105.117 275.345 106.047 274.54Z" fill="#F9FCFE"/>
<path fill-rule="evenodd" clip-rule="evenodd" d="M91.3382 254.605C92.531 254.028 94.3174 254.89 95.419 256.539C96.5378 258.434 96.6749 260.398 95.4821 260.974C94.2893 261.551 92.5029 260.689 91.4013 259.04C90.2825 257.145 90.3909 255.164 91.3382 254.605Z" fill="#F9FCFE"/>
<path fill-rule="evenodd" clip-rule="evenodd" d="M79.3857 231.764C80.5784 231.187 82.3649 232.049 83.4665 233.699C84.5852 235.593 84.7223 237.557 83.5296 238.133C82.3368 238.71 80.5503 237.848 79.4487 236.199C78.3471 234.549 78.21 232.586 79.3857 231.764Z" fill="#F9FCFE"/>
<path fill-rule="evenodd" clip-rule="evenodd" d="M59.5176 215.641C60.1681 214.363 62.1314 214.226 63.935 215.333C65.7214 216.195 66.823 217.844 66.4179 219.105C65.7673 220.384 63.8041 220.521 62.0005 219.414C60.2141 218.552 59.0953 216.657 59.5176 215.641Z" fill="#F9FCFE"/>
<path fill-rule="evenodd" clip-rule="evenodd" d="M37.1509 216.71C36.8369 215.745 37.7329 214.45 39.4165 213.839C41.1001 213.228 42.5897 213.371 42.9037 214.335C43.2176 215.3 42.3217 216.595 40.6381 217.206C39.217 218.045 37.4649 217.675 37.1509 216.71Z" fill="#F9FCFE"/>
<path fill-rule="evenodd" clip-rule="evenodd" d="M258.651 312.715C259.056 311.453 261.019 311.316 263.051 312.161C265.083 313.005 266.184 314.655 265.762 315.671C265.357 316.932 263.394 317.069 261.362 316.225C259.084 315.397 258 313.993 258.651 312.715Z" fill="#F9FCFE"/>
<path fill-rule="evenodd" clip-rule="evenodd" d="M278.233 321.212C279.163 320.407 281.178 321.006 282.525 322.639C283.872 324.271 284.009 326.234 283.079 327.039C282.148 327.844 280.134 327.245 278.787 325.613C277.44 323.98 277.303 322.017 278.233 321.212Z" fill="#F9FCFE"/>
<path fill-rule="evenodd" clip-rule="evenodd" d="M287.074 338.351C288.267 337.775 289.843 339.145 290.716 341.056C291.589 342.968 291.235 344.966 290.043 345.543C288.85 346.119 287.275 344.75 286.401 342.838C285.528 340.926 285.882 338.928 287.074 338.351Z" fill="#F9FCFE"/>
<path fill-rule="evenodd" clip-rule="evenodd" d="M294.512 356.575C295.705 355.999 297.263 357.123 298.154 359.28C299.027 361.192 298.673 363.19 297.481 363.766C296.288 364.343 294.73 363.219 293.839 361.061C292.949 358.904 293.302 356.906 294.512 356.575Z" fill="#F9FCFE"/>
<path fill-rule="evenodd" clip-rule="evenodd" d="M304.632 374.365C305.825 373.788 307.612 374.65 308.485 376.562C309.604 378.457 309.495 380.437 308.548 380.997C307.355 381.573 305.569 380.712 304.467 379.062C303.594 377.15 303.457 375.187 304.632 374.365Z" fill="#F9FCFE"/>
<path fill-rule="evenodd" clip-rule="evenodd" d="M318.194 388.462C318.862 387.429 320.842 387.537 322.663 388.89C324.483 390.242 325.094 391.926 324.426 392.959C323.759 393.992 321.778 393.884 319.958 392.531C318.154 391.424 317.281 389.512 318.194 388.462Z" fill="#F9FCFE"/>
<path fill-rule="evenodd" clip-rule="evenodd" d="M337.474 399.693C337.879 398.432 339.825 398.049 341.857 398.894C343.872 399.493 345.219 401.125 344.568 402.404C344.163 403.665 342.217 404.048 340.185 403.203C338.153 402.359 336.823 400.972 337.474 399.693Z" fill="#F9FCFE"/>
<path fill-rule="evenodd" clip-rule="evenodd" d="M236.352 314.765C236.021 313.555 237.391 311.98 239.337 311.597C241.266 310.969 243.281 311.568 243.612 312.778C243.943 313.988 242.573 315.564 240.627 315.946C238.681 316.329 236.684 315.975 236.352 314.765Z" fill="#F9FCFE"/>
<path fill-rule="evenodd" clip-rule="evenodd" d="M216.88 325.496C216.075 324.566 216.92 322.534 218.552 321.187C220.184 319.84 222.147 319.703 222.952 320.633C223.757 321.564 222.912 323.595 221.28 324.943C219.648 326.29 217.685 326.427 216.88 325.496Z" fill="#F9FCFE"/>
<path fill-rule="evenodd" clip-rule="evenodd" d="M255.822 183.929C255.628 184.683 254.926 185.225 254.19 185.277C253.437 185.083 252.894 184.381 252.843 183.644C253.961 174.934 254.063 165.802 253.937 156.933C253.901 124.628 253.807 95.04 303.883 95.2424C304.619 95.191 305.161 95.893 305.213 96.6293C305.264 97.3655 304.562 97.9078 303.826 97.9592C256.712 97.7966 256.703 125.912 256.882 156.727C256.78 165.859 256.923 174.974 255.822 183.929Z" fill="white"/>
</svg>
