<svg class="small-cloud" viewBox="0 0 76 43" fill="none" xmlns="http://www.w3.org/2000/svg">
<path fill-rule="evenodd" clip-rule="evenodd" d="M62.5518 15.9396C61.193 15.9396 59.8819 16.1423 58.6457 16.516C56.3903 7.04513 47.8517 0 37.6606 0C27.5332 0 19.0374 6.95873 16.7191 16.3407C15.6719 16.0798 14.577 15.9396 13.4488 15.9396C6.02136 15.9396 0 21.9418 0 29.3453C0 36.7494 6.02136 42.7513 13.4488 42.7513H34.3715C35.444 42.9149 36.5424 43 37.6606 43C38.7792 43 39.8776 42.9149 40.9501 42.7513H62.5518C69.979 42.7513 76 36.7494 76 29.3453C76 21.9418 69.979 15.9396 62.5518 15.9396Z" fill="#ECF4FB"/>
</svg>
