<svg class="smile-face" viewBox="0 0 75 75" fill="none" xmlns="http://www.w3.org/2000/svg">
<path fill-rule="evenodd" clip-rule="evenodd" d="M37.5 0C16.7958 0 0 16.8103 0 37.5C0 58.1897 16.8103 75 37.5 75C58.1897 75 75 58.1897 75 37.5C75 16.8103 58.2042 0 37.5 0ZM37.5 3.80666C56.0974 3.80666 71.1933 18.9026 71.1933 37.5C71.1933 56.0974 56.0974 71.1933 37.5 71.1933C18.9026 71.1933 3.80666 56.0974 3.80666 37.5C3.80666 18.9026 18.9026 3.80666 37.5 3.80666Z" fill="#19C6DB"/>
<path fill-rule="evenodd" clip-rule="evenodd" d="M56.5043 46.668C52.7702 52.6395 45.6509 56.635 37.5 56.635C29.3491 56.635 22.2298 52.6395 18.4957 46.668C17.9436 45.7817 16.7668 45.5056 15.8659 46.0577C14.9651 46.6098 14.7036 47.7867 15.2557 48.6875C19.629 55.6906 27.9397 60.4562 37.4855 60.4562C47.0312 60.4562 55.3419 55.6906 59.7152 48.6875C60.2673 47.8012 60.0058 46.6244 59.105 46.0577C58.2332 45.5056 57.0564 45.7671 56.5043 46.668Z" fill="#19C6DB"/>
<path fill-rule="evenodd" clip-rule="evenodd" d="M20.5008 27.344C20.5008 24.4818 22.8255 22.1571 25.6877 22.1571C28.55 22.1571 30.8747 24.4818 30.8747 27.344C30.8747 28.3901 31.7319 29.2474 32.778 29.2474C33.8241 29.2474 34.6813 28.3901 34.6813 27.344C34.6813 22.375 30.6422 18.3504 25.6877 18.3504C20.7187 18.3504 16.6941 22.375 16.6941 27.344C16.6941 28.3901 17.5513 29.2474 18.5974 29.2474C19.6435 29.2474 20.5008 28.3901 20.5008 27.344Z" fill="#19C6DB"/>
<path fill-rule="evenodd" clip-rule="evenodd" d="M44.1399 27.344C44.1399 24.4818 46.4645 22.1571 49.3268 22.1571C52.1891 22.1571 54.5138 24.4818 54.5138 27.344C54.5138 28.3901 55.371 29.2474 56.4171 29.2474C57.4632 29.2474 58.3204 28.3901 58.3204 27.344C58.3204 22.375 54.2958 18.3504 49.3268 18.3504C44.3578 18.3504 40.3332 22.375 40.3332 27.344C40.3332 28.3901 41.1904 29.2474 42.2365 29.2474C43.2826 29.2474 44.1399 28.3901 44.1399 27.344Z" fill="#19C6DB"/>
</svg>
