<svg id="waves" viewBox="0 0 1512 280" fill="none" xmlns="http://www.w3.org/2000/svg">
<path d="M721.586 47.4404C696.735 39.0212 672.061 30.2996 646.723 22.6871C623.287 15.6291 599.453 9.47863 574.602 5.39509C545.726 0.605758 516.542 -1.00749 487.446 0.605758C460.428 2.11818 434.206 6.35296 408.47 12.3018C381.85 18.4523 356.115 26.1657 330.512 34.2823C304.334 42.4998 278.289 50.9694 251.713 58.4306C222.13 66.7489 192.017 73.8069 160.843 78.5458C143.951 81.117 126.882 82.9319 109.681 84.0914C84.7857 85.755 59.8018 85.3013 34.8622 85.503C27.4775 85.5534 9.1709 85.5534 1.78632 85.4526C-0.336243 85.4021 0.00164795 85.7046 0.0458374 87.3683C0.134277 124.322 0.134338 161.326 0.0900879 198.279C0.0900879 203.22 0.134277 208.11 0.178528 213C14.3287 212.698 38.3998 212.193 52.5057 211.236C78.993 209.421 105.348 206.043 131.525 201.102C154.21 196.817 176.717 191.171 198.915 184.314C227.304 175.442 255.206 164.451 282.313 151.394C313.355 136.522 345.635 125.179 378.622 117.465C398.3 112.878 418.375 109.399 438.76 106.879C453.308 105.114 467.945 103.854 482.626 102.946C490.762 102.442 498.943 102.089 507.123 101.938C548.335 101.131 589.548 101.837 630.76 101.535C643.893 101.434 657.026 100.778 670.115 99.7701C701.555 97.4007 730.253 93.7205 760.322 86.9146C775.578 83.436 796.14 78.3946 810.997 74.1598C811.218 74.1094 797.997 71.0846 784.554 67.0514C765.275 61.2538 738.301 53.0868 721.586 47.4404Z" fill="url(#paint0_linear_0_1)"/>
<path d="M0.22229 221.95C499.772 221.95 1010.24 221.95 1509.79 222C1511.69 222 1512 221.647 1512 220.388C1511.96 180.798 1511.96 141.207 1511.96 101.567C1510.94 100.962 1509.75 101.164 1508.6 101.113C1492.99 101.113 1477.44 101.214 1461.83 101.063C1447.78 100.912 1433.81 100.106 1419.93 98.5947C1398.32 96.2274 1376.88 92.5 1355.66 87.312C1337.45 82.9298 1319.64 77.6914 1302.09 72.05C1286.14 66.9627 1270.4 61.5228 1254.58 56.1836C1233.72 49.0815 1212.81 42.0298 1191.37 35.8344C1163.39 27.7752 1134.8 21.2776 1104.87 18.1547C1096.65 17.2984 1088.34 16.7443 1080.03 16.3414C1069.78 15.888 1059.57 15.9384 1049.31 16.1902C1036.32 16.5428 1023.41 17.7517 1010.59 19.4139C988.935 22.2346 967.896 26.6671 947.211 31.9055C927.63 36.8417 908.491 42.6342 889.441 48.5778C871.982 54.0177 854.655 59.5584 837.196 64.9479C829.019 67.4664 820.754 69.9345 812.488 72.3019C811.516 72.5537 810.499 72.6041 809.527 72.8559C807.847 73.813 805.726 74.1655 803.781 74.7196C792.112 78.044 780.222 81.0661 768.288 83.8868C746.63 88.9742 724.663 93.1548 702.253 96.0259C689.877 97.5873 677.413 98.897 664.86 99.7029C656.506 100.257 648.108 100.61 639.71 100.761C599.267 101.415 558.824 100.761 518.336 101.113C510.027 101.164 501.717 101.567 493.408 101.919C479.882 102.524 466.446 103.481 453.053 104.841C429.715 107.158 406.51 110.885 383.526 116.023C362.31 120.808 341.359 127.053 320.85 134.71C304.496 140.855 289.026 147.957 273.645 155.26C259.943 161.758 245.622 167.601 231.036 173.091C213.4 179.74 195.189 185.432 176.581 190.469C149.619 197.621 122.303 203.011 94.8107 206.537C80.6224 208.4 66.3457 209.76 52.0249 210.768C44.9087 211.221 37.7483 211.523 30.5879 211.876C24.7534 212.128 8.00171 211.825 2.16724 212.43C1.41589 212.531 0.487671 212.379 0.134033 213.085C0.134033 216.006 -0.219727 218.978 0.22229 221.95Z" fill="url(#paint1_linear_0_1)"/>
<path d="M721.586 267.305C696.735 269.558 672.061 271.892 646.723 273.929C623.287 275.818 599.453 277.463 574.602 278.556C545.726 279.838 516.542 280.27 487.446 279.838C460.428 279.433 434.206 278.3 408.47 276.708C381.85 275.062 356.115 272.998 330.512 270.826C304.334 268.627 278.289 266.36 251.713 264.364C222.13 262.138 192.017 260.249 160.843 258.981C143.951 258.293 126.882 257.807 109.681 257.497C84.7857 257.051 59.8018 257.173 34.8622 257.119C27.4775 257.105 9.17089 257.105 1.78631 257.132C-0.33625 257.146 0.0016404 257.065 0.0458297 256.62C0.134266 246.731 0.134324 236.828 0.0900704 226.939C0.09007 225.617 0.134259 224.309 0.178509 223C14.3287 223.081 38.3998 223.216 52.5057 223.472C78.993 223.958 105.348 224.862 131.525 226.184C154.21 227.331 176.717 228.842 198.915 230.676C227.304 233.051 255.206 235.992 282.313 239.486C313.355 243.466 345.635 246.501 378.622 248.566C398.3 249.793 418.375 250.724 438.76 251.399C453.308 251.871 467.945 252.208 482.626 252.451C490.762 252.586 498.942 252.68 507.123 252.721C548.335 252.937 589.548 252.748 630.76 252.829C643.893 252.856 657.026 253.031 670.115 253.301C701.555 253.935 730.253 254.92 760.322 256.741C775.578 257.672 796.14 259.021 810.997 260.154C811.218 260.168 797.997 260.977 784.554 262.057C765.275 263.608 738.301 265.794 721.586 267.305Z" fill="url(#paint2_linear_0_1)"/>
<path d="M0.222272 221.013C499.772 221.013 1010.24 221.013 1509.79 221C1511.69 221 1512 221.094 1512 221.43C1511.96 232.001 1511.96 242.571 1511.96 253.155C1510.94 253.316 1509.75 253.262 1508.6 253.276C1492.99 253.276 1477.44 253.249 1461.83 253.289C1447.78 253.329 1433.81 253.545 1419.93 253.948C1398.32 254.58 1376.88 255.575 1355.66 256.96C1337.45 258.13 1319.64 259.529 1302.09 261.035C1286.14 262.393 1270.4 263.846 1254.58 265.271C1233.72 267.168 1212.81 269.05 1191.37 270.704C1163.39 272.856 1134.8 274.591 1104.87 275.425C1096.65 275.653 1088.34 275.801 1080.03 275.909C1069.78 276.03 1059.57 276.016 1049.31 275.949C1036.32 275.855 1023.41 275.532 1010.59 275.089C988.935 274.335 967.896 273.152 947.211 271.753C927.63 270.435 908.491 268.889 889.441 267.302C871.982 265.85 854.655 264.37 837.196 262.931C829.019 262.259 820.754 261.6 812.488 260.968C811.516 260.901 810.499 260.887 809.527 260.82C807.847 260.565 805.726 260.47 803.781 260.322C792.112 259.435 780.222 258.628 768.288 257.875C746.63 256.517 724.663 255.4 702.253 254.634C689.877 254.217 677.413 253.867 664.86 253.652C656.506 253.504 648.108 253.41 639.71 253.37C599.267 253.195 558.824 253.37 518.336 253.276C510.027 253.262 501.717 253.155 493.408 253.06C479.882 252.899 466.446 252.644 453.053 252.28C429.715 251.662 406.51 250.667 383.526 249.295C362.31 248.017 341.359 246.35 320.85 244.306C304.496 242.665 289.026 240.769 273.645 238.819C259.942 237.084 245.622 235.524 231.036 234.058C213.4 232.283 195.189 230.763 176.581 229.419C149.619 227.509 122.303 226.07 94.8107 225.129C80.6224 224.631 66.3457 224.268 52.0249 223.999C44.9087 223.878 37.7483 223.797 30.5879 223.703C24.7534 223.636 8.00169 223.717 2.16722 223.555C1.41588 223.528 0.487654 223.569 0.134016 223.38C0.134016 222.6 -0.219744 221.807 0.222272 221.013Z" fill="url(#paint3_linear_0_1)"/>
<defs>
<linearGradient id="paint0_linear_0_1" x1="810.978" y1="106.489" x2="-0.981868" y2="106.489" gradientUnits="userSpaceOnUse">
<stop stop-color="#D9EBFE"/>
<stop offset="1" stop-color="#48EBDC"/>
</linearGradient>
<linearGradient id="paint1_linear_0_1" x1="1512" y1="119.017" x2="-0.0118061" y2="119.017" gradientUnits="userSpaceOnUse">
<stop stop-color="#44E8DC"/>
<stop offset="0.457896" stop-color="#7ADEEA"/>
<stop offset="1" stop-color="#48EBDC"/>
</linearGradient>
<linearGradient id="paint2_linear_0_1" x1="810.978" y1="251.503" x2="-0.981877" y2="251.503" gradientUnits="userSpaceOnUse">
<stop stop-color="#D9EBFE"/>
<stop offset="1" stop-color="#48EBDC"/>
</linearGradient>
<linearGradient id="paint3_linear_0_1" x1="1512" y1="248.495" x2="-0.0118152" y2="248.496" gradientUnits="userSpaceOnUse">
<stop stop-color="#44E8DC"/>
<stop offset="0.457896" stop-color="#7ADEEA"/>
<stop offset="1" stop-color="#48EBDC"/>
</linearGradient>
</defs>
</svg>
