<svg id="waved-cloud" viewBox="0 0 1512 277" fill="none" xmlns="http://www.w3.org/2000/svg">
<path d="M0.222321 0.0677536C499.772 0.067742 1010.24 0.0676996 1509.79 -3.04662e-05C1511.69 -3.05104e-05 1512 0.474091 1512 2.16733C1511.96 55.403 1511.96 108.639 1511.96 161.942C1510.94 162.755 1509.75 162.484 1508.6 162.552C1492.99 162.552 1477.44 162.416 1461.83 162.619C1447.78 162.823 1433.81 163.906 1419.93 165.938C1398.32 169.121 1376.88 174.133 1355.66 181.11C1337.45 187.002 1319.64 194.046 1302.09 201.632C1286.14 208.472 1270.4 215.787 1254.58 222.967C1233.72 232.517 1212.81 241.999 1191.37 250.33C1163.39 261.166 1134.8 269.903 1104.87 274.103C1096.65 275.254 1088.34 275.999 1080.03 276.541C1069.78 277.151 1059.57 277.083 1049.31 276.744C1036.32 276.27 1023.41 274.645 1010.59 272.409C988.935 268.617 967.896 262.656 947.211 255.612C927.63 248.975 908.491 241.186 889.441 233.194C871.982 225.879 854.655 218.429 837.196 211.182C829.019 207.795 820.754 204.476 812.489 201.293C811.516 200.954 810.499 200.887 809.527 200.548C807.847 199.261 805.726 198.787 803.781 198.042C792.112 193.572 780.222 189.508 768.288 185.715C746.63 178.875 724.663 173.253 702.253 169.392C689.877 167.293 677.413 165.532 664.86 164.448C656.506 163.703 648.108 163.229 639.71 163.026C599.267 162.145 558.824 163.026 518.337 162.552C510.027 162.484 501.717 161.942 493.408 161.468C479.882 160.655 466.446 159.368 453.053 157.54C429.715 154.424 406.51 149.412 383.526 142.504C362.31 136.069 341.359 127.671 320.85 117.376C304.496 109.113 289.026 99.5629 273.645 89.7421C259.942 81.0049 245.622 73.1482 231.036 65.7657C213.4 56.8253 195.189 49.1719 176.581 42.3989C149.619 32.7813 122.303 25.5342 94.8107 20.7931C80.6225 18.2871 66.3457 16.4584 52.0249 15.1038C44.9087 14.4942 37.7483 14.0878 30.5879 13.6137C24.7535 13.2751 8.00162 13.6815 2.16727 12.8687C1.41581 12.7332 0.487584 12.9364 0.134068 11.9882C0.134067 8.05985 -0.219694 4.06382 0.222321 0.0677536Z" fill="#F9FCFE"/>
</svg>
