<svg width="84" height="57" viewBox="0 0 84 57" fill="none" xmlns="http://www.w3.org/2000/svg">
<path d="M29.3023 0C18 0 8.7907 9.26601 8.7907 20.6379C8.7907 21.2697 8.89535 21.8839 8.94767 22.5157C3.62791 25.7974 0 31.5887 0 38.3276C0 48.6466 8.30233 57 18.5581 57H66.4186C76.0988 57 84 49.0502 84 39.3103C84 30.7639 77.8953 23.6915 69.8721 22.0419C68.2849 15.0573 62.1105 9.82759 54.6977 9.82759C52.0814 9.82759 49.7093 10.6524 47.564 11.7931C44.2326 4.89624 37.4128 0 29.3023 0ZM29.3023 3.93103C36.5407 3.93103 42.6453 8.54649 44.9302 15.0222C45.1395 15.6013 45.593 16.0576 46.1686 16.2331C46.7442 16.4261 47.3895 16.3208 47.8779 15.9698C49.814 14.5834 52.1337 13.7586 54.6802 13.7586C60.6453 13.7586 65.5465 18.2161 66.3139 23.9898C66.436 24.8849 67.1337 25.5693 68.0233 25.6746C74.8256 26.4818 80.0756 32.238 80.0756 39.3103C80.0756 46.9267 73.9709 53.069 66.4012 53.069H18.5581C10.4128 53.069 3.90698 46.5231 3.90698 38.3276C3.90698 32.5714 7.11628 27.6576 11.843 25.2183C12.593 24.8322 13.0116 24.0074 12.8721 23.165C12.75 22.3402 12.6802 21.4978 12.6802 20.6379C12.6977 11.3895 20.1105 3.93103 29.3023 3.93103Z" fill="#19C6DB"/>
</svg>
