<svg width="71" height="89" viewBox="0 0 71 89" fill="none" xmlns="http://www.w3.org/2000/svg">
<path fill-rule="evenodd" clip-rule="evenodd" d="M57.2874 11.7422C57.2874 5.25953 52.0279 0 45.5452 0H12.6251C6.14246 0 0.882935 5.25953 0.882935 11.7422V73.3887C0.882935 79.8714 6.14246 85.1309 12.6251 85.1309H29.889C30.9723 85.1309 31.846 84.2573 31.846 83.1739C31.846 82.0906 30.9723 81.2169 29.889 81.2169H13.6037H13.3415C8.60623 81.0771 4.797 77.1805 4.797 72.4102V12.7207V12.4586C4.93679 7.72329 8.83338 3.91407 13.6037 3.91407H44.5667C49.4243 3.91407 53.3734 7.86308 53.3734 12.7207V44.0332C53.3734 45.1166 54.247 45.9903 55.3304 45.9903C56.4137 45.9903 57.2874 45.1166 57.2874 44.0332V11.7422ZM65.1156 60.6681C65.1156 54.7271 60.2929 49.9044 54.3519 49.9044C48.4109 49.9044 43.5882 54.7271 43.5882 60.6681V65.5607H43.3086C40.0586 65.5607 37.4375 68.1817 37.4375 71.4318V82.1955C37.4375 85.4456 40.0586 88.0666 43.3086 88.0666H64.4341C67.6842 88.0666 70.3052 85.4456 70.3052 82.1955V71.4318C70.3052 68.1817 67.6842 65.5607 64.4341 65.5607H47.5197V60.6681V60.441C47.6421 56.7541 50.665 53.8185 54.3694 53.8185H54.5965C58.266 53.9408 61.0617 55.9153 61.0617 59.6197L61.2365 61.0875C61.2365 61.105 61.2408 61.1224 61.2452 61.1399C61.2496 61.1574 61.2539 61.1749 61.2539 61.1923C61.4461 62.1359 62.3548 62.7475 63.2983 62.5727L63.5779 62.5203C64.469 62.3631 65.1156 61.5768 65.1156 60.6681ZM43.5882 69.4748H63.4381C65.0631 69.4748 66.3737 70.7853 66.3737 72.4103V81.217V81.3917C66.2863 82.9294 64.9933 84.1525 63.4381 84.1525H43.5882H43.4135C41.8758 84.0652 41.3516 82.7721 41.3516 81.217V72.4103V72.2356C41.439 70.6979 42.0331 69.4748 43.5882 69.4748Z" fill="#19C6DB"/>
</svg>
