<svg width="87" height="67" viewBox="0 0 87 67" fill="none" xmlns="http://www.w3.org/2000/svg">
<path fill-rule="evenodd" clip-rule="evenodd" d="M25.3301 0C13.0806 0 0.0598145 4.01115 0.0598145 11.4472V54.4591C0.0598145 61.8952 13.0806 65.9063 25.3301 65.9063C37.5795 65.9063 50.5849 61.8952 50.5849 54.4591V11.4472C50.5849 4.01115 37.5641 0 25.3301 0ZM46.2652 40.6206C46.2652 43.521 38.104 47.7481 25.3301 47.7481C12.5407 47.7481 4.37952 43.521 4.37952 40.6206V31.7344C9.22375 34.9125 17.4312 36.5786 25.3301 36.5786C33.229 36.5786 41.4364 34.9125 46.2652 31.7344V40.6206ZM46.2652 25.1314C46.2652 28.0318 38.104 32.2589 25.3301 32.2589C12.5407 32.2589 4.37952 28.0318 4.37952 25.1314V18.0502C9.22375 21.2283 17.4312 22.8944 25.3301 22.8944C33.229 22.8944 41.4364 21.2283 46.2652 18.0502V25.1314ZM25.3301 4.3197C38.1195 4.3197 46.2652 8.54684 46.2652 11.4472C46.2652 14.3476 38.104 18.5747 25.3301 18.5747C12.5407 18.5747 4.37952 14.3476 4.37952 11.4472C4.37952 8.54684 12.5407 4.3197 25.3301 4.3197ZM25.3301 61.5866C12.5407 61.5866 4.37952 57.3595 4.37952 54.4591V47.2236C9.22375 50.4017 17.4312 52.0678 25.3301 52.0678C33.229 52.0678 41.4364 50.4017 46.2652 47.2236V54.4591C46.2652 57.3595 38.104 61.5866 25.3301 61.5866ZM69.6687 50.1857C70.1933 50.1857 70.7024 50.0006 71.1189 49.6303C71.9983 48.8281 72.0754 47.455 71.2732 46.5757L64.5159 39.1396C64.51 39.1337 64.5042 39.1301 64.4991 39.127C64.493 39.1232 64.4882 39.1202 64.4861 39.1149C64.4855 39.1131 64.4851 39.1111 64.4851 39.1087L64.408 39.0316C64.4021 39.0257 64.3984 39.0198 64.3953 39.0148C64.3903 39.0066 64.3866 39.0007 64.3771 39.0007C64.3462 38.9699 64.3154 38.9545 64.2845 38.939C64.2614 38.9236 64.2421 38.9082 64.2228 38.8928C64.2035 38.8773 64.1842 38.8619 64.1611 38.8465C64.1457 38.8388 64.1302 38.8272 64.1148 38.8156C64.0994 38.804 64.084 38.7925 64.0685 38.7848C64.0223 38.7539 63.976 38.7231 63.9297 38.7076C63.9066 38.6999 63.8873 38.6883 63.868 38.6768C63.8487 38.6652 63.8294 38.6536 63.8063 38.6459C63.7754 38.6305 63.7446 38.6151 63.6983 38.5996C63.6751 38.5919 63.6482 38.5842 63.6212 38.5765C63.5942 38.5688 63.5672 38.5611 63.544 38.5533L63.4052 38.5071C63.3743 38.4916 63.328 38.4916 63.2972 38.4916C63.2509 38.4762 63.1892 38.4762 63.1429 38.4762C63.1198 38.4762 63.0928 38.4724 63.0658 38.4685C63.0388 38.4646 63.0118 38.4608 62.9886 38.4608H62.9423H62.8806C62.8343 38.4608 62.7881 38.4608 62.7418 38.4762C62.7109 38.4762 62.6839 38.4801 62.6569 38.4839C62.6299 38.4878 62.6029 38.4916 62.5721 38.4916C62.5566 38.4916 62.5374 38.4955 62.5181 38.4994C62.4988 38.5032 62.4795 38.5071 62.4641 38.5071C62.4545 38.5103 62.4456 38.5135 62.437 38.5165L62.4368 38.5166C62.4042 38.5283 62.3773 38.5379 62.3407 38.5379C62.279 38.5533 62.2327 38.5688 62.171 38.5996C62.1556 38.6073 62.1364 38.615 62.1171 38.6227L62.117 38.6228L62.1169 38.6228C62.0977 38.6305 62.0784 38.6382 62.063 38.6459C62.0398 38.6536 62.0205 38.6652 62.0013 38.6768C61.982 38.6883 61.9627 38.6999 61.9395 38.7076C61.9164 38.7231 61.8894 38.7346 61.8624 38.7462C61.8354 38.7578 61.8084 38.7693 61.7853 38.7848C61.7544 38.8002 61.7236 38.8156 61.6927 38.8465C61.6696 38.8619 61.6503 38.8773 61.631 38.8928C61.6117 38.9082 61.5924 38.9236 61.5693 38.939C61.5384 38.9699 61.5076 38.9853 61.4767 39.0007C61.4708 39.0066 61.4672 39.0125 61.4641 39.0176C61.459 39.0257 61.4554 39.0316 61.4459 39.0316L61.3687 39.1087C61.3628 39.1146 61.3569 39.1183 61.3519 39.1214C61.3438 39.1264 61.3379 39.1301 61.3379 39.1396L54.5806 46.5757C53.7784 47.455 53.8401 48.8281 54.7349 49.6303C55.1514 50.0006 55.6605 50.1857 56.1851 50.1857C56.7713 50.1857 57.3576 49.9543 57.7896 49.476L60.7825 46.1745V64.2247C60.7825 65.4126 61.7544 66.3846 62.9423 66.3846C64.1303 66.3846 65.1022 65.4126 65.1022 64.2247V46.1745L68.0951 49.476C68.4962 49.9389 69.0825 50.1857 69.6687 50.1857ZM83.1369 55.3385C83.9392 54.4437 85.3122 54.382 86.1916 55.1842C87.0864 55.9864 87.1481 57.3595 86.3767 58.2234L79.6195 65.6595C79.6195 65.669 79.6136 65.6726 79.6054 65.6777C79.6004 65.6808 79.5945 65.6844 79.5886 65.6903L79.5115 65.7675C79.5019 65.7675 79.4983 65.7734 79.4933 65.7815C79.4902 65.7865 79.4865 65.7924 79.4806 65.7983C79.4343 65.8292 79.3881 65.86 79.3572 65.8909C79.3418 65.9063 79.3225 65.9217 79.3032 65.9372C79.2839 65.9526 79.2646 65.968 79.2492 65.9835C79.2415 65.9912 79.2299 65.9989 79.2184 66.0066C79.2068 66.0143 79.1952 66.022 79.1875 66.0297C79.1408 66.0648 79.0852 66.091 79.0341 66.1151C79.0178 66.1228 79.0019 66.1302 78.9869 66.1377C78.9869 66.1532 78.9715 66.1532 78.9715 66.1532C78.9407 66.184 78.9098 66.1994 78.879 66.2149C78.8712 66.2149 78.8635 66.2187 78.8558 66.2226C78.8481 66.2264 78.8404 66.2303 78.8327 66.2303C78.7555 66.2611 78.663 66.292 78.5858 66.3074C78.5241 66.3229 78.4778 66.3383 78.4315 66.3537C78.2927 66.3846 78.1539 66.4 78.015 66.4C77.8762 66.4 77.7373 66.3846 77.5985 66.3537C77.5368 66.3383 77.4905 66.3229 77.4442 66.3074C77.4056 66.2945 77.3696 66.2844 77.3352 66.2746C77.2872 66.261 77.2423 66.2483 77.1973 66.2303C77.1895 66.2303 77.1817 66.2263 77.1739 66.2224C77.1663 66.2186 77.1587 66.2149 77.1511 66.2149C77.122 66.2052 77.099 66.1894 77.0783 66.1752C77.0661 66.1668 77.0546 66.1589 77.0431 66.1532C77.0431 66.1377 77.0276 66.1377 77.0276 66.1377C76.9505 66.1069 76.8888 66.076 76.8271 66.0297C76.8194 66.022 76.8078 66.0143 76.7962 66.0066C76.7847 65.9989 76.7731 65.9912 76.7654 65.9835C76.7191 65.9526 76.6882 65.9217 76.6574 65.8909C76.6111 65.86 76.5648 65.8292 76.534 65.7983C76.5244 65.7983 76.5208 65.7924 76.5158 65.7843C76.5126 65.7792 76.509 65.7734 76.5031 65.7675L76.426 65.6903C76.426 65.6808 76.4201 65.6772 76.4119 65.6721C76.4069 65.669 76.401 65.6654 76.3951 65.6595L69.6379 58.2234C68.8356 57.344 68.9128 55.971 69.7921 55.1688C70.6715 54.3665 72.0446 54.4437 72.8468 55.323L75.8397 58.6245V40.5743C75.8397 39.3864 76.8117 38.4145 77.9996 38.4145C79.1875 38.4145 80.1594 39.3864 80.1594 40.5743V58.6245L83.1369 55.3385Z" fill="#19C6DB"/>
</svg>
