<svg class="cloud" viewBox="0 0 180 102" fill="none" xmlns="http://www.w3.org/2000/svg">
<path fill-rule="evenodd" clip-rule="evenodd" d="M148.149 37.8101C144.931 37.8101 141.826 38.2911 138.898 39.1775C133.556 16.7117 113.333 0 89.1962 0C65.2103 0 45.0886 16.5068 39.5978 38.7616C37.1176 38.1429 34.5244 37.8101 31.8525 37.8101C14.2611 37.8101 0 52.0479 0 69.6097C0 87.173 14.2611 101.41 31.8525 101.41H81.4062C83.9463 101.798 86.5478 102 89.1962 102C91.8454 102 94.4469 101.798 96.987 101.41H148.149C165.74 101.41 180 87.173 180 69.6097C180 52.0479 165.74 37.8101 148.149 37.8101Z" fill="#ECF4FB"/>
</svg>
