<svg class="right-waves" viewBox="0 0 1512 259" fill="none" xmlns="http://www.w3.org/2000/svg">
<g clip-path="url(#clip0_2_2)">
<rect x="577" y="231" width="513" height="28" fill="white"/>
<path d="M0.22229 205.95C499.772 205.95 1010.24 205.95 1509.79 206C1511.69 206 1512 205.647 1512 204.388C1511.96 164.798 1511.96 125.207 1511.96 85.5665C1510.94 84.9621 1509.75 85.1636 1508.6 85.1132C1492.99 85.1132 1477.44 85.214 1461.83 85.0628C1447.78 84.9117 1433.81 84.1058 1419.93 82.5947C1398.32 80.2274 1376.88 76.5 1355.66 71.312C1337.45 66.9298 1319.64 61.6914 1302.09 56.05C1286.14 50.9627 1270.4 45.5228 1254.58 40.1836C1233.72 33.0815 1212.81 26.0298 1191.37 19.8344C1163.39 11.7752 1134.8 5.27757 1104.87 2.15466C1096.65 1.29838 1088.34 0.744313 1080.03 0.341357C1069.78 -0.111968 1059.57 -0.0615984 1049.31 0.190249C1036.32 0.542835 1023.41 1.7517 1010.59 3.4139C988.935 6.23459 967.896 10.6671 947.211 15.9055C927.63 20.8417 908.491 26.6342 889.441 32.5778C871.982 38.0177 854.655 43.5584 837.196 48.9479C829.019 51.4664 820.754 53.9345 812.488 56.3019C811.516 56.5537 810.499 56.6041 809.527 56.8559C807.847 57.813 805.726 58.1655 803.781 58.7196C792.112 62.044 780.222 65.0661 768.288 67.8868C746.63 72.9742 724.663 77.1548 702.253 80.0259C689.877 81.5873 677.413 82.897 664.86 83.7029C656.506 84.2569 648.108 84.6095 639.71 84.7606C599.267 85.4154 558.824 84.7606 518.336 85.1132C510.027 85.1636 501.717 85.5665 493.408 85.9191C479.882 86.5236 466.446 87.4806 453.053 88.8406C429.715 91.1576 406.51 94.8849 383.526 100.023C362.31 104.808 341.359 111.053 320.85 118.71C304.496 124.855 289.026 131.957 273.645 139.26C259.943 145.758 245.622 151.601 231.036 157.091C213.4 163.74 195.189 169.432 176.581 174.469C149.619 181.621 122.303 187.011 94.8107 190.537C80.6224 192.4 66.3457 193.76 52.0249 194.768C44.9087 195.221 37.7483 195.523 30.5879 195.876C24.7534 196.128 8.00171 195.825 2.16724 196.43C1.41589 196.531 0.487671 196.379 0.134033 197.085C0.134033 200.006 -0.219727 202.978 0.22229 205.95Z" fill="url(#paint0_linear_2_2)"/>
<path d="M721.586 251.305C696.735 253.558 672.061 255.892 646.723 257.929C623.287 259.818 599.453 261.463 574.602 262.556C545.726 263.838 516.542 264.27 487.446 263.838C460.428 263.433 434.206 262.3 408.47 260.708C381.85 259.062 356.115 256.998 330.512 254.826C304.334 252.627 278.289 250.36 251.713 248.364C222.13 246.138 192.017 244.249 160.843 242.981C143.951 242.293 126.882 241.807 109.681 241.497C84.7857 241.051 59.8018 241.173 34.8622 241.119C27.4775 241.105 9.17089 241.105 1.78631 241.132C-0.33625 241.146 0.0016404 241.065 0.0458297 240.62C0.134266 230.731 0.134324 220.828 0.0900704 210.939C0.09007 209.617 0.134259 208.309 0.178509 207C14.3287 207.081 38.3998 207.216 52.5057 207.472C78.993 207.958 105.348 208.862 131.525 210.184C154.21 211.331 176.717 212.842 198.915 214.676C227.304 217.051 255.206 219.992 282.313 223.486C313.355 227.466 345.635 230.501 378.622 232.566C398.3 233.793 418.375 234.724 438.76 235.399C453.308 235.871 467.945 236.208 482.626 236.451C490.762 236.586 498.942 236.68 507.123 236.721C548.335 236.937 589.548 236.748 630.76 236.829C643.893 236.856 657.026 237.031 670.115 237.301C701.555 237.935 730.253 238.92 760.322 240.741C775.578 241.672 796.14 243.021 810.997 244.154C811.218 244.168 797.997 244.977 784.554 246.057C765.275 247.608 738.301 249.794 721.586 251.305Z" fill="url(#paint1_linear_2_2)"/>
<path d="M0.222272 205.013C499.772 205.013 1010.24 205.013 1509.79 205C1511.69 205 1512 205.094 1512 205.43C1511.96 216.001 1511.96 226.571 1511.96 237.155C1510.94 237.316 1509.75 237.262 1508.6 237.276C1492.99 237.276 1477.44 237.249 1461.83 237.289C1447.78 237.329 1433.81 237.545 1419.93 237.948C1398.32 238.58 1376.88 239.575 1355.66 240.96C1337.45 242.13 1319.64 243.529 1302.09 245.035C1286.14 246.393 1270.4 247.846 1254.58 249.271C1233.72 251.168 1212.81 253.05 1191.37 254.704C1163.39 256.856 1134.8 258.591 1104.87 259.425C1096.65 259.653 1088.34 259.801 1080.03 259.909C1069.78 260.03 1059.57 260.016 1049.31 259.949C1036.32 259.855 1023.41 259.532 1010.59 259.089C988.935 258.335 967.896 257.152 947.211 255.753C927.63 254.435 908.491 252.889 889.441 251.302C871.982 249.85 854.655 248.37 837.196 246.931C829.019 246.259 820.754 245.6 812.488 244.968C811.516 244.901 810.499 244.887 809.527 244.82C807.847 244.565 805.726 244.47 803.781 244.322C792.112 243.435 780.222 242.628 768.288 241.875C746.63 240.517 724.663 239.4 702.253 238.634C689.877 238.217 677.413 237.867 664.86 237.652C656.506 237.504 648.108 237.41 639.71 237.37C599.267 237.195 558.824 237.37 518.336 237.276C510.027 237.262 501.717 237.155 493.408 237.06C479.882 236.899 466.446 236.644 453.053 236.28C429.715 235.662 406.51 234.667 383.526 233.295C362.31 232.017 341.359 230.35 320.85 228.306C304.496 226.665 289.026 224.769 273.645 222.819C259.942 221.084 245.622 219.524 231.036 218.058C213.4 216.283 195.189 214.763 176.581 213.419C149.619 211.509 122.303 210.07 94.8107 209.129C80.6224 208.631 66.3457 208.268 52.0249 207.999C44.9087 207.878 37.7483 207.797 30.5879 207.703C24.7534 207.636 8.00169 207.717 2.16722 207.555C1.41588 207.528 0.487654 207.569 0.134016 207.38C0.134016 206.6 -0.219744 205.807 0.222272 205.013Z" fill="url(#paint2_linear_2_2)"/>
</g>
<defs>
<linearGradient id="paint0_linear_2_2" x1="1512" y1="103.017" x2="-0.0118061" y2="103.017" gradientUnits="userSpaceOnUse">
<stop stop-color="#44E8DC"/>
<stop offset="0.457896" stop-color="#7ADEEA"/>
<stop offset="1" stop-color="#48EBDC"/>
</linearGradient>
<linearGradient id="paint1_linear_2_2" x1="810.978" y1="235.503" x2="-0.981877" y2="235.503" gradientUnits="userSpaceOnUse">
<stop stop-color="#D9EBFE"/>
<stop offset="1" stop-color="#48EBDC"/>
</linearGradient>
<linearGradient id="paint2_linear_2_2" x1="1512" y1="232.495" x2="-0.0118152" y2="232.496" gradientUnits="userSpaceOnUse">
<stop stop-color="#44E8DC"/>
<stop offset="0.457896" stop-color="#7ADEEA"/>
<stop offset="1" stop-color="#48EBDC"/>
</linearGradient>
<clipPath id="clip0_2_2">
<rect width="1512" height="259" fill="white"/>
</clipPath>
</defs>
</svg>
