<svg width="24" height="24" viewBox="0 0 24 24" fill="none" xmlns="http://www.w3.org/2000/svg">
<path d="M11.959 0C9.16744 0.0189457 6.4692 1.00394 4.3259 2.7865C2.18259 4.56905 0.727391 7.03838 0.209244 9.77207C-0.308903 12.5058 0.142197 15.3339 1.48538 17.7728C2.82856 20.2116 4.98035 22.1096 7.57265 23.142C7.39842 22.0058 7.39842 20.8498 7.57265 19.7135L8.99177 13.7138C8.76718 13.1704 8.65598 12.5871 8.66494 11.9995C8.66494 10.3367 9.63682 9.08537 10.8409 9.08537C11.0591 9.0821 11.2753 9.12585 11.4749 9.21364C11.6745 9.30142 11.8527 9.43116 11.9972 9.59397C12.1418 9.75677 12.2494 9.9488 12.3126 10.1569C12.3757 10.365 12.393 10.5842 12.3632 10.7996C12.3632 11.8281 11.7096 13.3709 11.3656 14.7937C11.2915 15.0591 11.2827 15.3383 11.3399 15.6077C11.3971 15.8772 11.5186 16.1289 11.6941 16.3417C11.8696 16.5544 12.0939 16.7219 12.3482 16.8299C12.6024 16.9379 12.879 16.9833 13.1545 16.9622C15.2875 16.9622 16.9388 14.708 16.9388 11.4681C16.9603 10.8098 16.8438 10.1542 16.5968 9.5432C16.3498 8.93221 15.9777 8.37923 15.5043 7.91954C15.0309 7.45985 14.4665 7.10355 13.8472 6.87336C13.2279 6.64316 12.5673 6.54414 11.9074 6.58261C11.2029 6.55245 10.4996 6.66507 9.84007 6.91364C9.18053 7.16221 8.57845 7.54157 8.07029 8.02875C7.56213 8.51593 7.15845 9.10081 6.88368 9.74797C6.60892 10.3951 6.46878 11.0911 6.47176 11.7938C6.4622 12.7728 6.76321 13.7297 7.33183 14.528C7.37318 14.5738 7.40263 14.629 7.41763 14.6888C7.43262 14.7485 7.43269 14.8111 7.41784 14.8709C7.32323 15.248 7.11681 16.0708 7.08241 16.2337C7.04801 16.3965 6.90179 16.4994 6.67818 16.3965C5.17305 15.6937 4.23558 13.5081 4.23558 11.7424C4.23558 7.96255 6.9964 4.48269 12.1912 4.48269C16.3626 4.48269 19.6136 7.44829 19.6136 11.4167C19.6136 15.548 17.0334 18.8736 13.3609 18.8736C12.8225 18.8922 12.288 18.7766 11.8059 18.5371C11.3237 18.2976 10.9092 17.9419 10.6001 17.5022L9.85184 20.3564C9.49314 21.4656 8.99001 22.5231 8.35531 23.502C9.52482 23.8464 10.7396 24.014 11.959 23.9991C15.1525 23.9991 18.2152 22.7349 20.4733 20.4845C22.7314 18.2341 24 15.182 24 11.9995C24 8.81707 22.7314 5.76494 20.4733 3.51458C18.2152 1.26423 15.1525 0 11.959 0" fill="#004366"/>
</svg>
