<svg width="26" height="21" viewBox="0 0 26 21" fill="none" xmlns="http://www.w3.org/2000/svg">
<path d="M25.3501 2.40068C24.4173 2.80629 23.4159 3.08514 22.3639 3.20682C23.4387 2.57307 24.2601 1.5692 24.6505 0.375208C23.6262 0.972118 22.5087 1.39206 21.3448 1.61736C20.8553 1.10421 20.2663 0.69616 19.6138 0.418096C18.9614 0.140031 18.2591 -0.00221694 17.5499 2.61196e-05C14.6777 2.61196e-05 12.3506 2.29422 12.3506 5.12076C12.3506 5.52129 12.3962 5.91168 12.4849 6.28686C10.4248 6.18903 8.40768 5.66285 6.56226 4.74189C4.71684 3.82093 3.08366 2.5254 1.76691 0.937981C1.30442 1.71649 1.06093 2.60551 1.06217 3.51102C1.06217 5.28553 1.98238 6.85724 3.37664 7.77238C2.55135 7.7465 1.74374 7.52679 1.01908 7.13102V7.1944C1.02691 8.38449 1.44699 9.53507 2.20779 10.4503C2.96859 11.3654 4.02308 11.9886 5.19171 12.2137C4.42451 12.4166 3.62175 12.446 2.84175 12.2999C3.18177 13.3237 3.83212 14.2163 4.70251 14.8536C5.57291 15.491 6.62015 15.8415 7.69884 15.8565C5.84818 17.2826 3.57599 18.0531 1.23962 18.0468C0.821344 18.0468 0.408137 18.0214 0 17.9758C2.38411 19.4849 5.14852 20.2841 7.97009 20.2801C17.5372 20.2801 22.767 12.4774 22.767 5.70888L22.7492 5.0447C23.769 4.32801 24.6503 3.43214 25.3501 2.40068V2.40068Z" fill="#004366"/>
</svg>
