<svg class="waves-section4" viewBox="0 0 1512 292" fill="none" xmlns="http://www.w3.org/2000/svg">
<path fill-rule="evenodd" clip-rule="evenodd" d="M0.0898438 233.793C0.0219727 233.564 0.00012207 233.277 0.00012207 232.924C0.0443115 191.081 0.0443115 149.239 0.0443115 107.344C0.818848 106.857 1.69592 106.865 2.57788 106.872C2.85364 106.875 3.12988 106.877 3.40356 106.864C7.86304 106.864 12.319 106.873 16.7733 106.882C27.9036 106.904 39.0242 106.925 50.1672 106.811C64.2229 106.652 78.1902 105.8 92.069 104.203C113.683 101.701 135.12 97.7614 156.336 92.2782C174.547 87.6468 192.359 82.1105 209.907 76.1482C222.127 72.0304 234.218 67.694 246.318 63.3542C250.017 62.0275 253.717 60.7005 257.422 59.3794C278.284 51.8733 299.191 44.4205 320.628 37.8727C348.607 29.3551 377.204 22.4879 407.128 19.1874C415.349 18.2824 423.659 17.6968 431.968 17.2709C442.223 16.7918 452.433 16.8451 462.687 17.1112C475.682 17.4839 488.589 18.7615 501.407 20.5182C523.065 23.4994 544.104 28.184 564.79 33.7204C584.37 38.9373 603.509 45.0593 622.559 51.341C629.978 53.7839 637.372 56.246 644.763 58.707C654.766 62.0378 664.763 65.3664 674.804 68.6422C682.981 71.3039 691.246 73.9124 699.512 76.4144C699.998 76.5475 700.495 76.6273 700.992 76.7072C701.49 76.787 701.987 76.8669 702.473 77C703.723 77.7527 705.218 78.1516 706.702 78.5478C707.213 78.684 707.722 78.8198 708.219 78.9696C719.888 82.4831 731.778 85.6772 743.712 88.6583C765.37 94.035 787.337 98.4534 809.747 101.488C822.123 103.138 834.587 104.522 847.14 105.374C855.494 105.959 863.892 106.332 872.29 106.492C895.148 106.883 918.007 106.832 940.873 106.781C958.464 106.742 976.06 106.702 993.664 106.864C1000.93 106.911 1008.21 107.243 1015.48 107.575C1016.51 107.622 1017.55 107.67 1018.59 107.716C1032.12 108.355 1045.55 109.366 1058.95 110.804C1082.28 113.253 1105.49 117.192 1128.47 122.622C1149.69 127.679 1170.64 134.28 1191.15 142.372C1207.5 148.866 1222.97 156.372 1238.36 164.091C1252.06 170.959 1266.38 177.134 1280.96 182.936C1298.6 189.963 1316.81 195.979 1335.42 201.302C1362.38 208.862 1389.7 214.558 1417.19 218.284C1431.38 220.254 1445.65 221.691 1459.98 222.756C1465.33 223.116 1470.71 223.387 1476.1 223.657C1477.87 223.746 1479.64 223.835 1481.41 223.927C1483.66 224.03 1487.54 224.045 1491.79 224.062C1498.55 224.089 1506.25 224.12 1509.83 224.513C1510 224.537 1510.18 224.547 1510.36 224.558C1510.98 224.593 1511.59 224.629 1511.87 225.205C1511.87 226.151 1511.9 227.103 1511.93 228.058C1512 229.96 1512.07 231.876 1511.87 233.793C1512.07 234.305 1512 234.816 1511.93 235.324C1511.9 235.579 1511.87 235.833 1511.87 236.086C1511.59 236.24 1510.98 236.249 1510.36 236.259C1510.18 236.261 1510 236.264 1509.83 236.271C1506.25 236.375 1498.55 236.384 1491.79 236.391C1487.54 236.395 1483.66 236.4 1481.41 236.427C1479.64 236.452 1477.87 236.475 1476.1 236.499C1470.71 236.571 1465.33 236.643 1459.98 236.74C1445.65 237.024 1431.38 237.408 1417.19 237.934C1389.7 238.929 1362.38 240.449 1335.42 242.468C1316.81 243.889 1298.6 245.495 1280.96 247.371C1266.38 248.92 1252.06 250.569 1238.36 252.403C1222.97 254.463 1207.5 256.467 1191.15 258.201C1170.64 260.362 1149.69 262.124 1128.47 263.475C1105.49 264.924 1082.28 265.976 1058.95 266.63C1045.55 267.014 1032.12 267.284 1018.59 267.454C1017.55 267.467 1016.51 267.479 1015.48 267.492C1008.2 267.581 1000.93 267.669 993.664 267.682C976.059 267.725 958.463 267.714 940.872 267.704C918.006 267.69 895.148 267.677 872.29 267.781C863.892 267.824 855.494 267.923 847.14 268.08C834.587 268.307 822.123 268.676 809.747 269.117C787.337 269.927 765.37 271.107 743.712 272.542C731.778 273.338 719.888 274.191 708.219 275.129C707.722 275.169 707.213 275.205 706.702 275.242C705.218 275.348 703.723 275.454 702.473 275.655C701.987 275.691 701.489 275.712 700.992 275.733C700.495 275.755 699.998 275.776 699.512 275.811C691.246 276.479 682.981 277.176 674.804 277.887C664.763 278.761 654.766 279.65 644.763 280.539C637.372 281.196 629.977 281.854 622.559 282.506C603.509 284.183 584.37 285.817 564.79 287.21C544.104 288.689 523.065 289.939 501.407 290.735C488.589 291.204 475.682 291.545 462.687 291.645C452.433 291.716 442.223 291.73 431.968 291.602C423.659 291.488 415.349 291.332 407.128 291.091C377.204 290.209 348.607 288.376 320.628 286.102C299.191 284.353 278.284 282.364 257.422 280.36C253.718 280.007 250.019 279.653 246.32 279.299C234.219 278.14 222.128 276.982 209.907 275.883C192.359 274.291 174.547 272.812 156.336 271.576C135.12 270.112 113.683 269.06 92.0691 268.392C78.1902 267.966 64.2229 267.738 50.1672 267.696C39.0244 267.665 27.9042 267.671 16.7742 267.677C12.3196 267.679 7.8634 267.682 3.40356 267.682C3.12988 267.678 2.85364 267.679 2.57788 267.679C1.6958 267.682 0.818726 267.684 0.0443115 267.554C0.0443115 256.368 0.0443115 245.196 0.00012207 234.025C0.00012207 233.93 0.0219727 233.854 0.0898438 233.793Z" fill="#19C6DB"/>
<path d="M790.414 50.1387C815.265 41.2407 839.94 32.023 865.277 23.9775C888.713 16.5181 912.547 10.0178 937.399 5.70195C966.274 0.640213 995.458 -1.06479 1024.55 0.640213C1051.57 2.23866 1077.79 6.7143 1103.53 13.0015C1130.15 19.5019 1155.89 27.6539 1181.49 36.2322C1207.67 44.9171 1233.71 53.8684 1260.29 61.7541C1289.87 70.5455 1319.98 78.0049 1351.16 83.0134C1368.05 85.7307 1385.12 87.6489 1402.32 88.8744C1427.21 90.6326 1452.2 90.1531 1477.14 90.3662C1484.52 90.4195 1502.83 90.4195 1510.21 90.313C1512.34 90.2597 1512 90.5794 1511.95 92.3377C1511.87 131.393 1511.87 170.502 1511.91 209.557C1511.91 214.778 1511.87 219.947 1511.82 225.115C1497.67 224.795 1473.6 224.263 1459.49 223.25C1433.01 221.332 1406.65 217.762 1380.47 212.541C1357.79 208.012 1335.28 202.044 1313.08 194.798C1284.7 185.42 1256.79 173.805 1229.69 160.005C1198.65 144.287 1166.37 132.299 1133.38 124.147C1113.7 119.298 1093.62 115.622 1073.24 112.958C1058.69 111.093 1044.06 109.761 1029.37 108.802C1021.24 108.269 1013.06 107.896 1004.88 107.736C963.665 106.883 922.453 107.629 881.24 107.31C868.107 107.203 854.974 106.511 841.885 105.445C810.445 102.941 781.747 99.0511 751.678 91.8581C736.422 88.1817 715.861 82.8535 701.003 78.3779C700.782 78.3246 714.003 75.1277 727.446 70.8652C746.725 64.7378 773.699 56.1062 790.414 50.1387Z" fill="url(#paint0_linear_0_1)"/>
<defs>
<linearGradient id="paint0_linear_0_1" x1="701.022" y1="202.204" x2="1512.98" y2="202.204" gradientUnits="userSpaceOnUse">
<stop stop-color="#48EBDC"/>
<stop offset="1" stop-color="#19C6DB"/>
</linearGradient>
</defs>
</svg>
