<svg width="49" height="94" viewBox="0 0 49 94" fill="none" xmlns="http://www.w3.org/2000/svg">
<path fill-rule="evenodd" clip-rule="evenodd" d="M8.42105 92.5263H40.5789C44.6605 92.5263 48 89.1868 48 85.1053V8.42105C48 4.33947 44.6605 1 40.5789 1H8.42105C4.33947 1 1 4.33947 1 8.42105V85.1053C1 89.1868 4.33947 92.5263 8.42105 92.5263ZM3.47368 8.42105C3.47368 5.7 5.7 3.47368 8.42105 3.47368H40.5789C43.3 3.47368 45.5263 5.7 45.5263 8.42105V85.1053C45.5263 87.8263 43.3 90.0526 40.5789 90.0526H8.42105C5.7 90.0526 3.47368 87.8263 3.47368 85.1053V8.42105ZM18.3158 9.03956H30.6842C32.9105 9.03956 34.6421 7.18429 34.8895 4.95798C34.8895 4.33956 34.5184 3.9685 33.9 3.9685C33.2816 3.9685 32.9105 4.46324 32.9105 4.95798C32.7868 6.19482 31.921 7.18429 30.6842 7.18429H18.3158C17.0789 7.18429 16.2131 6.19482 16.3368 5.08166C16.3368 4.46324 15.9658 4.09219 15.3474 4.09219C14.7289 4.09219 14.3579 4.58692 14.3579 5.08166C14.3579 7.18429 16.0895 9.03956 18.3158 9.03956Z" fill="#48EBDC"/>
<path d="M34.8895 4.95798L35.3864 5.01319L35.3895 4.98567V4.95798H34.8895ZM32.9105 4.95798L33.408 5.00773L33.4105 4.98291V4.95798H32.9105ZM16.3368 5.08166L16.8338 5.13688L16.8368 5.10935V5.08166H16.3368ZM40.5789 92.0263H8.42105V93.0263H40.5789V92.0263ZM47.5 85.1053C47.5 88.9107 44.3844 92.0263 40.5789 92.0263V93.0263C44.9367 93.0263 48.5 89.463 48.5 85.1053H47.5ZM47.5 8.42105V85.1053H48.5V8.42105H47.5ZM40.5789 1.5C44.3844 1.5 47.5 4.61562 47.5 8.42105H48.5C48.5 4.06333 44.9367 0.5 40.5789 0.5V1.5ZM8.42105 1.5H40.5789V0.5H8.42105V1.5ZM1.5 8.42105C1.5 4.61562 4.61562 1.5 8.42105 1.5V0.5C4.06333 0.5 0.5 4.06333 0.5 8.42105H1.5ZM1.5 85.1053V8.42105H0.5V85.1053H1.5ZM8.42105 92.0263C4.61562 92.0263 1.5 88.9107 1.5 85.1053H0.5C0.5 89.463 4.06333 93.0263 8.42105 93.0263V92.0263ZM8.42105 2.97368C5.42386 2.97368 2.97368 5.42386 2.97368 8.42105H3.97368C3.97368 5.97614 5.97614 3.97368 8.42105 3.97368V2.97368ZM40.5789 2.97368H8.42105V3.97368H40.5789V2.97368ZM46.0263 8.42105C46.0263 5.42386 43.5761 2.97368 40.5789 2.97368V3.97368C43.0239 3.97368 45.0263 5.97614 45.0263 8.42105H46.0263ZM46.0263 85.1053V8.42105H45.0263V85.1053H46.0263ZM40.5789 90.5526C43.5761 90.5526 46.0263 88.1024 46.0263 85.1053H45.0263C45.0263 87.5502 43.0239 89.5526 40.5789 89.5526V90.5526ZM8.42105 90.5526H40.5789V89.5526H8.42105V90.5526ZM2.97368 85.1053C2.97368 88.1024 5.42386 90.5526 8.42105 90.5526V89.5526C5.97614 89.5526 3.97368 87.5502 3.97368 85.1053H2.97368ZM2.97368 8.42105V85.1053H3.97368V8.42105H2.97368ZM30.6842 8.53956H18.3158V9.53956H30.6842V8.53956ZM34.3925 4.90276C34.1676 6.92656 32.6078 8.53956 30.6842 8.53956V9.53956C33.2132 9.53956 35.1165 7.44203 35.3864 5.01319L34.3925 4.90276ZM33.9 4.4685C34.1089 4.4685 34.2174 4.52922 34.2731 4.58488C34.3287 4.64054 34.3895 4.74902 34.3895 4.95798H35.3895C35.3895 4.54851 35.2647 4.16225 34.9802 3.87778C34.6957 3.59331 34.3094 3.4685 33.9 3.4685V4.4685ZM33.4105 4.95798C33.4105 4.69754 33.5978 4.4685 33.9 4.4685V3.4685C32.9654 3.4685 32.4105 4.22894 32.4105 4.95798H33.4105ZM30.6842 7.68429C32.2379 7.68429 33.2652 6.43571 33.408 5.00773L32.413 4.90822C32.3084 5.95392 31.6042 6.68429 30.6842 6.68429V7.68429ZM18.3158 7.68429H30.6842V6.68429H18.3158V7.68429ZM15.8399 5.02644C15.6818 6.4493 16.7947 7.68429 18.3158 7.68429V6.68429C17.3632 6.68429 16.7445 5.94034 16.8338 5.13688L15.8399 5.02644ZM15.3474 4.59219C15.5563 4.59219 15.6648 4.65291 15.7204 4.70857C15.7761 4.76423 15.8368 4.8727 15.8368 5.08166H16.8368C16.8368 4.6722 16.712 4.28593 16.4276 4.00146C16.1431 3.71699 15.7568 3.59219 15.3474 3.59219V4.59219ZM14.8579 5.08166C14.8579 4.82122 15.0451 4.59219 15.3474 4.59219V3.59219C14.4127 3.59219 13.8579 4.35262 13.8579 5.08166H14.8579ZM18.3158 8.53956C16.3757 8.53956 14.8579 6.91834 14.8579 5.08166H13.8579C13.8579 7.45024 15.8032 9.53956 18.3158 9.53956V8.53956Z" fill="#48EBDC"/>
</svg>
