<svg width="87" height="87" viewBox="0 0 87 87" fill="none" xmlns="http://www.w3.org/2000/svg">
<path fill-rule="evenodd" clip-rule="evenodd" d="M84.7287 15.8421C85.5392 16.6525 86 17.749 86 18.909H85.9841V29.3493C85.9841 29.4287 85.9682 29.5241 85.9364 29.6035C85.9682 29.7942 85.9841 30.0008 85.9841 30.2074V81.6618C85.9841 82.806 85.5233 83.9183 84.7128 84.7288C83.9024 85.5392 82.8059 86 81.6459 86H5.33819C4.19405 86 3.0817 85.5392 2.27127 84.7288C1.46083 83.9183 1 82.8219 1 81.6618V30.2074C1 30.0008 1.01589 29.7942 1.04767 29.5717C1.01589 29.4764 1 29.3969 1 29.3016V18.8772C1 17.7331 1.46083 16.6207 2.27127 15.8103C3.0817 14.9999 4.17816 14.539 5.33819 14.539H6.13273C6.8796 14.539 7.64236 14.539 8.278 12.4255L8.9613 9.69232C9.1361 8.45284 10.0737 6.21223 12.5844 6.21223H36.802C39.8372 6.21223 40.9495 8.45284 41.1402 9.69232L41.2514 10.1373C41.2514 10.1559 41.2569 10.169 41.2614 10.18C41.2646 10.1877 41.2673 10.1942 41.2673 10.2008L41.4739 11.3767L63.6734 0.888807C63.88 0.793462 64.1183 0.777571 64.3408 0.857025C64.5633 0.936479 64.7381 1.09539 64.8334 1.30197L71.0785 14.5708H81.6618C82.8059 14.5708 83.9183 15.0316 84.7287 15.8421ZM83.4892 17.0657C82.9966 16.573 82.3451 16.3029 81.6459 16.3029H71.8731L73.8435 20.4663H79.882C80.1204 20.4663 80.3429 20.5616 80.5018 20.7206C80.6607 20.8953 80.756 21.1178 80.756 21.3403V25.8533H81.6459C82.5835 25.8533 83.5051 26.1711 84.252 26.7273V18.909C84.252 18.2257 83.9819 17.5583 83.4892 17.0657ZM9.51748 22.1984V25.8533H79.0239V22.1984H9.51748ZM26.2982 20.4663H71.9366L63.6257 2.82749L26.2982 20.4663ZM5.33819 16.3029C4.65489 16.3029 3.98747 16.573 3.49486 17.0657C3.01813 17.5424 2.7321 18.2098 2.7321 18.9408V26.7591C3.47897 26.187 4.38474 25.8851 5.33819 25.8851H7.76949V21.3721C7.76949 20.8795 8.16676 20.4981 8.64348 20.4981H22.246L39.8213 12.1872L39.5352 10.5663L39.424 10.1055C39.424 10.0896 39.42 10.0737 39.4161 10.0578C39.4121 10.0419 39.4081 10.026 39.4081 10.0101C39.3763 9.80356 39.0426 7.992 36.802 7.992H12.5685C10.9641 7.992 10.6926 9.78931 10.6636 9.98138C10.6627 9.98715 10.6621 9.99147 10.6616 9.99425V9.99426C10.6616 10.0419 10.6616 10.0737 10.6457 10.1055L9.94653 12.9023L9.93064 12.934C9.05665 15.9056 7.53113 16.3029 6.13273 16.3029H5.33819ZM83.4892 83.4893C83.9819 82.9967 84.252 82.3452 84.252 81.646H84.2361V30.2074C84.2361 29.5241 83.966 28.8566 83.4734 28.364C82.9807 27.8714 82.3292 27.6013 81.63 27.6013H79.882H5.33819C4.65489 27.6013 3.98747 27.8714 3.49486 28.364C3.00224 28.8566 2.7321 29.5082 2.7321 30.2074V81.646C2.7321 82.3293 3.00224 82.9967 3.49486 83.4893C3.98747 83.9819 4.639 84.252 5.33819 84.252H81.6459C82.3292 84.252 82.9966 83.9819 83.4892 83.4893ZM46.5431 64.7857H76.9581C77.1806 64.7857 77.4031 64.8811 77.5779 65.04C77.7368 65.2148 77.8321 65.4372 77.8321 65.6597V76.6085C77.8321 76.8469 77.7368 77.0693 77.5779 77.2282C77.4031 77.3871 77.1806 77.4825 76.9581 77.4825H46.5431C46.0505 77.4825 45.6691 77.0852 45.6691 76.6085V65.6597C45.6691 65.1671 46.0664 64.7857 46.5431 64.7857ZM47.4012 75.7345H76.0841V66.5178H47.4012V75.7345Z" fill="#48EBDC"/>
<path d="M86 18.909V19.409H86.5V18.909H86ZM85.9841 18.909V18.409H85.4841V18.909H85.9841ZM85.9364 29.6035L85.4722 29.4178L85.4202 29.5477L85.4432 29.6857L85.9364 29.6035ZM84.7128 84.7288L85.0664 85.0823L84.7128 84.7288ZM2.27127 84.7288L1.91771 85.0823H1.91771L2.27127 84.7288ZM1.04767 29.5717L1.54265 29.6424L1.55934 29.5256L1.52201 29.4136L1.04767 29.5717ZM2.27127 15.8103L1.91771 15.4567L1.91771 15.4567L2.27127 15.8103ZM8.278 12.4255L8.75681 12.5695L8.76021 12.5583L8.76307 12.5468L8.278 12.4255ZM8.9613 9.69232L9.44637 9.81359L9.45274 9.78813L9.4564 9.76214L8.9613 9.69232ZM41.1402 9.69232L40.646 9.76835L40.6495 9.79118L40.6551 9.81359L41.1402 9.69232ZM41.2514 10.1373H41.7514V10.0757L41.7365 10.016L41.2514 10.1373ZM41.2614 10.18L41.7234 9.98867L41.7234 9.98863L41.2614 10.18ZM41.2673 10.2008H40.7673V10.2444L40.7749 10.2873L41.2673 10.2008ZM41.4739 11.3767L40.9815 11.4633L41.0949 12.1088L41.6875 11.8288L41.4739 11.3767ZM63.6734 0.888807L63.4639 0.434809L63.4598 0.436721L63.6734 0.888807ZM64.3408 0.857025L64.509 0.386155L64.509 0.386154L64.3408 0.857025ZM64.8334 1.30197L64.3794 1.5115L64.381 1.51489L64.8334 1.30197ZM71.0785 14.5708L70.6261 14.7837L70.7612 15.0708H71.0785V14.5708ZM83.4892 17.0657L83.8428 16.7121V16.7121L83.4892 17.0657ZM71.8731 16.3029V15.8029H71.0833L71.4211 16.5168L71.8731 16.3029ZM73.8435 20.4663L73.3916 20.6802L73.527 20.9663H73.8435V20.4663ZM80.5018 20.7206L80.8717 20.3842L80.8637 20.3754L80.8553 20.367L80.5018 20.7206ZM80.756 25.8533H80.256V26.3533H80.756V25.8533ZM84.252 26.7273L83.9534 27.1283L84.752 27.723V26.7273H84.252ZM9.51748 25.8533H9.01748V26.3533H9.51748V25.8533ZM9.51748 22.1984V21.6984H9.01748V22.1984H9.51748ZM79.0239 25.8533V26.3533H79.5239V25.8533H79.0239ZM79.0239 22.1984H79.5239V21.6984H79.0239V22.1984ZM71.9366 20.4663V20.9663H72.7249L72.3889 20.2532L71.9366 20.4663ZM26.2982 20.4663L26.0846 20.0142L26.2982 20.9663V20.4663ZM63.6257 2.82749L64.078 2.61437L63.8647 2.16156L63.4121 2.37542L63.6257 2.82749ZM3.49486 17.0657L3.14131 16.7121H3.14131L3.49486 17.0657ZM2.7321 26.7591H2.2321V27.7719L3.03614 27.156L2.7321 26.7591ZM7.76949 25.8851V26.3851H8.26949V25.8851H7.76949ZM22.246 20.4981V20.9981H22.3583L22.4598 20.9501L22.246 20.4981ZM39.8213 12.1872L40.035 12.6392L40.38 12.4761L40.3137 12.1003L39.8213 12.1872ZM39.5352 10.5663L40.0276 10.4794L40.0249 10.4641L40.0213 10.449L39.5352 10.5663ZM39.424 10.1055H38.924V10.165L38.938 10.2228L39.424 10.1055ZM39.4161 10.0578L39.9011 9.93659L39.9011 9.93648L39.4161 10.0578ZM39.4081 10.0101H39.9081V9.9719L39.9023 9.93411L39.4081 10.0101ZM10.6636 9.98138L11.158 10.0561L11.158 10.056L10.6636 9.98138ZM10.6616 9.99425L10.1684 9.91202L10.1616 9.95285V9.99425H10.6616ZM10.6457 10.1055L10.1985 9.88187L10.174 9.93096L10.1607 9.98421L10.6457 10.1055ZM9.94653 12.9023L10.3938 13.1259L10.4183 13.0768L10.4316 13.0235L9.94653 12.9023ZM9.93064 12.934L9.48342 12.7105L9.46352 12.7503L9.45096 12.793L9.93064 12.934ZM84.252 81.646H84.752V81.146H84.252V81.646ZM84.2361 81.646H83.7361V82.146H84.2361V81.646ZM77.5779 65.04L77.9478 64.7036L77.9318 64.686L77.9142 64.67L77.5779 65.04ZM77.5779 77.2282L77.9142 77.5982L77.923 77.5902L77.9314 77.5818L77.5779 77.2282ZM76.0841 75.7345V76.2345H76.5841V75.7345H76.0841ZM47.4012 75.7345H46.9012V76.2345H47.4012V75.7345ZM76.0841 66.5178H76.5841V66.0178H76.0841V66.5178ZM47.4012 66.5178V66.0178H46.9012V66.5178H47.4012ZM86.5 18.909C86.5 17.6152 85.9857 16.3919 85.0823 15.4885L84.3752 16.1956C85.0926 16.9131 85.5 17.8827 85.5 18.909H86.5ZM85.9841 19.409H86V18.409H85.9841V19.409ZM86.4841 29.3493V18.909H85.4841V29.3493H86.4841ZM86.4007 29.7892C86.4586 29.6443 86.4841 29.4851 86.4841 29.3493H85.4841C85.4841 29.3571 85.4832 29.3709 85.4803 29.3869C85.4773 29.4032 85.4737 29.414 85.4722 29.4178L86.4007 29.7892ZM86.4841 30.2074C86.4841 29.9762 86.4664 29.7419 86.4296 29.5213L85.4432 29.6857C85.47 29.8465 85.4841 30.0254 85.4841 30.2074H86.4841ZM86.4841 81.6618V30.2074H85.4841V81.6618H86.4841ZM85.0664 85.0823C85.9705 84.1782 86.4841 82.9387 86.4841 81.6618H85.4841C85.4841 82.6732 85.076 83.6585 84.3593 84.3752L85.0664 85.0823ZM81.6459 86.5C82.9397 86.5 84.163 85.9857 85.0664 85.0823L84.3593 84.3752C83.6418 85.0927 82.6722 85.5 81.6459 85.5V86.5ZM5.33819 86.5H81.6459V85.5H5.33819V86.5ZM1.91771 85.0823C2.82181 85.9864 4.0613 86.5 5.33819 86.5V85.5C4.32681 85.5 3.34158 85.092 2.62482 84.3752L1.91771 85.0823ZM0.5 81.6618C0.5 82.9556 1.0143 84.1789 1.91771 85.0823L2.62482 84.3752C1.90736 83.6578 1.5 82.6881 1.5 81.6618H0.5ZM0.5 30.2074V81.6618H1.5V30.2074H0.5ZM0.552698 29.501C0.517997 29.7439 0.5 29.9743 0.5 30.2074H1.5C1.5 30.0273 1.51378 29.8445 1.54265 29.6424L0.552698 29.501ZM0.5 29.3016C0.5 29.4627 0.528845 29.5964 0.573331 29.7299L1.52201 29.4136C1.50294 29.3564 1.5 29.3311 1.5 29.3016H0.5ZM0.5 18.8772V29.3016H1.5V18.8772H0.5ZM1.91771 15.4567C1.01361 16.3608 0.5 17.6003 0.5 18.8772H1.5C1.5 17.8658 1.90805 16.8806 2.62482 16.1638L1.91771 15.4567ZM5.33819 14.039C4.04444 14.039 2.82112 14.5533 1.91771 15.4567L2.62482 16.1638C3.34227 15.4464 4.31189 15.039 5.33819 15.039V14.039ZM6.13273 14.039H5.33819V15.039H6.13273V14.039ZM7.79918 12.2815C7.4919 13.3032 7.18338 13.703 6.95312 13.8704C6.73678 14.0276 6.51844 14.039 6.13273 14.039V15.039C6.4939 15.039 7.03037 15.0504 7.54103 14.6793C8.03778 14.3183 8.42845 13.6613 8.75681 12.5695L7.79918 12.2815ZM8.47623 9.57105L7.79292 12.3043L8.76307 12.5468L9.44637 9.81359L8.47623 9.57105ZM12.5844 5.71223C11.1565 5.71223 10.1574 6.35857 9.50591 7.17578C8.86767 7.97637 8.56295 8.93642 8.4662 9.6225L9.4564 9.76214C9.53445 9.20874 9.78591 8.42875 10.2878 7.79915C10.7765 7.18619 11.5016 6.71223 12.5844 6.71223V5.71223ZM36.802 5.71223H12.5844V6.71223H36.802V5.71223ZM41.6344 9.61629C41.5259 8.91133 41.1619 7.94245 40.3998 7.14257C39.6246 6.32893 38.4571 5.71223 36.802 5.71223V6.71223C38.1821 6.71223 39.0884 7.21583 39.6758 7.83237C40.2763 8.46266 40.5638 9.23383 40.646 9.76835L41.6344 9.61629ZM41.7365 10.016L41.6253 9.57105L40.6551 9.81359L40.7664 10.2585L41.7365 10.016ZM41.7234 9.98863C41.7204 9.98139 41.7294 10.0018 41.7367 10.0284C41.7451 10.0588 41.7514 10.0958 41.7514 10.1373H40.7514C40.7514 10.262 40.7923 10.354 40.7995 10.3713L41.7234 9.98863ZM41.7673 10.2008C41.7673 10.1288 41.7524 10.0721 41.7425 10.0406C41.7374 10.0245 41.7325 10.0115 41.7294 10.0036C41.7266 9.99628 41.7238 9.98962 41.7234 9.98867L40.7994 10.3712C40.8031 10.38 40.7954 10.3624 40.7887 10.341C40.7809 10.3164 40.7673 10.2663 40.7673 10.2008H41.7673ZM41.9664 11.2902L41.7598 10.1143L40.7749 10.2873L40.9815 11.4633L41.9664 11.2902ZM63.4598 0.436721L41.2603 10.9247L41.6875 11.8288L63.887 1.34089L63.4598 0.436721ZM64.509 0.386154C64.158 0.260787 63.7841 0.287039 63.4639 0.434827L63.8829 1.34279C63.9759 1.29988 64.0787 1.29435 64.1726 1.3279L64.509 0.386154ZM65.2874 1.09244C65.1342 0.76045 64.8544 0.509501 64.509 0.386155L64.1726 1.3279C64.2722 1.36346 64.342 1.43033 64.3794 1.5115L65.2874 1.09244ZM71.5309 14.3579L65.2858 1.08904L64.381 1.51489L70.6261 14.7837L71.5309 14.3579ZM81.6618 14.0708H71.0785V15.0708H81.6618V14.0708ZM85.0823 15.4885C84.1782 14.5844 82.9387 14.0708 81.6618 14.0708V15.0708C82.6732 15.0708 83.6584 15.4789 84.3752 16.1956L85.0823 15.4885ZM81.6459 16.8029C82.2126 16.8029 82.7369 17.0205 83.1357 17.4192L83.8428 16.7121C83.2563 16.1256 82.4776 15.8029 81.6459 15.8029V16.8029ZM71.8731 16.8029H81.6459V15.8029H71.8731V16.8029ZM74.2955 20.2524L72.325 16.089L71.4211 16.5168L73.3916 20.6802L74.2955 20.2524ZM79.882 19.9663H73.8435V20.9663H79.882V19.9663ZM80.8553 20.367C80.603 20.1147 80.2535 19.9663 79.882 19.9663V20.9663C79.9872 20.9663 80.0827 21.0086 80.1482 21.0741L80.8553 20.367ZM81.256 21.3403C81.256 20.9765 81.1021 20.6377 80.8717 20.3842L80.1318 21.0569C80.2192 21.153 80.256 21.2592 80.256 21.3403H81.256ZM81.256 25.8533V21.3403H80.256V25.8533H81.256ZM81.6459 25.3533H80.756V26.3533H81.6459V25.3533ZM84.5506 26.3263C83.7207 25.7083 82.6951 25.3533 81.6459 25.3533V26.3533C82.4719 26.3533 83.2895 26.634 83.9534 27.1283L84.5506 26.3263ZM83.752 18.909V26.7273H84.752V18.909H83.752ZM83.1357 17.4192C83.5333 17.8168 83.752 18.3566 83.752 18.909H84.752C84.752 18.0948 84.4304 17.2997 83.8428 16.7121L83.1357 17.4192ZM10.0175 25.8533V22.1984H9.01748V25.8533H10.0175ZM79.0239 25.3533H9.51748V26.3533H79.0239V25.3533ZM78.5239 22.1984V25.8533H79.5239V22.1984H78.5239ZM9.51748 22.6984H79.0239V21.6984H9.51748V22.6984ZM71.9366 19.9663H26.2982V20.9663H71.9366V19.9663ZM63.1734 3.0406L71.4843 20.6794L72.3889 20.2532L64.078 2.61437L63.1734 3.0406ZM26.5118 20.9184L63.8393 3.27956L63.4121 2.37542L26.0846 20.0142L26.5118 20.9184ZM3.84841 17.4192C4.24603 17.0216 4.78575 16.8029 5.33819 16.8029V15.8029C4.52402 15.8029 3.72892 16.1245 3.14131 16.7121L3.84841 17.4192ZM3.2321 18.9408C3.2321 18.3414 3.4662 17.8014 3.84841 17.4192L3.14131 16.7121C2.57007 17.2833 2.2321 18.0783 2.2321 18.9408H3.2321ZM3.2321 26.7591V18.9408H2.2321V26.7591H3.2321ZM5.33819 25.3851C4.27745 25.3851 3.26425 25.7216 2.42806 26.3621L3.03614 27.156C3.69368 26.6524 4.49204 26.3851 5.33819 26.3851V25.3851ZM7.76949 25.3851H5.33819V26.3851H7.76949V25.3851ZM7.26949 21.3721V25.8851H8.26949V21.3721H7.26949ZM8.64348 19.9981C7.89657 19.9981 7.26949 20.5974 7.26949 21.3721H8.26949C8.26949 21.1615 8.43695 20.9981 8.64348 20.9981V19.9981ZM22.246 19.9981H8.64348V20.9981H22.246V19.9981ZM39.6075 11.7352L22.0323 20.0461L22.4598 20.9501L40.035 12.6392L39.6075 11.7352ZM39.0428 10.6532L39.3289 12.2741L40.3137 12.1003L40.0276 10.4794L39.0428 10.6532ZM38.938 10.2228L39.0492 10.6836L40.0213 10.449L39.91 9.98816L38.938 10.2228ZM38.931 10.179C38.9336 10.1895 38.9318 10.183 38.9301 10.1738C38.9281 10.163 38.924 10.1384 38.924 10.1055H39.924C39.924 10.0173 39.9022 9.94075 39.9011 9.93659L38.931 10.179ZM38.9081 10.0101C38.9081 10.0984 38.93 10.175 38.931 10.1791L39.9011 9.93648C39.8985 9.92598 39.9003 9.93257 39.902 9.94178C39.904 9.95259 39.9081 9.97721 39.9081 10.0101H38.9081ZM36.802 8.492C37.7634 8.492 38.2618 8.86982 38.5368 9.22806C38.8302 9.61038 38.9036 10.0189 38.9139 10.0862L39.9023 9.93411C39.8809 9.79479 39.7715 9.19425 39.33 8.61915C38.87 8.01996 38.0812 7.492 36.802 7.492V8.492ZM12.5685 8.492H36.802V7.492H12.5685V8.492ZM11.158 10.056C11.1707 9.97175 11.2355 9.55228 11.4588 9.16382C11.6718 8.79325 11.9985 8.492 12.5685 8.492V7.492C11.5341 7.492 10.9229 8.08942 10.5918 8.66551C10.2709 9.22372 10.1855 9.79894 10.1692 9.90671L11.158 10.056ZM11.1548 10.0765C11.1561 10.0689 11.1574 10.0597 11.158 10.0561L10.1692 9.90668C10.1687 9.90978 10.1685 9.91162 10.1683 9.91304C10.168 9.91473 10.1681 9.91392 10.1684 9.91202L11.1548 10.0765ZM11.1616 9.99426V9.99425H10.1616V9.99426H11.1616ZM11.0929 10.3291C11.1711 10.1729 11.1616 10.0155 11.1616 9.99426H10.1616C10.1616 10.0076 10.1616 10.0122 10.1615 10.0151C10.1615 10.0173 10.1615 10.0112 10.1627 10.0006C10.1639 9.98932 10.1666 9.97155 10.1725 9.94984C10.1786 9.92753 10.1872 9.90453 10.1985 9.88187L11.0929 10.3291ZM10.4316 13.0235L11.1308 10.2268L10.1607 9.98421L9.46146 12.781L10.4316 13.0235ZM10.3779 13.1576L10.3938 13.1259L9.49931 12.6787L9.48342 12.7105L10.3779 13.1576ZM6.13273 16.8029C6.87649 16.8029 7.72936 16.6983 8.51711 16.141C9.30443 15.584 9.95378 14.6274 10.4103 13.0751L9.45096 12.793C9.03351 14.2123 8.4831 14.9401 7.93957 15.3246C7.39646 15.7089 6.78737 15.8029 6.13273 15.8029V16.8029ZM5.33819 16.8029H6.13273V15.8029H5.33819V16.8029ZM83.752 81.646C83.752 82.2127 83.5345 82.737 83.1357 83.1357L83.8428 83.8428C84.4293 83.2564 84.752 82.4776 84.752 81.646H83.752ZM84.2361 82.146H84.252V81.146H84.2361V82.146ZM83.7361 30.2074V81.646H84.7361V30.2074H83.7361ZM83.1198 28.7176C83.5174 29.1152 83.7361 29.6549 83.7361 30.2074H84.7361C84.7361 29.3932 84.4145 28.5981 83.8269 28.0105L83.1198 28.7176ZM81.63 28.1013C82.1967 28.1013 82.721 28.3188 83.1198 28.7176L83.8269 28.0105C83.2404 27.424 82.4617 27.1013 81.63 27.1013V28.1013ZM79.882 28.1013H81.63V27.1013H79.882V28.1013ZM5.33819 28.1013H79.882V27.1013H5.33819V28.1013ZM3.84841 28.7176C4.24603 28.32 4.78575 28.1013 5.33819 28.1013V27.1013C4.52402 27.1013 3.72892 27.4229 3.14131 28.0105L3.84841 28.7176ZM3.2321 30.2074C3.2321 29.6407 3.44965 29.1163 3.84841 28.7176L3.14131 28.0105C2.55483 28.597 2.2321 29.3757 2.2321 30.2074H3.2321ZM3.2321 81.646V30.2074H2.2321V81.646H3.2321ZM3.84841 83.1357C3.45079 82.7381 3.2321 82.1984 3.2321 81.646H2.2321C2.2321 82.4601 2.5537 83.2552 3.14131 83.8428L3.84841 83.1357ZM5.33819 83.752C4.77148 83.752 4.24717 83.5345 3.84841 83.1357L3.14131 83.8428C3.72778 84.4293 4.50651 84.752 5.33819 84.752V83.752ZM81.6459 83.752H5.33819V84.752H81.6459V83.752ZM83.1357 83.1357C82.7381 83.5334 82.1983 83.752 81.6459 83.752V84.752C82.4601 84.752 83.2552 84.4305 83.8428 83.8428L83.1357 83.1357ZM76.9581 64.2857H46.5431V65.2857H76.9581V64.2857ZM77.9142 64.67C77.6608 64.4396 77.322 64.2857 76.9581 64.2857V65.2857C77.0392 65.2857 77.1454 65.3225 77.2415 65.4099L77.9142 64.67ZM78.3321 65.6597C78.3321 65.2959 78.1782 64.9571 77.9478 64.7036L77.2079 65.3763C77.2953 65.4725 77.3321 65.5786 77.3321 65.6597H78.3321ZM78.3321 76.6085V65.6597H77.3321V76.6085H78.3321ZM77.9314 77.5818C78.1837 77.3295 78.3321 76.98 78.3321 76.6085H77.3321C77.3321 76.7137 77.2898 76.8092 77.2243 76.8747L77.9314 77.5818ZM76.9581 77.9825C77.322 77.9825 77.6608 77.8286 77.9142 77.5982L77.2415 76.8583C77.1454 76.9457 77.0392 76.9825 76.9581 76.9825V77.9825ZM46.5431 77.9825H76.9581V76.9825H46.5431V77.9825ZM45.1691 76.6085C45.1691 77.3554 45.7684 77.9825 46.5431 77.9825V76.9825C46.3325 76.9825 46.1691 76.815 46.1691 76.6085H45.1691ZM45.1691 65.6597V76.6085H46.1691V65.6597H45.1691ZM46.5431 64.2857C45.7962 64.2857 45.1691 64.885 45.1691 65.6597H46.1691C46.1691 65.4492 46.3366 65.2857 46.5431 65.2857V64.2857ZM76.0841 75.2345H47.4012V76.2345H76.0841V75.2345ZM75.5841 66.5178V75.7345H76.5841V66.5178H75.5841ZM47.4012 67.0178H76.0841V66.0178H47.4012V67.0178ZM47.9012 75.7345V66.5178H46.9012V75.7345H47.9012Z" fill="#48EBDC"/>
</svg>
