<svg width="78" height="82" viewBox="0 0 78 82" fill="none" xmlns="http://www.w3.org/2000/svg">
<path fill-rule="evenodd" clip-rule="evenodd" d="M67.6708 6.84104C70.2593 6.84104 72.6398 7.90417 74.35 9.61443C76.0603 11.3247 77.1465 13.6821 77.1003 16.2937V72.5474C77.1003 75.1358 76.0372 77.5163 74.3269 79.2266C72.6167 80.9369 70.2593 82 67.6477 82H9.45265C6.86415 82 4.48365 80.9369 2.77339 79.2266C1.06313 77.5163 0 75.159 0 72.5474V16.2937C0 13.6821 1.06313 11.3247 2.7965 9.61443C4.50676 7.90417 6.86415 6.84104 9.47576 6.84104H15.1612V1.52537C15.1612 0.670237 15.8314 0 16.6866 0C17.5417 0 18.2119 0.693348 18.2119 1.52537V6.84104H58.9346V1.52537C58.9346 0.670237 59.5817 0 60.4368 0C61.292 0 61.9622 0.693348 61.9622 1.52537V6.84104H67.6708ZM72.2007 77.1003C73.3793 75.9217 74.0958 74.3038 74.0958 72.5474V24.845H3.02762V72.5474C3.02762 74.3269 3.76719 75.9448 4.92277 77.1003C6.10146 78.279 7.71928 78.9955 9.47576 78.9955H67.6477C69.4273 78.9955 71.022 78.279 72.2007 77.1003ZM3.02762 21.8174H74.0958H74.142V16.2937C74.142 14.5141 73.4025 12.8963 72.2469 11.7407C71.0682 10.562 69.4504 9.84555 67.6939 9.84555H61.9853V15.1612C61.9853 16.0163 61.3151 16.6866 60.46 16.6866C59.6048 16.6866 58.9346 15.9932 58.9346 15.1612V9.84555H18.2351V15.1612C18.2351 16.0163 17.5648 16.6866 16.7097 16.6866C15.8546 16.6866 15.1843 15.9932 15.1843 15.1612V9.84555H9.47576C7.69616 9.84555 6.07835 10.5851 4.92277 11.7407C3.74408 12.9194 3.02762 14.5372 3.02762 16.2937V21.8174ZM47.2401 36.4241C47.2401 37.7414 46.177 38.8046 44.8596 38.8046C43.5423 38.8046 42.4791 37.7414 42.4791 36.4241C42.4791 35.1067 43.5423 34.0436 44.8596 34.0436C46.177 34.0436 47.2401 35.1067 47.2401 36.4241ZM32.2638 36.4468C32.2638 37.7615 31.1981 38.8273 29.8834 38.8273C28.5686 38.8273 27.5029 37.7615 27.5029 36.4468C27.5029 35.1321 28.5686 34.0663 29.8834 34.0663C31.1981 34.0663 32.2638 35.1321 32.2638 36.4468ZM59.8129 38.8273C61.1276 38.8273 62.1934 37.7615 62.1934 36.4468C62.1934 35.1321 61.1276 34.0663 59.8129 34.0663C58.4981 34.0663 57.4324 35.1321 57.4324 36.4468C57.4324 37.7615 58.4981 38.8273 59.8129 38.8273ZM17.3106 51.3772C17.3106 52.6945 16.2475 53.7577 14.9301 53.7577C13.6128 53.7577 12.5496 52.6945 12.5496 51.3772C12.5496 50.0598 13.6128 48.9967 14.9301 48.9967C16.2475 48.9967 17.3106 50.0598 17.3106 51.3772ZM29.8833 53.7577C31.2007 53.7577 32.2638 52.6945 32.2638 51.3772C32.2638 50.0598 31.2007 48.9967 29.8833 48.9967C28.566 48.9967 27.5029 50.0598 27.5029 51.3772C27.5029 52.6945 28.5891 53.7577 29.8833 53.7577ZM47.2401 51.3772C47.2401 52.6945 46.177 53.7577 44.8596 53.7577C43.5423 53.7577 42.4791 52.6945 42.4791 51.3772C42.4791 50.0598 43.5423 48.9967 44.8596 48.9967C46.177 48.9967 47.2401 50.0598 47.2401 51.3772ZM59.8129 53.7577C61.1302 53.7577 62.1934 52.6945 62.1934 51.3772C62.1934 50.0598 61.1302 48.9967 59.8129 48.9967C58.4955 48.9967 57.4324 50.0598 57.4324 51.3772C57.4324 52.6945 58.4955 53.7577 59.8129 53.7577ZM17.3106 66.3068C17.3106 67.6215 16.2448 68.6873 14.9301 68.6873C13.6154 68.6873 12.5496 67.6215 12.5496 66.3068C12.5496 64.9921 13.6154 63.9263 14.9301 63.9263C16.2448 63.9263 17.3106 64.9921 17.3106 66.3068ZM29.8834 68.6873C31.1981 68.6873 32.2638 67.6215 32.2638 66.3068C32.2638 64.9921 31.1981 63.9263 29.8834 63.9263C28.5686 63.9263 27.5029 64.9921 27.5029 66.3068C27.5029 67.6215 28.5686 68.6873 29.8834 68.6873ZM47.2401 66.3068C47.2401 67.6242 46.177 68.6873 44.8596 68.6873C43.5423 68.6873 42.4791 67.6242 42.4791 66.3068C42.4791 64.9894 43.5423 63.9263 44.8596 63.9263C46.177 63.9263 47.2401 64.9894 47.2401 66.3068ZM59.8129 68.6873C61.1276 68.6873 62.1934 67.6215 62.1934 66.3068C62.1934 64.9921 61.1276 63.9263 59.8129 63.9263C58.4981 63.9263 57.4324 64.9921 57.4324 66.3068C57.4324 67.6215 58.4981 68.6873 59.8129 68.6873Z" fill="#48EBDC"/>
</svg>
