<svg width="75" height="85" viewBox="0 0 75 85" fill="none" xmlns="http://www.w3.org/2000/svg">
<path d="M69.5824 69.1413C69.4977 69.1072 69.4131 69.0561 69.3623 68.9709C69.3454 68.9369 69.3284 68.9028 69.3115 68.8687C68.9052 67.7104 68.2619 66.6713 67.3984 65.8026L51.3149 49.6202C51.0948 49.3988 50.8409 49.1774 50.5192 48.9389C50.4176 48.8537 50.3499 48.7345 50.3499 48.5982V35.8908C50.3499 34.2896 49.8081 32.7054 48.8262 31.4449L40.0226 20.1683C39.9718 20.1002 39.9379 19.998 39.9379 19.9128V12.9289C39.9379 12.6904 40.1242 12.503 40.3612 12.503C43.2731 12.503 45.6264 10.1182 45.6264 7.20541V5.2976C45.6264 2.38477 43.2562 0 40.3612 0H10.0056C7.11061 0 4.74041 2.38477 4.74041 5.2976V7.20541C4.74041 10.1182 7.11061 12.503 10.0056 12.503C10.2427 12.503 10.4289 12.6904 10.4289 12.9289V19.8958C10.4289 19.998 10.395 20.0832 10.3442 20.1513L1.5237 31.4449C0.541761 32.7054 0 34.2896 0 35.8908V77.7946C0 81.7635 3.2167 85 7.1614 85H66.8905C71.36 85 75 81.3377 75 76.8407C75 73.3998 72.816 70.2996 69.5824 69.1413ZM58.307 61.0331C58.4255 61.0331 58.5271 61.0842 58.6117 61.1523L65.2822 67.8808C65.3668 67.9489 65.4176 68.0341 65.4345 68.0681C65.5023 68.2044 65.4853 68.3577 65.4176 68.477C65.333 68.5962 65.1975 68.6814 65.0621 68.6814H51.6704C51.5519 68.6814 51.4503 68.6303 51.3657 68.5621L51.3149 68.511C51.2303 68.4259 51.1964 68.3236 51.1964 68.2044C51.1964 68.0852 51.2472 67.983 51.3149 67.8978L58.0192 61.1523C58.0869 61.0842 58.2054 61.0331 58.307 61.0331ZM49.2156 51.7154L55.9199 58.4609C56.0045 58.5461 56.0384 58.6483 56.0384 58.7675C56.0384 58.8868 55.9876 58.989 55.9199 59.0742L49.2156 65.8196C49.1309 65.9048 49.0293 65.9389 48.9108 65.9389C48.7923 65.9389 48.6907 65.9048 48.6061 65.8196L41.9018 59.0742C40.9199 58.0862 40.3781 56.7916 40.3781 55.3948C40.3781 53.998 40.9199 52.7034 41.9018 51.7325C42.8668 50.7615 44.1535 50.2164 45.5418 50.2164C46.947 50.1994 48.2506 50.7445 49.2156 51.7154ZM10.0056 9.53908C8.71896 9.53908 7.68623 8.5 7.68623 7.20541V7.18838V5.2976C7.68623 4.00301 8.71896 2.96393 10.0056 2.96393H40.3442C41.6309 2.96393 42.6637 4.00301 42.6637 5.2976V7.20541C42.6637 8.5 41.6309 9.53908 40.3442 9.53908H10.0056ZM36.9752 12.9289V18.6523C36.9752 18.8908 36.7889 19.0782 36.5519 19.0782H13.798C13.5609 19.0782 13.3747 18.8908 13.3747 18.6523V12.9289C13.3747 12.6904 13.5609 12.503 13.798 12.503H36.5519C36.7889 12.503 36.9752 12.6904 36.9752 12.9289ZM11.5632 61.0501H3.36907C3.13205 61.0501 2.94582 60.8627 2.94582 60.6242V52.993C2.94582 52.7545 3.13205 52.5671 3.36907 52.5671H14.9492C15.7619 52.5671 16.4221 51.9028 16.4221 51.0852C16.4221 50.2675 15.7619 49.6032 14.9492 49.6032H3.36907C3.13205 49.6032 2.94582 49.4158 2.94582 49.1774V41.5461C2.94582 41.3076 3.13205 41.1202 3.36907 41.1202H26.123C26.36 41.1202 26.5463 41.3076 26.5463 41.5461V72.0711C26.5463 72.3096 26.36 72.497 26.123 72.497H3.36907C3.25056 72.497 3.14898 72.4459 3.06433 72.3778C2.97968 72.2926 2.94582 72.1904 2.94582 72.0711V64.4399C2.94582 64.2014 3.13205 64.014 3.36907 64.014H11.5632C12.3758 64.014 13.0361 63.3497 13.0361 62.5321C13.0361 61.7144 12.3758 61.0501 11.5632 61.0501ZM37.3984 81.3717C37.5169 81.5591 37.4831 81.7976 37.3138 81.9339C37.246 82.002 37.1445 82.0361 37.0429 82.0361H7.1614C4.84199 82.0361 2.94582 80.1283 2.94582 77.7946V75.8868C2.94582 75.6483 3.13205 75.4609 3.36907 75.4609H28.0192C28.8318 75.4609 29.4921 74.7966 29.4921 73.979V39.6383C29.4921 38.8206 28.8318 38.1563 28.0192 38.1563H3.36907C3.13205 38.1563 2.94582 37.9689 2.94582 37.7305V35.8908C2.94582 34.9369 3.26749 34.017 3.84312 33.2675L12.4944 22.1954C12.579 22.0932 12.6975 22.0251 12.833 22.0251H37.5339C37.6693 22.0251 37.7878 22.0932 37.8725 22.1954L46.5068 33.2675C47.0993 34.017 47.421 34.9539 47.421 35.8908V46.9289C47.421 47.0481 47.3702 47.1673 47.2686 47.2525C47.167 47.3377 47.0485 47.3717 46.93 47.3547C44.3397 46.9289 41.6817 47.7635 39.8533 49.6202C38.3126 51.1703 37.4661 53.2144 37.4661 55.3948C37.4661 57.5752 38.3126 59.6192 39.8533 61.1693L46.6084 67.9659C46.7269 68.0852 46.7607 68.2726 46.693 68.4259C46.6253 68.5792 46.4729 68.6814 46.3036 68.6814H44.1535C39.684 68.6814 36.044 72.3437 36.044 76.8407C36.0271 78.4589 36.5011 80.0261 37.3984 81.3717ZM54.0406 81.6102C54.0406 81.8487 53.8544 82.0361 53.6174 82.0361H44.1366C41.2923 82.0361 38.9729 79.7024 38.9729 76.8407C38.9729 73.979 41.2923 71.6453 44.1366 71.6453H53.6174C53.8544 71.6453 54.0406 71.8327 54.0406 72.0711V81.6102ZM66.8905 82.0361H57.4097C57.1727 82.0361 56.9865 81.8487 56.9865 81.6102V72.0711C56.9865 71.8327 57.1727 71.6453 57.4097 71.6453H66.8905C69.7348 71.6453 72.0542 73.979 72.0542 76.8407C72.0542 79.7024 69.7348 82.0361 66.8905 82.0361Z" fill="#48EBDC"/>
</svg>
