<svg width="81" height="84" viewBox="0 0 81 84" fill="none" xmlns="http://www.w3.org/2000/svg">
<path fill-rule="evenodd" clip-rule="evenodd" d="M69.535 1.00039C71.3124 0.984931 73.0743 1.43313 74.6507 2.34499C77.7727 4.15325 79.6891 7.47613 79.6737 11.0772V22.7304C79.6737 23.055 79.55 23.3486 79.3337 23.565C79.1173 23.7814 78.8236 23.905 78.5145 23.905H61.8692V81.723C61.8692 82.0476 61.7611 82.3413 61.5292 82.5576C61.2974 82.774 61.0038 82.8976 60.6946 82.8976H1.73295C1.08383 82.8976 0.55835 82.3722 0.55835 81.723V72.1872V71.1517V62.9604V59.5757V51.3844V47.907V14.5083C0.55835 10.9226 1.98023 7.49158 4.51489 4.95692C7.04955 2.42227 10.4806 1.00039 14.0662 1.00039H69.535ZM2.89209 72.1717V80.533H59.5201V22.8386V22.7304V11.0772C59.5201 8.06343 60.8801 5.23512 63.152 3.33413H14.0662C11.0988 3.33413 8.25505 4.52418 6.1686 6.61063C4.06669 8.71254 2.89209 11.5409 2.89209 14.5083V72.1717ZM61.8692 21.5713H77.3554H77.3708V11.0927C77.3708 8.32617 75.8871 5.7606 73.4916 4.38508C72.2861 3.70505 70.9569 3.34958 69.6278 3.34958H69.6123H69.5814C68.2677 3.34958 66.9386 3.70505 65.7485 4.38508C63.3375 5.77605 61.8692 8.32617 61.8692 11.0927V21.5713ZM9.72329 44.275H51.236C51.8851 44.275 52.4106 44.8005 52.4106 45.4496C52.4106 46.0987 51.8851 46.6242 51.236 46.6242H9.72329C9.07417 46.6242 8.54869 46.0987 8.54869 45.4496C8.54869 44.8005 9.07417 44.275 9.72329 44.275ZM51.236 32H9.72329C9.07417 32 8.54869 32.5255 8.54869 33.1746C8.54869 33.8237 9.07417 34.3492 9.72329 34.3492H51.236C51.8851 34.3492 52.4106 33.8237 52.4106 33.1746C52.4106 32.5255 51.8851 32 51.236 32ZM9.72329 20H31.236C31.8851 20 32.4106 20.5255 32.4106 21.1746C32.4106 21.8237 31.8851 22.3492 31.236 22.3492H9.72329C9.07417 22.3492 8.54869 21.8237 8.54869 21.1746C8.54869 20.5255 9.07417 20 9.72329 20ZM51.236 56.562H9.72329C9.07417 56.562 8.5487 57.0874 8.5487 57.7365C8.5487 58.3857 9.07417 58.9111 9.72329 58.9111H51.236C51.8852 58.9111 52.4106 58.3857 52.4106 57.7365C52.4106 57.072 51.8852 56.562 51.236 56.562ZM9.72329 68.8334H51.236C51.8852 68.8334 52.4106 69.3589 52.4106 70.008C52.4106 70.6571 51.8852 71.1826 51.236 71.1826H9.72329C9.07417 71.1826 8.5487 70.6571 8.5487 70.008C8.5487 69.3589 9.07417 68.8334 9.72329 68.8334Z" fill="#48EBDC"/>
<path d="M74.6507 2.34499L74.9013 1.91233L74.9011 1.91218L74.6507 2.34499ZM69.535 1.00039V1.50041L69.5394 1.50037L69.535 1.00039ZM79.6737 11.0772L79.1737 11.075V11.0772H79.6737ZM79.3337 23.565L78.9801 23.2115V23.2115L79.3337 23.565ZM61.8692 23.905V23.405H61.3692V23.905H61.8692ZM61.5292 82.5576L61.1881 82.1921L61.1881 82.1921L61.5292 82.5576ZM4.51489 4.95692L4.16134 4.60337V4.60337L4.51489 4.95692ZM2.89209 80.533H2.39209V81.033H2.89209V80.533ZM59.5201 80.533V81.033H60.0201V80.533H59.5201ZM63.152 3.33413L63.4729 3.71759L64.5287 2.83413H63.152V3.33413ZM6.1686 6.61063L5.81504 6.25708L6.1686 6.61063ZM61.8692 21.5713H61.3692V22.0713H61.8692V21.5713ZM77.3708 21.5713V22.0713H77.8708V21.5713H77.3708ZM73.4916 4.38508L73.7406 3.95146L73.7372 3.94959L73.4916 4.38508ZM65.7485 4.38508L65.5004 3.95096L65.4986 3.95199L65.7485 4.38508ZM74.9011 1.91218C73.2456 0.954586 71.3954 0.48419 69.5307 0.500405L69.5394 1.50037C71.2293 1.48567 72.903 1.91168 74.4004 2.7778L74.9011 1.91218ZM80.1737 11.0793C80.1899 7.29792 78.1773 3.80978 74.9013 1.91233L74.4001 2.77766C77.3681 4.49673 79.1884 7.65433 79.1737 11.075L80.1737 11.0793ZM80.1737 22.7304V11.0772H79.1737V22.7304H80.1737ZM79.6872 23.9186C79.9988 23.607 80.1737 23.1856 80.1737 22.7304H79.1737C79.1737 22.9244 79.1013 23.0903 78.9801 23.2115L79.6872 23.9186ZM78.5145 24.405C78.9577 24.405 79.3781 24.2276 79.6872 23.9186L78.9801 23.2115C78.8564 23.3351 78.6895 23.405 78.5145 23.405V24.405ZM61.8692 24.405H78.5145V23.405H61.8692V24.405ZM62.3692 81.723V23.905H61.3692V81.723H62.3692ZM61.8704 82.9232C62.2198 82.597 62.3692 82.1622 62.3692 81.723H61.3692C61.3692 81.933 61.3023 82.0855 61.1881 82.1921L61.8704 82.9232ZM60.6946 83.3976C61.1406 83.3976 61.5537 83.2187 61.8704 82.9231L61.1881 82.1921C61.0411 82.3293 60.8669 82.3976 60.6946 82.3976V83.3976ZM1.73295 83.3976H60.6946V82.3976H1.73295V83.3976ZM0.0583496 81.723C0.0583496 82.6483 0.807681 83.3976 1.73295 83.3976V82.3976C1.35997 82.3976 1.05835 82.096 1.05835 81.723H0.0583496ZM0.0583496 72.1872V81.723H1.05835V72.1872H0.0583496ZM0.0583496 71.1517V72.1872H1.05835V71.1517H0.0583496ZM0.0583496 62.9604V71.1517H1.05835V62.9604H0.0583496ZM0.0583496 59.5757V62.9604H1.05835V59.5757H0.0583496ZM0.0583496 51.3844V59.5757H1.05835V51.3844H0.0583496ZM0.0583496 47.907V51.3844H1.05835V47.907H0.0583496ZM0.0583496 14.5083V47.907H1.05835V14.5083H0.0583496ZM4.16134 4.60337C1.53294 7.23177 0.0583496 10.79 0.0583496 14.5083H1.05835C1.05835 11.0553 2.42752 7.7514 4.86844 5.31048L4.16134 4.60337ZM14.0662 0.500386C10.348 0.500386 6.78973 1.97498 4.16134 4.60337L4.86844 5.31048C7.30936 2.86956 10.6133 1.50039 14.0662 1.50039V0.500386ZM69.535 0.500386H14.0662V1.50039H69.535V0.500386ZM3.39209 80.533V72.1717H2.39209V80.533H3.39209ZM59.5201 80.033H2.89209V81.033H59.5201V80.033ZM59.0201 22.8386V80.533H60.0201V22.8386H59.0201ZM59.0201 22.7304V22.8386H60.0201V22.7304H59.0201ZM59.0201 11.0772V22.7304H60.0201V11.0772H59.0201ZM62.8312 2.95066C60.4481 4.94468 59.0201 7.91234 59.0201 11.0772H60.0201C60.0201 8.21451 61.3122 5.52556 63.4729 3.71759L62.8312 2.95066ZM14.0662 3.83413H63.152V2.83413H14.0662V3.83413ZM6.52215 6.96419C8.51554 4.9708 11.2324 3.83413 14.0662 3.83413V2.83413C10.9652 2.83413 7.99457 4.07756 5.81504 6.25708L6.52215 6.96419ZM3.39209 14.5083C3.39209 11.6739 4.51367 8.97267 6.52215 6.96419L5.81504 6.25708C3.6197 8.45242 2.39209 11.4078 2.39209 14.5083H3.39209ZM3.39209 72.1717V14.5083H2.39209V72.1717H3.39209ZM77.3554 21.0713H61.8692V22.0713H77.3554V21.0713ZM77.3708 21.0713H77.3554V22.0713H77.3708V21.0713ZM76.8708 11.0927V21.5713H77.8708V11.0927H76.8708ZM73.2426 4.81869C75.4826 6.10487 76.8708 8.50488 76.8708 11.0927H77.8708C77.8708 8.14745 76.2917 5.41632 73.7405 3.95148L73.2426 4.81869ZM69.6278 3.84958C70.8675 3.84958 72.1124 4.18115 73.2459 4.82057L73.7372 3.94959C72.4597 3.22895 71.0463 2.84958 69.6278 2.84958V3.84958ZM69.6123 3.84958H69.6278V2.84958H69.6123V3.84958ZM69.5814 3.84958H69.6123V2.84958H69.5814V3.84958ZM65.9966 4.8192C67.1133 4.18109 68.3572 3.84958 69.5814 3.84958V2.84958C68.1782 2.84958 66.7638 3.22901 65.5004 3.95096L65.9966 4.8192ZM62.3692 11.0927C62.3692 8.50489 63.7421 6.11987 65.9984 4.81817L65.4986 3.95199C62.9329 5.43224 61.3692 8.14744 61.3692 11.0927H62.3692ZM62.3692 21.5713V11.0927H61.3692V21.5713H62.3692ZM51.236 43.775H9.72329V44.775H51.236V43.775ZM52.9106 45.4496C52.9106 44.5244 52.1613 43.775 51.236 43.775V44.775C51.609 44.775 51.9106 45.0766 51.9106 45.4496H52.9106ZM51.236 47.1242C52.1613 47.1242 52.9106 46.3749 52.9106 45.4496H51.9106C51.9106 45.8226 51.609 46.1242 51.236 46.1242V47.1242ZM9.72329 47.1242H51.236V46.1242H9.72329V47.1242ZM8.04869 45.4496C8.04869 46.3749 8.79803 47.1242 9.72329 47.1242V46.1242C9.35031 46.1242 9.04869 45.8226 9.04869 45.4496H8.04869ZM9.72329 43.775C8.79803 43.775 8.04869 44.5244 8.04869 45.4496H9.04869C9.04869 45.0766 9.35031 44.775 9.72329 44.775V43.775ZM9.72329 32.5H51.236V31.5H9.72329V32.5ZM9.04869 33.1746C9.04869 32.8016 9.35031 32.5 9.72329 32.5V31.5C8.79803 31.5 8.04869 32.2493 8.04869 33.1746H9.04869ZM9.72329 33.8492C9.35031 33.8492 9.04869 33.5476 9.04869 33.1746H8.04869C8.04869 34.0999 8.79803 34.8492 9.72329 34.8492V33.8492ZM51.236 33.8492H9.72329V34.8492H51.236V33.8492ZM51.9106 33.1746C51.9106 33.5476 51.609 33.8492 51.236 33.8492V34.8492C52.1613 34.8492 52.9106 34.0999 52.9106 33.1746H51.9106ZM51.236 32.5C51.609 32.5 51.9106 32.8016 51.9106 33.1746H52.9106C52.9106 32.2493 52.1613 31.5 51.236 31.5V32.5ZM31.236 19.5H9.72329V20.5H31.236V19.5ZM32.9106 21.1746C32.9106 20.2493 32.1613 19.5 31.236 19.5V20.5C31.609 20.5 31.9106 20.8016 31.9106 21.1746H32.9106ZM31.236 22.8492C32.1613 22.8492 32.9106 22.0999 32.9106 21.1746H31.9106C31.9106 21.5476 31.609 21.8492 31.236 21.8492V22.8492ZM9.72329 22.8492H31.236V21.8492H9.72329V22.8492ZM8.04869 21.1746C8.04869 22.0999 8.79802 22.8492 9.72329 22.8492V21.8492C9.35031 21.8492 9.04869 21.5476 9.04869 21.1746H8.04869ZM9.72329 19.5C8.79803 19.5 8.04869 20.2493 8.04869 21.1746H9.04869C9.04869 20.8016 9.35031 20.5 9.72329 20.5V19.5ZM9.72329 57.062H51.236V56.062H9.72329V57.062ZM9.0487 57.7365C9.0487 57.3636 9.35032 57.062 9.72329 57.062V56.062C8.79803 56.062 8.0487 56.8113 8.0487 57.7365H9.0487ZM9.72329 58.4111C9.35032 58.4111 9.0487 58.1095 9.0487 57.7365H8.0487C8.0487 58.6618 8.79803 59.4111 9.72329 59.4111V58.4111ZM51.236 58.4111H9.72329V59.4111H51.236V58.4111ZM51.9106 57.7365C51.9106 58.1095 51.609 58.4111 51.236 58.4111V59.4111C52.1613 59.4111 52.9106 58.6618 52.9106 57.7365H51.9106ZM51.236 57.062C51.6133 57.062 51.9106 57.3524 51.9106 57.7365H52.9106C52.9106 56.7915 52.157 56.062 51.236 56.062V57.062ZM51.236 68.3334H9.72329V69.3334H51.236V68.3334ZM52.9106 70.008C52.9106 69.0827 52.1613 68.3334 51.236 68.3334V69.3334C51.609 69.3334 51.9106 69.635 51.9106 70.008H52.9106ZM51.236 71.6826C52.1613 71.6826 52.9106 70.9332 52.9106 70.008H51.9106C51.9106 70.381 51.609 70.6826 51.236 70.6826V71.6826ZM9.72329 71.6826H51.236V70.6826H9.72329V71.6826ZM8.0487 70.008C8.0487 70.9332 8.79803 71.6826 9.72329 71.6826V70.6826C9.35032 70.6826 9.0487 70.381 9.0487 70.008H8.0487ZM9.72329 68.3334C8.79803 68.3334 8.0487 69.0827 8.0487 70.008H9.0487C9.0487 69.635 9.35032 69.3334 9.72329 69.3334V68.3334Z" fill="#48EBDC"/>
</svg>
