<svg width="90" height="88" viewBox="0 0 90 88" fill="none" xmlns="http://www.w3.org/2000/svg">
<path fill-rule="evenodd" clip-rule="evenodd" d="M45.123 40.7962C50.2718 40.7962 55.2155 38.7441 58.8719 35.1064C62.5096 31.4686 64.5617 26.525 64.5617 21.3575C64.5617 16.2087 62.5096 11.2651 58.8719 7.62733C55.2155 3.98957 50.2718 1.9375 45.123 1.9375C39.9742 1.9375 35.0306 3.98957 31.3742 7.62733C27.7364 11.2651 25.6843 16.2087 25.6843 21.3762C25.6843 26.5437 27.7364 31.4686 31.3742 35.125C35.0306 38.7441 39.9742 40.7962 45.123 40.7962ZM32.2696 8.52277C35.6835 5.10888 40.31 3.1874 45.123 3.1874C49.9361 3.1874 54.5625 5.10888 57.9764 8.50412C61.3903 11.918 63.2932 16.5445 63.2932 21.3575C63.2932 26.1706 61.3717 30.797 57.9578 34.2109C54.5439 37.6248 49.9361 39.5277 45.1044 39.5463C40.2913 39.5463 35.6649 37.6248 32.251 34.2296C28.8371 30.8157 26.9342 26.1892 26.9342 21.3762C26.9342 16.5631 28.8557 11.918 32.2696 8.52277ZM54.5252 20.7419H45.7573V8.8399H44.4888V21.9918H54.5252V20.7419ZM80.2321 76.3157V85.5127H89V86.7626H1.24609V85.5127H10.014V76.3157H2.71985V69.4133C2.71985 68.6857 3.01833 67.9955 3.52202 67.4918C4.02571 66.9881 4.71595 66.6896 5.44351 66.6896H5.85392V53.7429C5.85392 51.9147 6.58147 50.1611 7.86868 48.8739C9.15588 47.5867 10.9095 46.8592 12.7377 46.8592H16.9351C18.7633 46.8592 20.5169 47.5867 21.8041 48.8739C23.0913 50.1611 23.8188 51.9147 23.8188 53.7429V66.6896H24.2293C24.9568 66.6896 25.647 66.9881 26.1507 67.4918C26.6544 67.9955 26.9529 68.6857 26.9529 69.4133V70.8684H33.0158V69.4133C33.0158 68.6857 33.3143 67.9955 33.818 67.4918C34.3217 66.9881 35.0119 66.6896 35.7395 66.6896H36.1499V53.7429C36.1499 51.9147 36.8775 50.1611 38.1647 48.8739C39.4519 47.5867 41.2055 46.8592 43.0337 46.8592H47.2497C49.0779 46.8592 50.8315 47.5867 52.1187 48.8739C53.4059 50.1611 54.1335 51.9147 54.1335 53.7429V66.6896H54.5439C55.2715 66.6896 55.9617 66.9881 56.4654 67.4918C56.9691 67.9955 57.2676 68.6857 57.2676 69.4133V70.8684H63.3305V69.4133C63.3305 68.6857 63.629 67.9955 64.1327 67.4918C64.6363 66.9881 65.3266 66.6896 66.0541 66.6896H66.4646V53.7429C66.4646 51.9147 67.1921 50.1611 68.4793 48.8739C69.7665 47.5867 71.5201 46.8592 73.3483 46.8592H77.5271C79.3553 46.8592 81.1089 47.5867 82.3961 48.8739C83.6833 50.1611 84.4108 51.9147 84.4108 53.7429V66.6896H84.8212C85.5488 66.6896 86.239 66.9881 86.7427 67.4918C87.2464 67.9955 87.5449 68.6857 87.5449 69.4133V76.3157H80.2321ZM69.3561 49.7694C68.2928 50.8327 67.6958 52.2692 67.6958 53.7616L67.7144 66.7083H83.1796V53.7616C83.1796 52.2692 82.5826 50.8327 81.5193 49.7694C80.4559 48.706 79.0195 48.1091 77.5271 48.1091H73.3483C71.8559 48.1091 70.4194 48.706 69.3561 49.7694ZM64.9908 68.4059C64.711 68.6671 64.5617 69.0402 64.5617 69.4319L64.5431 75.0658H86.2763V69.4319C86.2763 69.0588 86.1271 68.6857 85.8473 68.4059C85.5861 68.1261 85.213 67.9768 84.8212 67.9768H66.0168C65.6437 67.9768 65.2706 68.1261 64.9908 68.4059ZM39.0601 49.7694C37.9968 50.8327 37.3998 52.2692 37.3998 53.7616L37.4185 66.7083H52.8836V53.7616C52.8836 52.2692 52.2866 50.8327 51.2233 49.7694C50.1599 48.706 48.7235 48.1091 47.2311 48.1091H43.0523C41.5599 48.1091 40.1235 48.706 39.0601 49.7694ZM34.6948 68.4059C34.415 68.6671 34.2657 69.0402 34.2657 69.4319V75.0658H55.9803V69.4319C55.9803 69.0588 55.8311 68.6857 55.5513 68.4059C55.2901 68.1261 54.917 67.9768 54.5252 67.9768H35.7208C35.3477 67.9768 34.9746 68.1261 34.6948 68.4059ZM8.76412 49.7694C7.70078 50.8327 7.10382 52.2692 7.10382 53.7616V66.7083H10.2752H10.6483H22.5689V53.7616C22.5689 52.2692 21.972 50.8327 20.9086 49.7694C19.8453 48.706 18.4088 48.1091 16.9164 48.1091H12.7563C11.2639 48.1091 9.82747 48.706 8.76412 49.7694ZM3.96975 69.4319V75.0658H25.6844V69.4319C25.6844 68.6297 25.0314 67.9768 24.2293 67.9768H10.6483H10.2752H5.42485C5.05175 67.9768 4.67864 68.1261 4.39882 68.4059C4.11899 68.6671 3.96975 69.0402 3.96975 69.4319ZM11.2826 76.3157V85.5127H18.3902V76.3157H11.2826ZM19.6401 76.3157V85.5127H40.3287V76.3157H33.0158V72.1369H26.9529V76.3157H19.6401ZM41.5786 76.3157V85.5127H48.6862V76.3157H41.5786ZM49.9361 76.3157V85.5127H70.6246V76.3157H63.3118V72.1369H57.2489V76.3157H49.9361ZM71.8745 76.3157V85.5127H78.9822V76.3157H71.8745Z" fill="#48EBDC"/>
<path d="M58.8719 35.1064L59.5772 35.8153L59.579 35.8135L58.8719 35.1064ZM58.8719 7.62733L59.579 6.92022L59.5772 6.91841L58.8719 7.62733ZM31.3742 7.62733L30.6689 6.91841L30.6671 6.92022L31.3742 7.62733ZM31.3742 35.125L30.6652 35.8304L30.6707 35.8358L31.3742 35.125ZM32.2696 8.52277L32.9748 9.23182L32.9767 9.22988L32.2696 8.52277ZM57.9764 8.50412L58.6835 7.79701L58.6816 7.79508L57.9764 8.50412ZM45.1044 39.5463V40.5463L45.1082 40.5463L45.1044 39.5463ZM32.251 34.2296L31.5438 34.9367L31.5458 34.9386L32.251 34.2296ZM45.7573 20.7419H44.7573V21.7419H45.7573V20.7419ZM54.5252 20.7419H55.5252V19.7419H54.5252V20.7419ZM45.7573 8.8399H46.7573V7.8399H45.7573V8.8399ZM44.4888 8.8399V7.8399H43.4888V8.8399H44.4888ZM44.4888 21.9918H43.4888V22.9918H44.4888V21.9918ZM54.5252 21.9918V22.9918H55.5252V21.9918H54.5252ZM80.2321 85.5127H79.2321V86.5127H80.2321V85.5127ZM80.2321 76.3157V75.3157H79.2321V76.3157H80.2321ZM89 85.5127H90V84.5127H89V85.5127ZM89 86.7626V87.7626H90V86.7626H89ZM1.24609 86.7626H0.246094V87.7626H1.24609V86.7626ZM1.24609 85.5127V84.5127H0.246094V85.5127H1.24609ZM10.014 85.5127V86.5127H11.014V85.5127H10.014ZM10.014 76.3157H11.014V75.3157H10.014V76.3157ZM2.71985 76.3157H1.71985V77.3157H2.71985V76.3157ZM3.52202 67.4918L2.81492 66.7847H2.81491L3.52202 67.4918ZM5.85392 66.6896V67.6896H6.85392V66.6896H5.85392ZM7.86868 48.8739L8.57578 49.581H8.57578L7.86868 48.8739ZM21.8041 48.8739L21.097 49.581H21.097L21.8041 48.8739ZM23.8188 66.6896H22.8188V67.6896H23.8188V66.6896ZM26.1507 67.4918L26.8578 66.7847H26.8578L26.1507 67.4918ZM26.9529 70.8684H25.9529V71.8684H26.9529V70.8684ZM33.0158 70.8684V71.8684H34.0158V70.8684H33.0158ZM33.818 67.4918L33.1109 66.7847H33.1109L33.818 67.4918ZM36.1499 66.6896V67.6896H37.1499V66.6896H36.1499ZM52.1187 48.8739L51.4116 49.581L52.1187 48.8739ZM54.1335 66.6896H53.1335V67.6896H54.1335V66.6896ZM56.4654 67.4918L57.1725 66.7847H57.1725L56.4654 67.4918ZM57.2676 70.8684H56.2676V71.8684H57.2676V70.8684ZM63.3305 70.8684V71.8684H64.3305V70.8684H63.3305ZM64.1327 67.4918L63.4256 66.7847H63.4255L64.1327 67.4918ZM66.4646 66.6896V67.6896H67.4646V66.6896H66.4646ZM68.4793 48.8739L69.1864 49.581V49.581L68.4793 48.8739ZM82.3961 48.8739L81.6889 49.581V49.581L82.3961 48.8739ZM84.4108 66.6896H83.4108V67.6896H84.4108V66.6896ZM86.7427 67.4918L87.4498 66.7847L87.4498 66.7847L86.7427 67.4918ZM87.5449 76.3157V77.3157H88.5449V76.3157H87.5449ZM67.6958 53.7616H66.6958V53.763L67.6958 53.7616ZM69.3561 49.7694L70.0632 50.4765V50.4765L69.3561 49.7694ZM67.7144 66.7083L66.7144 66.7097L66.7159 67.7083H67.7144V66.7083ZM83.1796 66.7083V67.7083H84.1796V66.7083H83.1796ZM81.5193 49.7694L82.2264 49.0623L81.5193 49.7694ZM64.5617 69.4319L65.5617 69.4352V69.4319H64.5617ZM64.9908 68.4059L65.6731 69.1369L65.6857 69.1252L65.6979 69.113L64.9908 68.4059ZM64.5431 75.0658L63.5431 75.0625L63.5397 76.0658H64.5431V75.0658ZM86.2763 75.0658V76.0658H87.2763V75.0658H86.2763ZM85.8473 68.4059L85.1162 69.0882L85.128 69.1008L85.1402 69.113L85.8473 68.4059ZM37.3998 53.7616H36.3998V53.763L37.3998 53.7616ZM39.0601 49.7694L38.353 49.0623V49.0623L39.0601 49.7694ZM37.4185 66.7083L36.4185 66.7097L36.4199 67.7083H37.4185V66.7083ZM52.8836 66.7083V67.7083H53.8836V66.7083H52.8836ZM51.2233 49.7694L51.9304 49.0623V49.0623L51.2233 49.7694ZM34.6948 68.4059L35.3771 69.1369L35.3897 69.1252L35.4019 69.113L34.6948 68.4059ZM34.2657 75.0658H33.2657V76.0658H34.2657V75.0658ZM55.9803 75.0658V76.0658H56.9803V75.0658H55.9803ZM55.5513 68.4059L54.8202 69.0882L54.832 69.1008L54.8442 69.113L55.5513 68.4059ZM8.76412 49.7694L8.05702 49.0623H8.05702L8.76412 49.7694ZM7.10382 66.7083H6.10382V67.7083H7.10382V66.7083ZM22.5689 66.7083V67.7083H23.5689V66.7083H22.5689ZM20.9086 49.7694L21.6157 49.0623L21.6157 49.0623L20.9086 49.7694ZM3.96975 75.0658H2.96975V76.0658H3.96975V75.0658ZM25.6844 75.0658V76.0658H26.6844V75.0658H25.6844ZM4.39882 68.4059L5.08114 69.1369L5.09374 69.1252L5.10592 69.113L4.39882 68.4059ZM11.2826 85.5127H10.2826V86.5127H11.2826V85.5127ZM11.2826 76.3157V75.3157H10.2826V76.3157H11.2826ZM18.3902 85.5127V86.5127H19.3902V85.5127H18.3902ZM18.3902 76.3157H19.3902V75.3157H18.3902V76.3157ZM19.6401 85.5127H18.6401V86.5127H19.6401V85.5127ZM19.6401 76.3157V75.3157H18.6401V76.3157H19.6401ZM40.3287 85.5127V86.5127H41.3287V85.5127H40.3287ZM40.3287 76.3157H41.3287V75.3157H40.3287V76.3157ZM33.0158 76.3157H32.0158V77.3157H33.0158V76.3157ZM33.0158 72.1369H34.0158V71.1369H33.0158V72.1369ZM26.9529 72.1369V71.1369H25.9529V72.1369H26.9529ZM26.9529 76.3157V77.3157H27.9529V76.3157H26.9529ZM41.5786 85.5127H40.5786V86.5127H41.5786V85.5127ZM41.5786 76.3157V75.3157H40.5786V76.3157H41.5786ZM48.6862 85.5127V86.5127H49.6862V85.5127H48.6862ZM48.6862 76.3157H49.6862V75.3157H48.6862V76.3157ZM49.9361 85.5127H48.9361V86.5127H49.9361V85.5127ZM49.9361 76.3157V75.3157H48.9361V76.3157H49.9361ZM70.6246 85.5127V86.5127H71.6246V85.5127H70.6246ZM70.6246 76.3157H71.6246V75.3157H70.6246V76.3157ZM63.3118 76.3157H62.3118V77.3157H63.3118V76.3157ZM63.3118 72.1369H64.3118V71.1369H63.3118V72.1369ZM57.2489 72.1369V71.1369H56.2489V72.1369H57.2489ZM57.2489 76.3157V77.3157H58.2489V76.3157H57.2489ZM71.8745 85.5127H70.8745V86.5127H71.8745V85.5127ZM71.8745 76.3157V75.3157H70.8745V76.3157H71.8745ZM78.9822 85.5127V86.5127H79.9822V85.5127H78.9822ZM78.9822 76.3157H79.9822V75.3157H78.9822V76.3157ZM58.1666 34.3975C54.6963 37.8501 50.0057 39.7962 45.123 39.7962V41.7962C50.538 41.7962 55.7346 39.6382 59.5772 35.8153L58.1666 34.3975ZM63.5617 21.3575C63.5617 26.2598 61.615 30.9491 58.1648 34.3993L59.579 35.8135C63.4043 31.9882 65.5617 26.7902 65.5617 21.3575H63.5617ZM58.1648 8.33443C61.6153 11.785 63.5617 16.4744 63.5617 21.3575H65.5617C65.5617 15.943 63.4039 10.7452 59.579 6.92022L58.1648 8.33443ZM45.123 2.9375C50.0057 2.9375 54.6963 4.88365 58.1666 8.33624L59.5772 6.91841C55.7346 3.09549 50.538 0.9375 45.123 0.9375V2.9375ZM32.0795 8.33624C35.5498 4.88365 40.2403 2.9375 45.123 2.9375V0.9375C39.7081 0.9375 34.5114 3.09549 30.6689 6.91841L32.0795 8.33624ZM26.6843 21.3762C26.6843 16.4739 28.6311 11.7846 32.0813 8.33443L30.6671 6.92022C26.8417 10.7455 24.6843 15.9435 24.6843 21.3762H26.6843ZM32.0831 34.4197C28.6301 30.9491 26.6843 26.277 26.6843 21.3762H24.6843C24.6843 26.8103 26.8427 31.9882 30.6653 35.8303L32.0831 34.4197ZM45.123 39.7962C40.24 39.7962 35.5485 37.8498 32.0776 34.4143L30.6707 35.8358C34.5126 39.6385 39.7083 41.7962 45.123 41.7962V39.7962ZM45.123 2.1874C40.0436 2.1874 35.1631 4.21506 31.5625 7.81567L32.9767 9.22988C36.2039 6.0027 40.5764 4.1874 45.123 4.1874V2.1874ZM58.6816 7.79508C55.0816 4.21477 50.2021 2.1874 45.123 2.1874V4.1874C49.67 4.1874 54.0434 6.00299 57.2713 9.21316L58.6816 7.79508ZM64.2932 21.3575C64.2932 16.2807 62.286 11.3995 58.6835 7.79701L57.2693 9.21122C60.4946 12.4365 62.2932 16.8082 62.2932 21.3575H64.2932ZM58.6649 34.918C62.2655 31.3174 64.2932 26.4369 64.2932 21.3575H62.2932C62.2932 25.9042 60.4778 30.2766 57.2507 33.5038L58.6649 34.918ZM45.1082 40.5463C50.2014 40.5266 55.0627 38.5202 58.6649 34.918L57.2507 33.5038C54.0251 36.7294 49.6707 38.5287 45.1005 38.5463L45.1082 40.5463ZM31.5458 34.9386C35.1458 38.5189 40.0252 40.5463 45.1044 40.5463V38.5463C40.5574 38.5463 36.1839 36.7307 32.9561 33.5205L31.5458 34.9386ZM25.9342 21.3762C25.9342 26.453 27.9414 31.3342 31.5438 34.9367L32.9581 33.5225C29.7327 30.2972 27.9342 25.9255 27.9342 21.3762H25.9342ZM31.5644 7.81373C27.9609 11.3976 25.9342 16.2983 25.9342 21.3762H27.9342C27.9342 16.8279 29.7506 12.4384 32.9748 9.23181L31.5644 7.81373ZM45.7573 21.7419H54.5252V19.7419H45.7573V21.7419ZM44.7573 8.8399V20.7419H46.7573V8.8399H44.7573ZM44.4888 9.8399H45.7573V7.8399H44.4888V9.8399ZM45.4888 21.9918V8.8399H43.4888V21.9918H45.4888ZM54.5252 20.9918H44.4888V22.9918H54.5252V20.9918ZM53.5252 20.7419V21.9918H55.5252V20.7419H53.5252ZM81.2321 85.5127V76.3157H79.2321V85.5127H81.2321ZM89 84.5127H80.2321V86.5127H89V84.5127ZM90 86.7626V85.5127H88V86.7626H90ZM1.24609 87.7626H89V85.7626H1.24609V87.7626ZM0.246094 85.5127V86.7626H2.24609V85.5127H0.246094ZM10.014 84.5127H1.24609V86.5127H10.014V84.5127ZM9.01402 76.3157V85.5127H11.014V76.3157H9.01402ZM2.71985 77.3157H10.014V75.3157H2.71985V77.3157ZM1.71985 69.4133V76.3157H3.71985V69.4133H1.71985ZM2.81491 66.7847C2.13001 67.4696 1.71985 68.4117 1.71985 69.4133H3.71985C3.71985 68.9597 3.90666 68.5214 4.22913 68.1989L2.81491 66.7847ZM5.44351 65.6896C4.44194 65.6896 3.49983 66.0998 2.81492 66.7847L4.22913 68.1989C4.5516 67.8764 4.98997 67.6896 5.44351 67.6896V65.6896ZM5.85392 65.6896H5.44351V67.6896H5.85392V65.6896ZM4.85392 53.7429V66.6896H6.85392V53.7429H4.85392ZM7.16157 48.1668C5.68672 49.6417 4.85392 51.6497 4.85392 53.7429H6.85392C6.85392 52.1798 7.47623 50.6806 8.57578 49.581L7.16157 48.1668ZM12.7377 45.8592C10.6444 45.8592 8.63643 46.692 7.16157 48.1668L8.57578 49.581C9.67534 48.4815 11.1745 47.8592 12.7377 47.8592V45.8592ZM16.9351 45.8592H12.7377V47.8592H16.9351V45.8592ZM22.5112 48.1668C21.0363 46.692 19.0283 45.8592 16.9351 45.8592V47.8592C18.4982 47.8592 19.9974 48.4815 21.097 49.581L22.5112 48.1668ZM24.8188 53.7429C24.8188 51.6497 23.986 49.6417 22.5112 48.1668L21.097 49.581C22.1965 50.6806 22.8188 52.1798 22.8188 53.7429H24.8188ZM24.8188 66.6896V53.7429H22.8188V66.6896H24.8188ZM24.2293 65.6896H23.8188V67.6896H24.2293V65.6896ZM26.8578 66.7847C26.1729 66.0998 25.2308 65.6896 24.2293 65.6896V67.6896C24.6828 67.6896 25.1212 67.8764 25.4436 68.1989L26.8578 66.7847ZM27.9529 69.4133C27.9529 68.4117 27.5428 67.4696 26.8578 66.7847L25.4436 68.1989C25.7661 68.5214 25.9529 68.9597 25.9529 69.4133H27.9529ZM27.9529 70.8684V69.4133H25.9529V70.8684H27.9529ZM33.0158 69.8684H26.9529V71.8684H33.0158V69.8684ZM32.0158 69.4133V70.8684H34.0158V69.4133H32.0158ZM33.1109 66.7847C32.426 67.4696 32.0158 68.4117 32.0158 69.4133H34.0158C34.0158 68.9597 34.2027 68.5214 34.5251 68.1989L33.1109 66.7847ZM35.7395 65.6896C34.7379 65.6896 33.7958 66.0998 33.1109 66.7847L34.5251 68.1989C34.8476 67.8764 35.286 67.6896 35.7395 67.6896V65.6896ZM36.1499 65.6896H35.7395V67.6896H36.1499V65.6896ZM35.1499 53.7429V66.6896H37.1499V53.7429H35.1499ZM37.4576 48.1668C35.9827 49.6417 35.1499 51.6497 35.1499 53.7429H37.1499C37.1499 52.1798 37.7722 50.6806 38.8718 49.581L37.4576 48.1668ZM43.0337 45.8592C40.9404 45.8592 38.9324 46.692 37.4576 48.1668L38.8718 49.581C39.9713 48.4815 41.4705 47.8592 43.0337 47.8592V45.8592ZM47.2497 45.8592H43.0337V47.8592H47.2497V45.8592ZM52.8258 48.1668C51.351 46.692 49.343 45.8592 47.2497 45.8592V47.8592C48.8129 47.8592 50.3121 48.4815 51.4116 49.581L52.8258 48.1668ZM55.1335 53.7429C55.1335 51.6497 54.3007 49.6417 52.8258 48.1668L51.4116 49.581C52.5112 50.6806 53.1335 52.1798 53.1335 53.7429H55.1335ZM55.1335 66.6896V53.7429H53.1335V66.6896H55.1335ZM54.5439 65.6896H54.1335V67.6896H54.5439V65.6896ZM57.1725 66.7847C56.4876 66.0998 55.5455 65.6896 54.5439 65.6896V67.6896C54.9974 67.6896 55.4358 67.8764 55.7583 68.1989L57.1725 66.7847ZM58.2676 69.4133C58.2676 68.4117 57.8574 67.4696 57.1725 66.7847L55.7583 68.1989C56.0807 68.5214 56.2676 68.9597 56.2676 69.4133H58.2676ZM58.2676 70.8684V69.4133H56.2676V70.8684H58.2676ZM63.3305 69.8684H57.2676V71.8684H63.3305V69.8684ZM62.3305 69.4133V70.8684H64.3305V69.4133H62.3305ZM63.4255 66.7847C62.7406 67.4696 62.3305 68.4117 62.3305 69.4133H64.3305C64.3305 68.9597 64.5173 68.5214 64.8398 68.1989L63.4255 66.7847ZM66.0541 65.6896C65.0526 65.6896 64.1105 66.0998 63.4256 66.7847L64.8398 68.1989C65.1622 67.8764 65.6006 67.6896 66.0541 67.6896V65.6896ZM66.4646 65.6896H66.0541V67.6896H66.4646V65.6896ZM65.4646 53.7429V66.6896H67.4646V53.7429H65.4646ZM67.7722 48.1668C66.2973 49.6417 65.4646 51.6497 65.4646 53.7429H67.4646C67.4646 52.1798 68.0869 50.6806 69.1864 49.581L67.7722 48.1668ZM73.3483 45.8592C71.255 45.8592 69.2471 46.692 67.7722 48.1668L69.1864 49.581C70.286 48.4815 71.7851 47.8592 73.3483 47.8592V45.8592ZM77.5271 45.8592H73.3483V47.8592H77.5271V45.8592ZM83.1032 48.1668C81.6283 46.692 79.6203 45.8592 77.5271 45.8592V47.8592C79.0902 47.8592 80.5894 48.4815 81.6889 49.581L83.1032 48.1668ZM85.4108 53.7429C85.4108 51.6497 84.578 49.6417 83.1032 48.1668L81.6889 49.581C82.7885 50.6806 83.4108 52.1798 83.4108 53.7429H85.4108ZM85.4108 66.6896V53.7429H83.4108V66.6896H85.4108ZM84.8212 65.6896H84.4108V67.6896H84.8212V65.6896ZM87.4498 66.7847C86.7649 66.0998 85.8228 65.6896 84.8212 65.6896V67.6896C85.2748 67.6896 85.7131 67.8764 86.0356 68.1989L87.4498 66.7847ZM88.5449 69.4133C88.5449 68.4117 88.1347 67.4696 87.4498 66.7847L86.0356 68.1989C86.3581 68.5214 86.5449 68.9597 86.5449 69.4133H88.5449ZM88.5449 76.3157V69.4133H86.5449V76.3157H88.5449ZM80.2321 77.3157H87.5449V75.3157H80.2321V77.3157ZM68.6958 53.7616C68.6958 52.5363 69.186 51.3537 70.0632 50.4765L68.649 49.0623C67.3995 50.3118 66.6958 52.002 66.6958 53.7616H68.6958ZM68.7144 66.7068L68.6958 53.7601L66.6958 53.763L66.7144 66.7097L68.7144 66.7068ZM83.1796 65.7083H67.7144V67.7083H83.1796V65.7083ZM82.1796 53.7616V66.7083H84.1796V53.7616H82.1796ZM80.8122 50.4765C81.6894 51.3537 82.1796 52.5364 82.1796 53.7616H84.1796C84.1796 52.002 83.4759 50.3118 82.2264 49.0623L80.8122 50.4765ZM77.5271 49.1091C78.7523 49.1091 79.935 49.5993 80.8122 50.4765L82.2264 49.0623C80.9769 47.8128 79.2866 47.1091 77.5271 47.1091V49.1091ZM73.3483 49.1091H77.5271V47.1091H73.3483V49.1091ZM70.0632 50.4765C70.9404 49.5993 72.1231 49.1091 73.3483 49.1091V47.1091C71.5887 47.1091 69.8985 47.8128 68.649 49.0623L70.0632 50.4765ZM65.5617 69.4319C65.5617 69.2907 65.6146 69.1915 65.6731 69.1369L64.3085 67.6748C63.8073 68.1426 63.5617 68.7897 63.5617 69.4319H65.5617ZM65.5431 75.0691L65.5617 69.4352L63.5617 69.4286L63.5431 75.0625L65.5431 75.0691ZM86.2763 74.0658H64.5431V76.0658H86.2763V74.0658ZM85.2763 69.4319V75.0658H87.2763V69.4319H85.2763ZM85.1402 69.113C85.2317 69.2045 85.2763 69.3229 85.2763 69.4319H87.2763C87.2763 68.7947 87.0225 68.1669 86.5544 67.6988L85.1402 69.113ZM84.8212 68.9768C84.9625 68.9768 85.0616 69.0297 85.1162 69.0882L86.5783 67.7236C86.1105 67.2224 85.4635 66.9768 84.8212 66.9768V68.9768ZM66.0168 68.9768H84.8212V66.9768H66.0168V68.9768ZM65.6979 69.113C65.7894 69.0215 65.9078 68.9768 66.0168 68.9768V66.9768C65.3796 66.9768 64.7518 67.2306 64.2837 67.6988L65.6979 69.113ZM38.3998 53.7616C38.3998 52.5364 38.89 51.3537 39.7672 50.4765L38.353 49.0623C37.1035 50.3118 36.3998 52.002 36.3998 53.7616H38.3998ZM38.4185 66.7068L38.3998 53.7601L36.3998 53.763L36.4185 66.7097L38.4185 66.7068ZM52.8836 65.7083H37.4185V67.7083H52.8836V65.7083ZM51.8836 53.7616V66.7083H53.8836V53.7616H51.8836ZM50.5162 50.4765C51.3934 51.3537 51.8836 52.5364 51.8836 53.7616H53.8836C53.8836 52.002 53.1799 50.3118 51.9304 49.0623L50.5162 50.4765ZM47.2311 49.1091C48.4563 49.1091 49.639 49.5993 50.5162 50.4765L51.9304 49.0623C50.6809 47.8128 48.9907 47.1091 47.2311 47.1091V49.1091ZM43.0523 49.1091H47.2311V47.1091H43.0523V49.1091ZM39.7672 50.4765C40.6444 49.5993 41.8271 49.1091 43.0523 49.1091V47.1091C41.2927 47.1091 39.6025 47.8128 38.353 49.0623L39.7672 50.4765ZM35.2657 69.4319C35.2657 69.2907 35.3186 69.1915 35.3771 69.1369L34.0125 67.6748C33.5113 68.1426 33.2657 68.7897 33.2657 69.4319H35.2657ZM35.2657 75.0658V69.4319H33.2657V75.0658H35.2657ZM55.9803 74.0658H34.2657V76.0658H55.9803V74.0658ZM54.9803 69.4319V75.0658H56.9803V69.4319H54.9803ZM54.8442 69.113C54.9357 69.2045 54.9803 69.3229 54.9803 69.4319H56.9803C56.9803 68.7947 56.7265 68.1669 56.2584 67.6988L54.8442 69.113ZM54.5252 68.9768C54.6665 68.9768 54.7657 69.0297 54.8202 69.0882L56.2823 67.7236C55.8146 67.2224 55.1675 66.9768 54.5252 66.9768V68.9768ZM35.7208 68.9768H54.5252V66.9768H35.7208V68.9768ZM35.4019 69.113C35.4934 69.0215 35.6119 68.9768 35.7208 68.9768V66.9768C35.0836 66.9768 34.4558 67.2306 33.9877 67.6988L35.4019 69.113ZM8.10382 53.7616C8.10382 52.5364 8.59403 51.3537 9.47123 50.4765L8.05702 49.0623C6.80753 50.3118 6.10382 52.002 6.10382 53.7616H8.10382ZM8.10382 66.7083V53.7616H6.10382V66.7083H8.10382ZM10.2752 65.7083H7.10382V67.7083H10.2752V65.7083ZM10.6483 65.7083H10.2752V67.7083H10.6483V65.7083ZM22.5689 65.7083H10.6483V67.7083H22.5689V65.7083ZM21.5689 53.7616V66.7083H23.5689V53.7616H21.5689ZM20.2015 50.4765C21.0787 51.3537 21.5689 52.5364 21.5689 53.7616H23.5689C23.5689 52.002 22.8652 50.3118 21.6157 49.0623L20.2015 50.4765ZM16.9164 49.1091C18.1417 49.1091 19.3243 49.5993 20.2015 50.4765L21.6157 49.0623C20.3663 47.8128 18.676 47.1091 16.9164 47.1091V49.1091ZM12.7563 49.1091H16.9164V47.1091H12.7563V49.1091ZM9.47123 50.4765C10.3484 49.5993 11.5311 49.1091 12.7563 49.1091V47.1091C10.9967 47.1091 9.30651 47.8128 8.05702 49.0623L9.47123 50.4765ZM4.96975 75.0658V69.4319H2.96975V75.0658H4.96975ZM25.6844 74.0658H3.96975V76.0658H25.6844V74.0658ZM24.6844 69.4319V75.0658H26.6844V69.4319H24.6844ZM24.2293 68.9768C24.4791 68.9768 24.6844 69.182 24.6844 69.4319H26.6844C26.6844 68.0775 25.5837 66.9768 24.2293 66.9768V68.9768ZM10.6483 68.9768H24.2293V66.9768H10.6483V68.9768ZM10.2752 68.9768H10.6483V66.9768H10.2752V68.9768ZM5.42485 68.9768H10.2752V66.9768H5.42485V68.9768ZM5.10592 69.113C5.19744 69.0215 5.31587 68.9768 5.42485 68.9768V66.9768C4.78762 66.9768 4.15985 67.2306 3.69172 67.6988L5.10592 69.113ZM4.96975 69.4319C4.96975 69.2907 5.02266 69.1915 5.08114 69.1369L3.71649 67.6748C3.21532 68.1426 2.96975 68.7897 2.96975 69.4319H4.96975ZM12.2826 85.5127V76.3157H10.2826V85.5127H12.2826ZM18.3902 84.5127H11.2826V86.5127H18.3902V84.5127ZM17.3902 76.3157V85.5127H19.3902V76.3157H17.3902ZM11.2826 77.3157H18.3902V75.3157H11.2826V77.3157ZM20.6401 85.5127V76.3157H18.6401V85.5127H20.6401ZM40.3287 84.5127H19.6401V86.5127H40.3287V84.5127ZM39.3287 76.3157V85.5127H41.3287V76.3157H39.3287ZM33.0158 77.3157H40.3287V75.3157H33.0158V77.3157ZM32.0158 72.1369V76.3157H34.0158V72.1369H32.0158ZM26.9529 73.1369H33.0158V71.1369H26.9529V73.1369ZM27.9529 76.3157V72.1369H25.9529V76.3157H27.9529ZM19.6401 77.3157H26.9529V75.3157H19.6401V77.3157ZM42.5786 85.5127V76.3157H40.5786V85.5127H42.5786ZM48.6862 84.5127H41.5786V86.5127H48.6862V84.5127ZM47.6862 76.3157V85.5127H49.6862V76.3157H47.6862ZM41.5786 77.3157H48.6862V75.3157H41.5786V77.3157ZM50.9361 85.5127V76.3157H48.9361V85.5127H50.9361ZM70.6246 84.5127H49.9361V86.5127H70.6246V84.5127ZM69.6246 76.3157V85.5127H71.6246V76.3157H69.6246ZM63.3118 77.3157H70.6246V75.3157H63.3118V77.3157ZM62.3118 72.1369V76.3157H64.3118V72.1369H62.3118ZM57.2489 73.1369H63.3118V71.1369H57.2489V73.1369ZM58.2489 76.3157V72.1369H56.2489V76.3157H58.2489ZM49.9361 77.3157H57.2489V75.3157H49.9361V77.3157ZM72.8745 85.5127V76.3157H70.8745V85.5127H72.8745ZM78.9822 84.5127H71.8745V86.5127H78.9822V84.5127ZM77.9822 76.3157V85.5127H79.9822V76.3157H77.9822ZM71.8745 77.3157H78.9822V75.3157H71.8745V77.3157Z" fill="#48EBDC"/>
</svg>
