<svg width="79" height="55" viewBox="0 0 79 55" fill="none" xmlns="http://www.w3.org/2000/svg">
<path fill-rule="evenodd" clip-rule="evenodd" d="M18.7492 0C25.3672 0 30.7513 5.44347 30.7513 12.1145C30.7513 16.1527 28.7643 19.7386 25.7357 21.9354C31.4083 24.2452 35.7188 29.2849 37.0488 35.4391C39.6287 32.8869 42.7534 30.9001 46.2306 29.6887C41.7278 26.9266 38.7313 21.9354 38.7313 16.2496C38.7313 7.59178 45.7339 0.53304 54.3228 0.53304C62.9118 0.53304 69.9143 7.59178 69.9143 16.2496C69.9143 21.9192 66.9018 26.9104 62.415 29.6887C72.0615 33.0646 79 42.3201 79 53.1747C79 53.6593 78.8237 54.1278 78.4872 54.467C78.1507 54.8062 77.686 55 77.2053 55C76.7246 55 76.2599 54.8062 75.9234 54.467C75.5869 54.1278 75.3946 53.6593 75.4106 53.1747C75.4106 41.7063 66.4531 32.4024 55.2041 31.9501C54.9157 31.9662 54.6273 31.9824 54.3228 31.9824C54.0344 31.9824 53.7299 31.9662 53.4415 31.9501C42.1925 32.4185 33.235 41.7225 33.235 53.1747C33.235 53.6593 33.0588 54.1278 32.7222 54.467C32.3857 54.8062 31.921 55 31.4403 55C30.9596 55 30.4949 54.8062 30.1584 54.467C29.8219 54.1278 29.6296 53.6593 29.6456 53.1747C29.6456 48.022 31.2 43.2247 33.876 39.2511C33.7798 31.094 27.3702 24.5037 19.3261 24.1968C19.1338 24.2129 18.9415 24.2129 18.7332 24.2129C18.5248 24.2129 18.3326 24.2129 18.1403 24.1968C10.032 24.5037 3.59034 31.1909 3.59034 39.4449C3.59034 39.9295 3.41407 40.3979 3.07757 40.7372C2.74106 41.0764 2.27636 41.2702 1.79563 41.2702C1.31491 41.2702 0.850208 41.0764 0.513701 40.7372C0.177194 40.3979 -0.015096 39.9295 0.00092815 39.4449C0.00092815 31.5301 4.85625 24.746 11.7306 21.9354C8.71807 19.7386 6.73107 16.1527 6.73107 12.1145C6.73107 5.44347 12.1312 0 18.7492 0ZM18.7492 3.61821C14.0701 3.61821 10.3205 7.39794 10.3205 12.1145C10.3205 16.6373 13.7817 20.304 18.1883 20.5786C18.3646 20.5786 18.5569 20.5624 18.7492 20.5624C18.9415 20.5624 19.1177 20.5624 19.31 20.5786C23.7167 20.2878 27.1779 16.6373 27.1779 12.1145C27.1619 7.39794 23.4122 3.61821 18.7492 3.61821ZM54.3228 4.15125C47.6728 4.15125 42.3207 9.54626 42.3207 16.2496C42.3207 22.6623 47.2241 27.8957 53.4896 28.3157C53.762 28.2996 54.0504 28.2996 54.3228 28.2996C54.5952 28.2996 54.8837 28.3157 55.1561 28.3157C61.4055 27.8796 66.3249 22.6623 66.3249 16.2496C66.3089 9.54626 60.9568 4.15125 54.3228 4.15125Z" fill="#48EBDC"/>
</svg>
