<svg width="87" height="73" viewBox="0 0 87 73" fill="none" xmlns="http://www.w3.org/2000/svg">
<path d="M9.55171 60.8781H22.6188C23.0786 60.8781 23.5002 60.6865 23.8067 60.3416L40.7058 40.5685H57.7007C58.2755 40.5685 58.812 40.2428 59.0802 39.7446L75.3087 8.7055L76.2284 11.637C76.4966 12.4417 77.3588 12.9015 78.1827 12.6525C79.0066 12.3842 79.4473 11.522 79.1982 10.6981L77.1481 4.22207C77.0139 3.81971 76.7457 3.494 76.3625 3.3024C75.9985 3.1108 75.5578 3.09164 75.1746 3.22576L68.8518 5.35251C68.4494 5.48663 68.1429 5.75487 67.9513 6.13807C67.7597 6.50211 67.7405 6.92363 67.8746 7.32599C68.0088 7.72835 68.277 8.03491 68.6602 8.22651C69.0242 8.41811 69.4458 8.43726 69.8481 8.30315L72.5114 7.40263L56.781 37.4838H39.9969C39.5371 37.4838 39.1155 37.6754 38.809 38.0202L21.9099 57.7933H9.55171C8.68951 57.7933 7.99976 58.4831 7.99976 59.3453C7.99976 60.2075 8.68951 60.8781 9.55171 60.8781Z" fill="#48EBDC" stroke="#48EBDC"/>
<path d="M84.448 68.772H4.22525V2.07613C4.22525 1.21393 3.53549 0.52417 2.67329 0.52417C1.8111 0.52417 1.12134 1.21393 1.12134 2.07613V70.3239C1.12134 71.1861 1.8111 71.8759 2.67329 71.8759H84.448C85.3102 71.8759 86 71.1861 86 70.3239C86 69.4617 85.3102 68.772 84.448 68.772Z" fill="#48EBDC" stroke="#48EBDC"/>
</svg>
