<svg class="done" viewBox="0 0 68 68" fill="none" xmlns="http://www.w3.org/2000/svg">
<path fill-rule="evenodd" clip-rule="evenodd" d="M0 33.5076C0 15.0232 15.0232 0 33.5076 0C51.9768 0 67 15.0232 67.0151 33.5076C67.0151 51.9919 51.9919 67.0151 33.5076 67.0151C15.0232 67.0151 0 51.9919 0 33.5076ZM3.53666 33.5076C3.53666 50.0271 16.988 63.4785 33.5076 63.4785C50.0271 63.4785 63.4785 50.0271 63.4785 33.5076C63.4785 16.988 50.0271 3.53666 33.5076 3.53666C16.988 3.53666 3.53666 16.988 3.53666 33.5076ZM28.2177 43.3618L51.6443 19.905C52.3395 19.2249 53.4579 19.24 54.1683 19.9353C54.8635 20.6154 54.8635 21.7187 54.1683 22.4139L29.4873 47.095C29.1245 47.4275 28.7013 47.6088 28.2328 47.6088C27.7643 47.6088 27.326 47.4275 26.9935 47.095L16.4137 36.5152C15.7185 35.8351 15.7185 34.7318 16.4137 34.0365C17.0938 33.3413 18.1972 33.3413 18.8924 34.0365L28.2177 43.3618Z" fill="#19C6DB"/>
</svg>
