<svg class="logo" viewBox="0 0 233 51" fill="none" xmlns="http://www.w3.org/2000/svg">
<path d="M49.8475 11.3333C48.5989 6.33898 44.661 2.40113 39.6667 1.15254C30.2542 -0.384181 20.7458 -0.384181 11.3333 1.15254C6.33898 2.40113 2.40113 6.33898 1.15254 11.3333C-0.384181 20.7458 -0.384181 30.2542 1.15254 39.6667C2.40113 44.661 6.33898 48.5989 11.3333 49.8475C20.7458 51.3842 30.2542 51.3842 39.6667 49.8475C44.661 48.5989 48.5989 44.661 49.8475 39.6667C51.3842 30.2542 51.3842 20.7458 49.8475 11.3333Z" fill="url(#paint0_linear_186_1706)"/>
<path d="M77.1 17C75.6 16.2 73.8 15.8 71.8 15.8H65.5C64.7 15.8 64 16.5 64 17.3V33.9C64 34.7 64.7 35.4 65.5 35.4H71.8C73.8 35.4 75.6 35 77.1 34.1C78.7 33.3 79.9 32.1 80.8 30.6C81.7 29.1 82.1 27.4 82.1 25.6C82.1 23.8 81.7 22.1 80.8 20.6C79.9 19 78.7 17.8 77.1 17ZM67.6 19.2H71.8C73.2 19.2 74.4 19.5 75.4 20C76.4 20.5 77.2 21.3 77.7 22.2C78.3 23.2 78.5 24.2 78.5 25.5C78.5 26.7 78.2 27.8 77.7 28.8C77.2 29.7 76.4 30.5 75.4 31C74.4 31.5 73.1 31.8 71.8 31.8H67.6V19.2Z" fill="#004366"/>
<path d="M100.9 31.7999H91.9V27.1H99.5C100.3 27.1 101 26.4 101 25.6V25.1C101 24.3 100.3 23.6 99.5 23.6H91.9V19.2H100.6C101.4 19.2 102.1 18.5 102.1 17.7V17.2C102.1 16.4 101.4 15.7 100.6 15.7H89.9C89.1 15.7 88.4 16.4 88.4 17.2V33.7999C88.4 34.5999 89.1 35.2999 89.9 35.2999H100.9C101.7 35.2999 102.4 34.5999 102.4 33.7999V33.2999C102.5 32.5 101.8 31.7999 100.9 31.7999Z" fill="#004366"/>
<path d="M123.5 15.7H123C122.2 15.7 121.5 16.4 121.5 17.2V28.4L112.1 16.2C111.8 15.8 111.4 15.6 110.9 15.6H110.5C109.7 15.6 109 16.3 109 17.1V33.7C109 34.5 109.7 35.2 110.5 35.2H111C111.8 35.2 112.5 34.5 112.5 33.7V22.6L121.9 34.8C122.2 35.2 122.6 35.4 123.1 35.4H123.5C124.3 35.4 125 34.7 125 33.9V17.2C125 16.4 124.3 15.7 123.5 15.7Z" fill="#004366"/>
<path d="M144.3 15.7H131.5C130.7 15.7 130 16.4 130 17.2V17.7C130 18.5 130.7 19.2 131.5 19.2H136.1V33.7999C136.1 34.5999 136.8 35.2999 137.6 35.2999H138.1C138.9 35.2999 139.6 34.5999 139.6 33.7999V19.2H144.2C145 19.2 145.7 18.5 145.7 17.7V17.2C145.8 16.4 145.1 15.7 144.3 15.7Z" fill="#004366"/>
<path d="M163.9 16.9C162.4 16 160.7 15.6 158.8 15.6C156.9 15.6 155.2 16 153.7 16.9C152.2 17.8 150.9 19 150.1 20.5C149.2 22 148.8 23.7 148.8 25.6C148.8 27.4 149.2 29.1 150.1 30.7C151 32.2 152.2 33.4 153.7 34.3C155.2 35.2 156.9 35.6 158.8 35.6C160.7 35.6 162.4 35.2 163.9 34.3C165.4 33.4 166.7 32.2 167.5 30.7C168.4 29.2 168.8 27.5 168.8 25.6C168.8 23.8 168.4 22.1 167.5 20.5C166.6 19 165.4 17.8 163.9 16.9ZM158.8 31.9C157.6 31.9 156.5 31.6 155.5 31.1C154.5 30.5 153.8 29.8 153.2 28.8C152.6 27.8 152.4 26.8 152.4 25.5C152.4 24.3 152.7 23.2 153.2 22.2C153.8 21.2 154.5 20.5 155.5 19.9C156.5 19.3 157.6 19.1 158.8 19.1C160 19.1 161.1 19.4 162.1 19.9C163.1 20.5 163.8 21.2 164.4 22.2C165 23.2 165.2 24.3 165.2 25.5C165.2 26.7 164.9 27.8 164.4 28.8C163.8 29.8 163.1 30.5 162.1 31.1C161.1 31.6 160 31.9 158.8 31.9Z" fill="#004366"/>
<path d="M187.5 18C186.2 16.9 184.4 16.4 182.1 16.4H176.5C176 16.4 175.6 16.8 175.6 17.3V33.9C175.6 34.4 176 34.8 176.5 34.8H177C177.5 34.8 177.9 34.4 177.9 33.9V29H182.2C184.4 29 186.2 28.4 187.6 27.4C189 26.3 189.7 24.7 189.7 22.7C189.6 20.7 188.9 19.1 187.5 18ZM182.2 26.8H177.9V18.6H182.2C183.9 18.6 185.2 19 186.1 19.7C186.9 20.4 187.3 21.4 187.3 22.7C187.3 24 186.9 25 186.1 25.7C185.3 26.4 183.9 26.8 182.2 26.8Z" fill="#004366"/>
<path d="M210.8 16.4H210.3C209.8 16.4 209.4 16.8 209.4 17.3V26.9C209.4 28.8 209 30.3 208.1 31.2C207.2 32.1 206 32.6 204.4 32.6C202.8 32.6 201.5 32.2 200.7 31.2C199.8 30.3 199.4 28.8 199.4 26.9V17.3C199.4 16.8 199 16.4 198.5 16.4H198C197.5 16.4 197.1 16.8 197.1 17.3V26.9C197.1 29.4 197.7 31.4 199 32.7C200.3 34.1 202.1 34.8 204.4 34.8C206.7 34.8 208.5 34.1 209.8 32.7C211.1 31.4 211.7 29.4 211.7 26.9V17.3C211.7 16.7 211.3 16.4 210.8 16.4Z" fill="#004366"/>
<path d="M231.4 26.9C230.8 26.2 230.1 25.7 229.3 25.4C228.6 25.1 227.6 24.8 226.3 24.5C225.2 24.2 224.3 24 223.6 23.7C223.1 23.5 222.6 23.2 222.2 22.8C221.9 22.5 221.7 22 221.7 21.3C221.7 20.5 222 19.8 222.7 19.3C223.4 18.7 224.5 18.4 225.9 18.4C226.6 18.4 227.3 18.5 228 18.7C228.7 18.9 229.3 19.2 229.9 19.6C230.1 19.7 230.3 19.8 230.6 19.8C230.8 19.8 231 19.6 231.2 19.4L231.5 19C231.8 18.6 231.7 18.1 231.3 17.8C230.6 17.3 229.8 16.9 228.8 16.6C227.9 16.3 226.9 16.1 225.9 16.1C224.5 16.1 223.4 16.3 222.4 16.7C221.4 17.2 220.7 17.8 220.2 18.6C219.7 19.4 219.5 20.2 219.5 21.2C219.5 22.4 219.8 23.4 220.5 24.1C221.1 24.8 221.8 25.3 222.7 25.6C223.4 25.9 224.5 26.2 225.7 26.5C226.8 26.8 227.7 27 228.3 27.2C228.8 27.4 229.3 27.7 229.7 28.1C230 28.4 230.2 28.9 230.2 29.5C230.2 30.3 229.9 30.9 229.2 31.5C228.5 32.1 227.4 32.3 225.8 32.3C224.8 32.3 223.8 32.1 223 31.7C222.1 31.3 221.5 30.9 221 30.4C220.8 30.2 220.6 30.1 220.4 30.1C220.2 30.1 219.9 30.2 219.7 30.3L219.4 30.6C219.1 30.9 219 31.4 219.3 31.8C220 32.6 220.9 33.3 222.1 33.8C223.3 34.3 224.5 34.5 225.8 34.5C227.2 34.5 228.4 34.3 229.3 33.9C230.3 33.5 231.1 32.8 231.6 32.1C232.1 31.3 232.4 30.5 232.4 29.5C232.3 28.6 232 27.6 231.4 26.9Z" fill="#004366"/>
<path d="M28.42 20.2935C28.42 20.9313 28.9666 21.5691 29.6955 21.5691C30.4244 21.5691 30.9711 21.0224 30.9711 20.2935C30.9711 19.5646 30.4244 19.0179 29.6955 19.0179C28.9666 19.0179 28.42 19.5646 28.42 20.2935Z" fill="white"/>
<path d="M43.8178 28.4935C43.8178 28.4024 43.7267 28.3113 43.7267 28.2202C43.5444 27.8557 43.0889 27.5824 42.6333 27.5824H42.5422C41.9956 27.5824 41.54 27.9468 41.4489 28.4935C41.4489 28.6757 41.3578 28.9491 41.3578 29.2224V29.5869C41.3578 30.498 41.0844 31.4091 40.6289 32.2291C40.3556 32.7757 39.9911 33.2313 39.5356 33.6869C38.8978 34.3246 38.0778 34.7802 37.2578 35.0535C36.8022 35.2357 36.3467 35.3269 35.8911 35.3269C34.8889 35.418 33.9778 35.2357 33.0667 34.8713C32.9755 34.7802 32.8844 34.7802 32.7022 34.6891C32.4289 34.5069 32.1555 34.4157 31.8822 34.2335C31.7911 34.1424 31.6089 34.0513 31.5178 33.9602C31.3355 33.8691 31.2444 33.6869 31.0622 33.5046L30.5155 32.7757C30.06 32.0469 29.7867 31.2269 29.5133 30.5891C29.24 29.8602 28.9667 29.0402 28.42 28.3113C27.7822 27.4002 26.6889 26.8535 25.4133 26.8535C24.0467 26.8535 23.0444 27.3091 22.4067 28.3113C21.86 29.0402 21.5867 29.7691 21.3133 30.5891C21.04 31.318 20.8578 32.0469 20.3111 32.8669L19.7644 33.5957C19.5822 33.778 19.4911 33.8691 19.3089 33.9602C19.2178 34.0513 19.0355 34.1424 18.9444 34.2335C18.6711 34.4157 18.3978 34.598 18.1244 34.6891C18.0333 34.7802 17.9422 34.7802 17.76 34.8713C16.8489 35.2357 15.9378 35.418 14.9355 35.3269C14.48 35.3269 14.0244 35.2357 13.5689 35.0535C12.7489 34.7802 11.9289 34.3246 11.2911 33.6869C10.8355 33.2313 10.4711 32.7757 10.1978 32.2291C9.92442 31.4091 9.7422 30.498 9.65109 29.5869V29.2224C9.65109 28.9491 9.65109 28.6757 9.55998 28.4935C9.46887 27.9468 8.9222 27.5824 8.37553 27.5824C7.91998 27.5824 7.55553 27.8557 7.2822 28.2202C7.2822 28.3113 7.19109 28.3113 7.19109 28.4024V28.4935C7.19109 28.6757 7.09998 28.9491 7.09998 29.2224V29.4957C7.19109 33.4135 9.92442 36.7846 13.7511 37.6046C14.0244 37.6957 14.2978 37.6957 14.5711 37.6957C14.8444 37.6957 15.1178 37.7869 15.3911 37.7869C15.4822 37.7869 15.6644 37.7869 15.7555 37.7869C16.8489 37.7869 17.9422 37.5135 18.9444 37.058C20.1289 36.6024 21.1311 35.7824 21.9511 34.8713L22.0422 34.7802C22.4067 34.3246 22.68 33.8691 22.9533 33.4135C23.2267 32.7757 23.4089 32.2291 23.6822 31.5913C23.7733 31.318 23.8644 31.0446 23.9555 30.7713C23.9555 30.6802 24.0467 30.5891 24.0467 30.498C24.1378 30.2246 24.2289 29.9513 24.5022 29.678C24.7755 29.4046 25.2311 29.3135 25.5044 29.3135C25.7778 29.3135 26.3244 29.4046 26.5978 29.678C26.8711 29.8602 26.9622 30.2246 27.0533 30.498C27.0533 30.5891 27.1444 30.6802 27.1444 30.7713C27.2355 31.0446 27.3267 31.318 27.4178 31.5913C27.6 32.2291 27.7822 32.7757 28.1467 33.4135C28.42 33.9602 28.6933 34.4157 29.0578 34.7802L29.1489 34.8713C29.9689 35.7824 30.9711 36.6024 32.1555 37.058C33.1578 37.5135 34.2511 37.6957 35.3444 37.7869C35.4356 37.7869 35.4356 37.7869 35.5267 37.7869C35.6178 37.7869 35.7089 37.7869 35.8 37.7869C36.0733 37.7869 36.3467 37.7869 36.5289 37.6957C36.8022 37.6957 37.0756 37.6046 37.3489 37.6046C41.1756 36.7846 44 33.4135 44 29.4957V29.2224C43.9089 28.9491 43.9089 28.7668 43.8178 28.4935Z" fill="white"/>
<path d="M13.9333 33.0491C14.48 33.3224 15.1177 33.4135 15.6644 33.4135C16.3022 33.4135 16.94 33.2313 17.5777 32.8668C17.8511 32.6846 18.1244 32.5024 18.3977 32.2291C18.9444 31.7735 19.3088 31.2269 19.4911 30.6802C19.8555 29.7691 19.8555 28.858 19.5822 27.7646C19.4911 27.4002 19.1266 26.4891 19.0355 26.1246C18.9444 25.9424 18.8533 25.7602 18.7622 25.578H18.6711H18.7622C18.58 25.2135 18.4888 24.8491 18.3066 24.3935C18.1244 23.938 18.0333 23.5735 17.8511 23.118V23.0268C17.4866 21.9335 17.1222 21.0224 17.0311 20.4757C16.8488 18.9268 17.3955 17.378 18.58 16.4668C19.2177 16.0113 19.9466 15.738 20.7666 15.6468C21.4044 15.5557 22.1333 15.6468 22.7711 15.9202C23.5911 16.2846 24.7755 16.3757 25.5044 16.3757C26.3244 16.3757 27.4177 16.1935 28.1466 15.9202C28.7844 15.6468 29.5133 15.5557 30.1511 15.6468C30.9711 15.738 31.7 16.0113 32.3377 16.4668C33.5222 17.378 34.16 18.8357 33.8866 20.4757C33.7955 21.1135 33.5222 22.0246 33.0666 23.0268C32.8844 23.3913 32.7933 23.8468 32.6111 24.3024C32.4289 24.758 32.3377 25.0313 32.1555 25.4868C32.0644 25.6691 31.9733 25.8513 31.8822 26.0335C31.7911 26.398 31.4266 27.3091 31.3355 27.6735C30.9711 28.7668 31.0622 29.7691 31.4266 30.5891C31.7 31.1357 32.0644 31.6824 32.52 32.138C32.7933 32.4113 33.0666 32.5935 33.34 32.7757C34.5244 33.4135 35.7089 33.5046 36.9844 32.8668C38.6244 32.138 39.5355 30.7713 39.5355 28.858V27.218C39.5355 26.9446 39.5355 26.6713 39.4444 26.4891C39.3533 25.9424 38.8977 25.4868 38.26 25.4868C37.7133 25.4868 37.1666 25.8513 37.0755 26.398C37.0755 26.5802 36.9844 26.8535 36.9844 27.1268V28.9491C36.9844 29.3135 36.8022 29.678 36.62 29.8602C36.1644 30.498 35.4355 30.6802 34.7066 30.4068C34.3422 30.3157 34.0689 30.0424 33.8866 29.8602C33.6133 29.4957 33.5222 29.0402 33.6133 28.5846C33.7044 28.038 34.16 26.8535 34.3422 26.3068C34.4333 26.1246 34.4333 26.0335 34.5244 25.8513C34.6155 25.578 34.7977 25.3046 34.8889 25.0313C35.0711 24.5757 35.1622 24.1202 35.3444 23.7557C35.9822 21.7513 36.3466 20.7491 36.3466 19.6557C36.4377 17.4691 35.3444 15.3735 33.6133 14.098C32.7933 13.5513 31.8822 13.1868 30.9711 13.0046C29.7866 12.8224 28.6022 12.9135 27.4177 13.3691C26.8711 13.5513 26.0511 13.6424 25.4133 13.6424C24.8666 13.6424 23.9555 13.5513 23.4088 13.3691C22.2244 12.9135 21.04 12.8224 19.8555 13.0046C18.9444 13.1868 18.0333 13.5513 17.2133 14.098C15.3911 15.3735 14.3888 17.4691 14.48 19.6557C14.48 20.8402 14.8444 21.8424 15.4822 23.8468C15.5733 24.2113 15.7555 24.6668 15.9377 25.1224C16.0288 25.3957 16.12 25.6691 16.3022 26.0335V26.1246C16.3933 26.2157 16.3933 26.398 16.4844 26.4891C16.6666 26.9446 17.1222 28.2202 17.2133 28.7668C17.3044 29.2224 17.2133 29.678 16.94 30.0424C16.7577 30.3157 16.3933 30.498 16.12 30.5891C15.3911 30.8624 14.6622 30.6802 14.2066 30.0424C14.0244 29.7691 13.8422 29.4046 13.8422 29.1313V27.3091C13.8422 27.0357 13.8422 26.7624 13.7511 26.5802C13.66 26.0335 13.1133 25.6691 12.5666 25.6691H12.4755C11.9288 25.6691 11.4733 26.1246 11.2911 26.6713C11.2911 26.8535 11.2 27.1268 11.2 27.4002V29.0402C11.3822 30.9535 12.2933 32.3202 13.9333 33.0491Z" fill="white"/>
<path d="M20.1288 20.2935C20.1288 20.9313 20.6755 21.5691 21.4044 21.5691C22.1333 21.5691 22.68 21.0224 22.68 20.2935C22.68 19.5646 22.1333 19.0179 21.4044 19.0179C20.6755 19.0179 20.1288 19.5646 20.1288 20.2935Z" fill="white"/>
<defs>
<linearGradient id="paint0_linear_186_1706" x1="15.5" y1="44" x2="47.5" y2="-3" gradientUnits="userSpaceOnUse">
<stop stop-color="#00B5DE"/>
<stop offset="0.582606" stop-color="#03D8E4"/>
<stop offset="1" stop-color="#05FFEB"/>
</linearGradient>
</defs>
</svg>
